<svg height="430pt" viewBox="-16 0 430 430.00036" width="430pt" xmlns="http://www.w3.org/2000/svg"><path d="m120.074219 231.6875c4.042969 0 7.691406-2.4375 9.238281-6.175781 1.550781-3.734375.691406-8.039063-2.167969-10.898438-39.355469-39.445312-39.355469-103.308593 0-142.753906 3.90625-3.90625 3.90625-10.238281 0-14.140625-3.90625-3.90625-10.238281-3.90625-14.144531 0-47.152344 47.261719-47.152344 123.773438 0 171.039062 1.875 1.878907 4.421875 2.933594 7.074219 2.929688zm0 0"/><path d="m270.398438 57.71875c-3.902344 3.90625-3.902344 10.238281 0 14.140625 39.359374 39.449219 39.359374 103.308594 0 142.757813-3.902344 3.902343-3.90625 10.234374 0 14.140624s10.238281 3.90625 14.144531 0c47.152343-47.261718 47.152343-123.777343 0-171.039062-3.90625-3.90625-10.238281-3.90625-14.144531 0zm0 0"/><path d="m72.359375 2.929688c-3.90625-3.90625-10.238281-3.90625-14.144531 0-77.621094 77.628906-77.621094 203.484374 0 281.113281 3.90625 3.90625 10.238281 3.90625 14.144531 0s3.90625-10.238281 0-14.144531c-69.8125-69.816407-69.8125-183.007813 0-252.828126 3.902344-3.90625 3.902344-10.234374 0-14.140624zm0 0"/><path d="m325.1875 2.929688c-3.902344 3.90625-3.902344 10.238281 0 14.140624 69.8125 69.820313 69.8125 183.011719 0 252.832032-3.902344 3.90625-3.90625 10.238281 0 14.140625 3.90625 3.90625 10.238281 3.90625 14.144531.003906 77.621094-77.632813 77.621094-203.488281 0-281.117187-3.90625-3.90625-10.238281-3.90625-14.144531 0zm0 0"/><path d="m225.402344 185.59375c18.757812-11.855469 27.421875-34.683594 21.25-56-6.167969-21.316406-25.6875-35.984375-47.878906-35.984375-22.191407 0-41.710938 14.667969-47.882813 35.984375-6.167969 21.316406 2.496094 44.144531 21.253906 56l-83.882812 230.992188c-1.113281 3.066406-.660157 6.484374 1.210937 9.152343 1.871094 2.671875 4.925782 4.261719 8.1875 4.261719h202.222656c3.261719 0 6.320313-1.589844 8.191407-4.261719 1.871093-2.667969 2.324219-6.085937 1.210937-9.152343zm-26.628906-71.953125c16.484374 0 29.847656 13.363281 29.847656 29.847656s-13.363282 29.847657-29.847656 29.847657c-16.484376 0-29.847657-13.363282-29.847657-29.847657.019531-16.476562 13.371094-29.828125 29.847657-29.847656zm0 79.691406c2.65625 0 5.308593-.214843 7.929687-.636719l35.335937 97.304688h-86.53125l35.335938-97.300781c2.621094.421875 5.273438.632812 7.929688.632812zm-86.839844 216.667969 36.3125-100h101.054687l36.3125 100zm0 0"/></svg>