<svg height="462pt" viewBox="-11 0 462 462" width="462pt" xmlns="http://www.w3.org/2000/svg"><path d="m400.171875 0h-360.171875c-22.082031.0234375-39.9765625 17.917969-40 40v412c0 5.523438 4.476562 10 10 10h420.175781c5.519531 0 10-4.476562 10-10v-412c-.027343-22.082031-17.921875-39.9765625-40.003906-40zm-119.160156 442h-116.394531v-63.507812c.007812-5.519532 4.480468-9.992188 10-10h96.394531c5.523437.007812 9.996093 4.480468 10 10zm20 0v-63.507812c-.015625-16.558594-13.4375-29.980469-30-30h-96.394531c-16.558594.019531-29.980469 13.441406-30 30v63.507812h-124.617188v-402c.011719-11.039062 8.960938-19.988281 20-20h360.171875c11.042969.011719 19.988281 8.960938 20 20v402zm0 0"/><path d="m375.605469 200.988281h-311.039063c-5.519531 0-10 4.476563-10 10v85.484375c0 5.519532 4.480469 10 10 10h311.039063c5.523437 0 10-4.480468 10-10v-85.484375c0-5.523437-4.476563-10-10-10zm-145.519531 20h60v65.484375h-60zm-20 65.484375h-60v-65.484375h60zm-135.519532-65.484375h55.519532v65.484375h-55.519532zm291.039063 65.484375h-55.519531v-65.484375h55.519531zm0 0"/><path d="m375.605469 60.023438h-311.039063c-5.519531 0-10 4.476562-10 10v85.480468c0 5.523438 4.480469 10 10 10h311.039063c5.523437 0 10-4.476562 10-10v-85.480468c0-5.523438-4.476563-10-10-10zm-145.519531 20h60v65.480468h-60zm-20 65.480468h-60v-65.480468h60zm-135.519532-65.480468h55.519532v65.480468h-55.519532zm291.039063 65.480468h-55.519531v-65.480468h55.519531zm0 0"/></svg>