<svg height="454pt" viewBox="0 -6 454 454" width="454pt" xmlns="http://www.w3.org/2000/svg"><path d="m424 107.078125h-152.738281v-62.816406c0-24.445313-19.816407-44.261719-44.261719-44.261719s-44.261719 19.816406-44.261719 44.261719v62.816406h-152.738281c-16.5625.019531-29.9804688 13.441406-30 30v61.367187c.0195312 16.5625 13.4375 29.984376 30 30h5.152344l14.917968 159.714844c2.761719 30.898438 28.71875 54.542969 59.742188 54.417969h234.378906c31.023438.125 56.976563-23.519531 59.738282-54.417969l14.917968-159.714844h5.152344c16.5625-.015624 29.980469-13.4375 30-30v-61.367187c-.019531-16.558594-13.4375-29.980469-30-30zm-221.261719-62.816406c0-13.398438 10.863281-24.261719 24.261719-24.261719s24.261719 10.863281 24.261719 24.261719v62.816406h-48.523438zm181.277344 342.035156c-1.839844 20.601563-19.144531 36.363281-39.828125 36.28125h-234.375c-20.683594.082031-37.988281-15.679687-39.828125-36.28125l-14.742187-157.851563h343.519531zm49.984375-187.851563c-.007812 5.523438-4.480469 9.996094-10 10h-394c-5.519531-.003906-9.992188-4.476562-10-10v-61.367187c.007812-5.519531 4.480469-9.992187 10-10h394c5.519531.007813 9.992188 4.480469 10 10zm0 0"/><path d="m227 368.34375c5.523438 0 10-4.480469 10-10v-71.371094c0-5.523437-4.476562-10-10-10s-10 4.476563-10 10v71.371094c0 5.519531 4.476562 10 10 10zm0 0"/><path d="m312.65625 368.34375c5.523438 0 10-4.480469 10-10v-71.371094c0-5.523437-4.476562-10-10-10-5.519531 0-10 4.476563-10 10v71.371094c0 5.519531 4.480469 10 10 10zm0 0"/><path d="m141.34375 368.34375c5.519531 0 10-4.480469 10-10v-71.371094c0-5.523437-4.480469-10-10-10-5.523438 0-10 4.476563-10 10v71.371094c0 5.519531 4.476562 10 10 10zm0 0"/></svg>