<svg height="459pt" viewBox="0 -14 459.616 459" width="459pt" xmlns="http://www.w3.org/2000/svg"><path d="m449.617188 153.570312h-17.484376c-.015624 0-.03125-.007812-.046874-.007812-1.074219-.175781-2.167969-.171875-3.242188.007812h-15.628906l-46.390625-59.289062c20.570312-18.246094 23.894531-49.140625 7.679687-71.347656-16.214844-22.207032-46.652344-28.453125-70.300781-14.417969-23.644531 14.03125-32.75 43.738281-21.027344 68.609375 11.726563 24.875 40.433594 36.757812 66.308594 27.449219l38.335937 49h-321.539062l38.339844-49c26.0625 9.421875 55.015625-2.527344 66.851562-27.585938 11.835938-25.058593 2.671875-55.011719-21.160156-69.15625s-54.515625-7.8398435-70.84375 14.550781c-16.328125 22.394532-12.945312 53.535157 7.808594 71.898438l-46.390625 59.289062h-15.625c-1.074219-.179687-2.171875-.183593-3.246094-.011718-.015625 0-.03125.007812-.046875.011718h-11.96875c-5.523438 0-10 4.476563-10 10 0 5.523438 4.476562 10 10 10h5.152344l30.351562 185.863282c6.160156 41.917968 38.621094 71.1875 78.96875 71.1875h205.160156c40.347657 0 72.808594-29.269532 78.96875-71.1875l30.347657-185.863282h10.667969c5.523437 0 10-4.476562 10-10 0-5.523437-4.476563-10-10-10zm-151.769532-99.398437c0-18.53125 15.019532-33.550781 33.550782-33.550781 18.527343 0 33.550781 15.019531 33.550781 33.550781 0 18.527344-15.023438 33.550781-33.550781 33.550781-18.519532-.023437-33.53125-15.03125-33.550782-33.550781zm-175.140625-33.550781c18.53125 0 33.550781 15.023437 33.550781 33.550781 0 18.53125-15.019531 33.550781-33.550781 33.550781-18.527343 0-33.550781-15.019531-33.550781-33.550781.023438-18.519531 15.03125-33.527344 33.550781-33.550781zm266.140625 335.671875c-.007812.054687-.019531.109375-.027344.164062-4.65625 31.890625-29 54.164063-59.1875 54.164063h-205.160156c-30.195312 0-54.535156-22.273438-59.191406-54.164063-.007812-.054687-.015625-.109375-.027344-.167969l-29.835937-182.71875h383.269531zm0 0"/><path d="m227.050781 364.46875c5.523438 0 10-4.476562 10-10v-124.746094c0-5.523437-4.476562-10-10-10-5.523437 0-10 4.476563-10 10v124.746094c0 5.523438 4.480469 10 10 10zm0 0"/><path d="m149.871094 364.46875c5.523437 0 10-4.476562 10-10v-124.746094c0-5.523437-4.476563-10-10-10-5.523438 0-10 4.476563-10 10v124.746094c0 5.523438 4.476562 10 10 10zm0 0"/><path d="m304.230469 364.46875c5.523437 0 10-4.476562 10-10v-124.746094c0-5.523437-4.476563-10-10-10-5.523438 0-10 4.476563-10 10v124.746094c0 5.523438 4.476562 10 10 10zm0 0"/></svg>