<svg height="456pt" viewBox="0 -113 456 456" width="456pt" xmlns="http://www.w3.org/2000/svg"><path d="m406 0h-309.050781c-27.601563.03125-49.96875 22.398438-50 50v8.230469h-16.949219c-16.5625.019531-29.9804688 13.441406-30 30v52.539062c.0195312 16.558594 13.4375 29.980469 30 30h16.949219v8.230469c.03125 27.601562 22.398437 49.96875 50 50h309.050781c27.601562-.03125 49.96875-22.398438 50-50v-129c-.03125-27.601562-22.398438-49.96875-50-50zm-376 150.769531c-5.519531-.007812-9.992188-4.480469-10-10v-52.539062c.007812-5.519531 4.480469-9.992188 10-10h16.949219v72.539062zm406 28.230469c-.019531 16.5625-13.4375 29.980469-30 30h-309.050781c-16.5625-.019531-29.980469-13.4375-30-30v-129c.019531-16.5625 13.4375-29.980469 30-30h309.050781c16.5625.019531 29.980469 13.4375 30 30zm0 0"/><path d="m186.28125 104.5h-17.511719v-17.511719c0-5.523437-4.476562-10-10-10-5.523437 0-10 4.476563-10 10v17.511719h-17.511719c-5.523437 0-10 4.476562-10 10s4.476563 10 10 10h17.511719v17.511719c0 5.523437 4.476563 10 10 10 5.523438 0 10-4.476563 10-10v-17.511719h17.511719c5.523438 0 10-4.476562 10-10s-4.476562-10-10-10zm0 0"/><path d="m366.332031 76.988281c-5.523437 0-10 4.476563-10 10v55.023438c0 5.523437 4.476563 10 10 10 5.523438 0 10-4.476563 10-10v-55.023438c0-5.523437-4.476562-10-10-10zm0 0"/></svg>