<svg height="450pt" viewBox="-96 0 450 450" width="450pt" xmlns="http://www.w3.org/2000/svg"><path d="m208 50.570312h-21.855469v-20.570312c-.019531-16.5625-13.441406-29.9804688-30-30h-59c-16.5625.0195312-29.984375 13.4375-30 30v20.570312h-17.144531c-27.601562.03125-49.96875 22.398438-50 50v299.429688c.03125 27.601562 22.398438 49.96875 50 50h158c27.601562-.03125 49.96875-22.398438 50-50v-299.429688c-.03125-27.601562-22.398438-49.96875-50-50zm-120.855469-20.570312c.003907-5.519531 4.476563-9.992188 10-10h59c5.519531.007812 9.992188 4.480469 10 10v20.570312h-79zm150.855469 370c-.019531 16.5625-13.4375 29.980469-30 30h-158c-16.5625-.019531-29.980469-13.4375-30-30v-299.429688c.019531-16.558593 13.4375-29.980468 30-30h158c16.5625.019532 29.980469 13.441407 30 30zm0 0"/><path d="m206.699219 170.113281c-2.613281-1.878906-5.96875-2.386719-9.019531-1.359375l-143.71875 48.234375c-4.074219 1.367188-6.816407 5.183594-6.816407 9.480469v156.386719c0 5.523437 4.476563 10 10 10h143.710938c5.523437 0 10-4.476563 10-10v-204.625c.003906-3.214844-1.542969-6.238281-4.15625-8.117188zm-15.84375 202.742188h-123.710938v-139.199219l123.710938-41.523438zm0 0"/></svg>