<svg height="481pt" viewBox="-59 0 481 481.57834" width="481pt" xmlns="http://www.w3.org/2000/svg"><path d="m327.964844 302.480469v-77.78125c.160156-38.542969-14.980469-75.574219-42.101563-102.960938-18.886719-19.230469-42.847656-32.703125-69.089843-38.851562 18.578124-19.484375 17.976562-50.300781-1.34375-69.046875-19.324219-18.742188-50.144532-18.40625-69.054688.753906s-18.835938 49.984375.160156 69.058594c.121094.121094.25.234375.375.355468-24.515625 6.597657-46.824218 19.621094-64.621094 37.730469-27.117187 27.386719-42.257812 64.417969-42.101562 102.960938v77.269531c-22.175781.570312-39.867188 18.699219-39.898438 40.882812v36.886719c.023438 22.585938 18.324219 40.890625 40.910157 40.914063h69.980469c4.921874 34.941406 34.824218 60.925781 70.109374 60.925781 35.285157 0 65.1875-25.984375 70.109376-60.925781h69.980468c22.582032-.023438 40.886719-18.328125 40.910156-40.910156v-36.890626c-.027343-20.039062-14.550781-37.121093-34.324218-40.371093zm-20-.535157h-247.777344v-52.128906h247.777344zm-126.675782-282.097656c16.035157.015625 29.03125 13.011719 29.050782 29.050782 0 16.042968-13.007813 29.046874-29.050782 29.046874-16.042968 0-29.050781-13.003906-29.050781-29.046874.019531-16.039063 13.015625-29.035157 29.050781-29.050782zm-84.769531 115.953125c23.097657-23.457031 54.640625-36.664062 87.558594-36.664062 32.921875 0 64.464844 13.207031 87.5625 36.664062 23.40625 23.648438 36.46875 55.621094 36.324219 88.898438v5.117187h-247.777344v-5.117187c-.144531-33.277344 12.921875-65.25 36.332031-88.898438zm120.675781 310.921875c-13.265624 13.25-32.75 18.113282-50.6875 12.660156-17.9375-5.453124-31.414062-20.339843-35.0625-38.730468h99.6875c-1.921874 9.894531-6.78125 18.976562-13.9375 26.070312zm125.09375-66.984375c-.011718 11.546875-9.367187 20.902344-20.910156 20.914063h-280.179687c-11.542969-.011719-20.898438-9.367188-20.910157-20.914063v-36.886719c.011719-11.542968 9.367188-20.898437 20.910157-20.910156h280.179687c11.542969.011719 20.898438 9.367188 20.910156 20.910156zm0 0"/></svg>