<svg height="475pt" viewBox="0 -59 475.99753 475" width="475pt" xmlns="http://www.w3.org/2000/svg"><path d="m473.015625 231.722656-1.019531-3.082031c-.6875-2.367187-1.460938-4.695313-2.320313-6.988281l-57.277343-172.527344c-9.421876-29.03125-36.492188-48.671875-67.015626-48.625-38.910156 0-70.5625 31.425781-70.5625 70.117188l.035157 5.363281h-76.644531l-.089844-5.511719c-.046875-38.589844-31.679688-69.96875-70.558594-69.96875-30.523438-.046875-57.59375 19.59375-67.015625 48.625-.011719.039062-.023437.074219-.035156.109375l-53.980469 171.863281c-14.289062 37.699219-4.691406 80.285156 24.382812 108.207032 29.078126 27.921874 72.019532 35.789062 109.105469 19.984374 37.085938-15.800781 61.15625-52.222656 61.15625-92.535156 0-2.292968-.082031-4.5625-.234375-6.816406.039063-.390625.058594-.785156.054688-1.175781l-.457032-28.445313h75.28125l.144532 21.261719c-6.089844 39.992187 12.367187 79.742187 46.855468 100.890625 34.484376 21.148438 78.28125 19.582031 111.167969-3.976562 32.886719-23.558594 48.457031-64.527344 39.527344-103.980469-.035156-.949219-.203125-1.890625-.5-2.789063zm-127.632813-211.222656c21.878907-.027344 41.277344 14.066406 48.015626 34.882812l39.457031 118.851563c-44.066407-30.746094-104.527344-21.359375-137.199219 21.300781l-.835938-124.980468c-.003906-27.601563 22.675782-50.054688 50.5625-50.054688zm-70.394531 75.480469.363281 54.164062h-75.945312l-.875-54.164062zm-195.414062-40.699219c6.761719-20.773438 26.140625-34.820312 47.984375-34.789062 27.878906 0 50.5625 22.457031 50.5625 50.054687v.160156l2.007812 124.546875c-33.082031-42.886718-94.214844-51.816406-138.179687-20.183594zm21.011719 282.058594c-24.757813.007812-48.148438-11.367188-63.425782-30.847656-15.277344-19.484376-20.746094-44.910157-14.832031-68.953126l3.027344-9.636718c14.578125-38.011719 55.214843-59.179688 94.71875-49.335938 39.5 9.839844 65.460937 47.597656 60.5 88.007813-4.960938 40.40625-39.277344 70.765625-79.988281 70.761719zm99.628906-137.027344-.484375-30.171875h75.753906l.199219 30.171875zm175.191406 137.03125c-22.875.011719-44.679688-9.703125-59.964844-26.726562-15.289062-17.019532-22.617187-39.738282-20.15625-62.480469.46875-1.1875.707032-2.449219.699219-3.726563l-.007813-1.175781c6.105469-35.914063 35.550782-63.265625 71.820313-66.707031 36.265625-3.445313 70.332031 17.875 83.089844 52l1.851562 5.574218c7.152344 24.355469 2.402344 50.660157-12.816406 70.980469-15.21875 20.320313-39.125 32.273438-64.511719 32.261719zm0 0"/><path d="m100.585938 212.921875c-24.207032 0-43.832032 19.625-43.832032 43.832031 0 24.207032 19.625 43.832032 43.832032 43.832032 24.210937 0 43.835937-19.625 43.835937-43.832032-.03125-24.199218-19.636719-43.804687-43.835937-43.832031zm0 67.664063c-13.164063 0-23.832032-10.667969-23.832032-23.832032 0-13.164062 10.667969-23.835937 23.832032-23.835937 13.164062 0 23.835937 10.671875 23.835937 23.835937-.015625 13.15625-10.679687 23.820313-23.835937 23.832032zm0 0"/><path d="m375.40625 212.921875c-24.207031 0-43.832031 19.625-43.832031 43.832031 0 24.207032 19.625 43.832032 43.832031 43.832032 24.210938 0 43.835938-19.625 43.835938-43.832032-.027344-24.195312-19.636719-43.804687-43.835938-43.832031zm0 67.664063c-13.160156.003906-23.832031-10.667969-23.832031-23.832032 0-13.164062 10.667969-23.832031 23.832031-23.835937 13.164062 0 23.835938 10.671875 23.835938 23.835937-.015626 13.15625-10.675782 23.820313-23.835938 23.832032zm0 0"/></svg>