<svg height="448pt" viewBox="-1 0 448 448.8257" width="448pt" xmlns="http://www.w3.org/2000/svg"><path d="m436.191406 284.023438h-187.769531v-274.023438c0-4.339844-2.796875-8.183594-6.925781-9.515625-4.132813-1.335937-8.648438.148437-11.1875 3.667969l-153.105469 212.410156c-2.195313 3.046875-2.5 7.0625-.789063 10.40625 1.710938 3.339844 5.148438 5.441406 8.902344 5.441406h143.109375v51.605469h-218.011719c-3.351562 0-6.480468 1.679687-8.335937 4.472656-1.851563 2.792969-2.179687 6.332031-.878906 9.417969l60.390625 142.980469c1.554687 3.683593 5.15625 6.085937 9.152344 6.109375l301.949218 1.828125h.0625c3.96875 0 7.5625-2.347657 9.15625-5.984375l63.441406-144.8125c1.351563-3.089844 1.054688-6.65625-.789062-9.480469-1.847656-2.824219-4.996094-4.527344-8.371094-4.527344zm-331.34375-71.605469 123.574219-171.441407v171.441407zm261.386719 216.378906-288.78125-1.75-21.105469-49.976563 331.808594 1.683594zm30.667969-70-349.023438-1.769531-22.386718-53h395.398437zm0 0"/></svg>