<svg height="460pt" viewBox="-40 0 459 460" width="460pt" xmlns="http://www.w3.org/2000/svg"><path d="m348.683594 70.910156h-3.636719v-40.910156c-.019531-16.5625-13.441406-29.9804688-30-30h-268.546875c-12.132812-.00390625-23.773438 4.796875-32.382812 13.351562-8.683594 8.421876-13.597657 20-13.617188 32.097657 0 .625.011719 1.25.035156 1.871093-.023437.28125-.035156.570313-.035156.859376v365.820312c.027344 25.394531 20.605469 45.972656 46 46h302.183594c16.558594-.019531 29.980468-13.4375 30-30v-329.089844c-.019532-16.5625-13.441406-29.980468-30-30zm-302.183594-50.910156h268.546875c5.519531.007812 9.992187 4.480469 10 10v40.910156h-278.546875c-14.578125 0-26-11.183594-26-25.457031 0-13.796875 11.90625-25.453125 26-25.453125zm45.816406 70.910156h87.273438v176.335938l-37.097656-32.023438c-3.753907-3.238281-9.316407-3.238281-13.070313 0l-37.097656 32.023438v-176.335938zm266.367188 339.089844c-.007813 5.519531-4.480469 9.992188-10 10h-302.183594c-14.351562-.015625-25.984375-11.648438-26-26v-330.824219c7.710938 5.097657 16.757812 7.789063 26 7.734375h25.816406v185.074219c0 6.257813 3.648438 11.941406 9.339844 14.550781 5.6875 2.605469 12.378906 1.65625 17.117188-2.433594l37.179687-32.101562 37.183594 32.101562c2.882812 2.515626 6.578125 3.90625 10.402343 3.914063 2.320313-.003906 4.609376-.511719 6.710938-1.480469 5.722656-2.574218 9.382812-8.28125 9.339844-14.550781v-185.074219h149.089844c5.523437.003906 9.996093 4.476563 10 10v329.089844zm0 0"/></svg>