<svg height="458pt" viewBox="0 -27 458 458" width="458pt" xmlns="http://www.w3.org/2000/svg"><path d="m408 73.734375h-75.265625v-23.734375c-.03125-27.601562-22.398437-49.96875-50-50h-101.027344c-27.601562.03125-49.96875 22.398438-50 50v23.734375h-81.707031c-27.601562.03125-49.96875 22.398437-50 50v229.855469c.03125 27.597656 22.398438 49.964844 50 50h358c27.601562-.035156 49.96875-22.402344 50-50v-229.855469c-.03125-27.601563-22.398438-49.96875-50-50zm-256.292969-23.734375c.019531-16.5625 13.4375-29.980469 30-30h101.027344c16.5625.019531 29.980469 13.4375 30 30v23.734375h-161.027344zm161.027344 43.734375v289.855469h-161.027344v-289.855469zm-292.734375 259.855469v-229.855469c.019531-16.558594 13.4375-29.980469 30-30h81.707031v289.855469h-81.707031c-16.5625-.019532-29.980469-13.441406-30-30zm418 0c-.019531 16.558594-13.4375 29.980468-30 30h-75.265625v-289.855469h75.265625c16.5625.019531 29.980469 13.441406 30 30zm0 0"/></svg>