<svg height="485pt" viewBox="0 -14 485.066 485" width="485pt" xmlns="http://www.w3.org/2000/svg"><path d="m435.066406.03125h-385.066406c-27.601562.03125-49.96875 22.402344-50 50v356c.03125 27.601562 22.398438 49.96875 50 50h385.066406c27.601563-.03125 49.96875-22.398438 50-50v-356c-.03125-27.601562-22.398437-49.96875-50-50zm-385.066406 20h385.066406c16.558594.019531 29.980469 13.441406 30 30v76.441406h-445.066406v-76.441406c.019531-16.558594 13.4375-29.980469 30-30zm385.066406 416h-385.066406c-16.5625-.015625-29.980469-13.4375-30-30v-259.558594h445.066406v259.558594c-.019531 16.5625-13.441406 29.984375-30 30zm0 0"/><path d="m150.25 105.054688c17.5625 0 31.800781-14.238282 31.800781-31.800782s-14.238281-31.800781-31.800781-31.800781-31.800781 14.238281-31.800781 31.800781c.019531 17.554688 14.246093 31.78125 31.800781 31.800782zm0-43.601563c6.519531 0 11.800781 5.28125 11.800781 11.800781 0 6.515625-5.28125 11.800782-11.800781 11.800782-6.515625 0-11.800781-5.285157-11.800781-11.800782.007812-6.515625 5.289062-11.792968 11.800781-11.800781zm0 0"/><path d="m225.046875 105.054688c17.5625 0 31.800781-14.238282 31.800781-31.800782s-14.238281-31.800781-31.800781-31.800781-31.800781 14.238281-31.800781 31.800781c.019531 17.554688 14.246094 31.78125 31.800781 31.800782zm0-43.601563c6.519531 0 11.800781 5.28125 11.800781 11.800781 0 6.515625-5.28125 11.800782-11.800781 11.800782-6.515625 0-11.800781-5.285157-11.800781-11.800782.007812-6.515625 5.289062-11.792968 11.800781-11.800781zm0 0"/><path d="m75.453125 105.054688c17.5625 0 31.800781-14.238282 31.800781-31.800782s-14.238281-31.800781-31.800781-31.800781-31.800781 14.238281-31.800781 31.800781c.019531 17.554688 14.246094 31.78125 31.800781 31.800782zm0-43.601563c6.515625 0 11.800781 5.28125 11.800781 11.800781 0 6.515625-5.285156 11.800782-11.800781 11.800782s-11.800781-5.285157-11.800781-11.800782c.007812-6.515625 5.285156-11.792968 11.800781-11.800781zm0 0"/></svg>