<svg height="489pt" viewBox="-44 0 489 489.09007" width="489pt" xmlns="http://www.w3.org/2000/svg"><path d="m390.816406 0h-202.308594c-3.316406 0-6.414062 1.644531-8.277343 4.386719l-43.152344 63.613281-38.085937-63.160156c-1.808594-3.003906-5.054688-4.839844-8.5625-4.839844h-80.382813c-5.523437 0-10 4.476562-10 10v240.152344c.0351562 33.125 26.875 59.964844 60 60h44.230469c22.078125.027344 39.972656 17.921875 40 40v82.910156c-.050782 30.894531 24.953125 55.976562 55.847656 56.027344 30.894531.050781 55.980469-24.953125 56.027344-55.847656l.269531-83.21875c.113281-22.023438 17.976563-39.832032 40-39.871094h44.394531c33.121094-.035156 59.960938-26.875 60-60v-240.152344c0-5.523438-4.480468-10-10-10zm-306.035156 20 43.238281 71.699219c1.761719 2.921875 4.890625 4.742187 8.296875 4.832031 3.410156.09375 6.628906-1.558594 8.542969-4.378906l48.949219-72.152344h187.007812v174.613281h-360.769531v-174.613281zm296.035156 230.152344c-.027344 22.082031-17.921875 39.976562-40 40h-44.394531c-33.035156.0625-59.832031 26.773437-60 59.808594l-.269531 83.214843c-.03125 19.851563-16.148438 35.914063-35.996094 35.882813s-35.914062-16.148438-35.878906-35.996094v-82.910156c-.039063-33.121094-26.878906-59.960938-60-60h-44.230469c-22.082031-.023438-39.976563-17.917969-40-40v-35.539063h360.769531zm0 0"/></svg>