<svg height="498pt" viewBox="0 -18 498.4 498" width="498pt" xmlns="http://www.w3.org/2000/svg"><path d="m488.398438 441.449219h-29.046876v-264.5625c0-3.839844-2.199218-7.339844-5.660156-9.007813l-106.621094-51.398437v-16.28125c-.019531-16.558594-13.4375-29.980469-30-30v-40c-.019531-16.558594-13.4375-29.980469-30-30h-90.386718c-16.558594.019531-29.980469 13.441406-30 30v40c-16.558594.019531-29.980469 13.441406-30 30v154.738281l-96.90625 47.375c-3.433594 1.675781-5.609375 5.164062-5.609375 8.984375v130.148437h-24.167969c-5.523438 0-10 4.476563-10 10 0 5.523438 4.476562 10 10 10h478.398438c5.523437 0 10-4.476562 10-10 0-5.523437-4.476563-10-10-10zm-49.046876-258.28125v258.277343h-92.28125v-302.757812zm-252.667968-152.96875c.007812-5.519531 4.480468-9.992188 10-10h90.386718c5.519532.007812 9.996094 4.480469 10 10v40h-110.386718zm-20 60h150.386718c5.519532.007812 9.996094 4.480469 10 10v341.246093h-170.386718v-341.246093c.007812-5.519531 4.480468-9.992188 10-10zm-112.515625 227.339843 82.515625-40.339843v164.25h-82.515625zm0 0"/><path d="m195.5 207.835938h97.632812c5.523438 0 10-4.476563 10-10v-49.292969c0-5.523438-4.476562-10-10-10h-97.632812c-5.523438 0-10 4.476562-10 10v49.292969c0 5.523437 4.476562 10 10 10zm10-49.292969h77.632812v29.292969h-77.632812zm0 0"/><path d="m195.5 305.46875h97.632812c5.523438 0 10-4.476562 10-10v-49.289062c0-5.523438-4.476562-10-10-10h-97.632812c-5.523438 0-10 4.476562-10 10v49.289062c0 5.523438 4.476562 10 10 10zm10-49.289062h77.632812v29.289062h-77.632812zm0 0"/><path d="m195.5 403.105469h97.632812c5.523438 0 10-4.480469 10-10v-49.292969c0-5.523438-4.476562-10-10-10h-97.632812c-5.523438 0-10 4.476562-10 10v49.292969c0 5.519531 4.476562 10 10 10zm10-49.292969h77.632812v29.292969h-77.632812zm0 0"/></svg>