<svg height="431pt" viewBox="-78 1 431 431.99947" width="431pt" xmlns="http://www.w3.org/2000/svg"><path d="m232.796875 39.066406c-52.371094-52.089844-136.984375-52.089844-189.355469 0l-2.371094 2.371094c-42.238281 41.410156-52.671874 105.457031-25.761718 158.128906 11.910156 23.820313 22.472656 45.550782 26.457031 53.792969.625 1.289063 1.179687 2.613281 1.664063 3.964844l21.222656 59.414062c.773437 2.160157 1.167968 4.4375 1.164062 6.726563v73.941406c.023438 19.09375 15.496094 34.570312 34.59375 34.59375h74.941406c19.097657-.023438 34.574219-15.496094 34.59375-34.59375v-73.941406c0-2.289063.394532-4.566406 1.164063-6.726563l21.082031-59.023437c.554688-1.554688 1.207032-3.078125 1.953125-4.554688l26.808594-53.152344c26.339844-52.902343 15.96875-116.714843-25.769531-158.554687zm-57.445313 372.933594h-74.941406c-8.058594-.007812-14.585937-6.539062-14.59375-14.59375v-59.585938h104.128906v59.585938c-.007812 8.054688-6.535156 14.585938-14.59375 14.59375zm67.699219-220.929688-26.769531 53.085938c-1.117188 2.214844-2.09375 4.5-2.929688 6.835938l-21.078124 59.019531c-.902344 2.53125-1.546876 5.148437-1.925782 7.808593h-42.46875v-151.492187h16.511719c5.523437 0 10-4.476563 10-10s-4.476563-10-10-10h-52.875c-5.523437 0-10 4.476563-10 10s4.476563 10 10 10h16.363281v151.492187h-42.472656c-.375-2.660156-1.019531-5.273437-1.921875-7.804687l-21.222656-59.417969c-.726563-2.027344-1.558594-4.015625-2.5-5.953125-4-8.269531-14.609375-30.09375-26.605469-54.085937-22.96875-44.945313-14.058594-99.597656 21.996094-134.917969l.042968-.042969 2.390626-2.386718c44.558593-44.28125 116.511718-44.28125 161.074218 0l2.386719 2.382812c35.648437 35.757812 44.503906 90.273438 22.003906 135.476562zm0 0"/></svg>