<svg height="470pt" viewBox="-75 0 470 470.135" width="470pt" xmlns="http://www.w3.org/2000/svg"><path d="m279.894531 192.519531h-73.28125v-69.128906c0-5.523437-4.476562-10-10-10h-73.285156c-5.523437 0-10 4.476563-10 10v69.128906h-73.28125c-22.417969 0-39.9804688 20.488281-39.9804688 46.644531v41.601563c-.0117187 11.667969 4.8124998 22.820313 13.3242188 30.804687v148.566407c0 5.519531 4.476563 10 10 10h273.160156c5.523438 0 10-4.480469 10-10v-148.273438c8.601563-8.042969 13.433594-19.320312 13.324219-31.09375v-48.265625c-.023438-22.070312-17.910156-39.957031-39.980469-39.984375zm-146.566406-59.128906h53.285156v59.128906h-53.285156zm-113.257813 105.777344c0-14.941407 8.777344-26.644531 19.980469-26.644531h239.84375c11.03125.011718 19.96875 8.953124 19.980469 19.984374v48.261719c0 11.304688-7.800781 20.484375-18.144531 21.347657-.09375.003906-.183594.015624-.277344.023437-5.398437.671875-10.828125-1.015625-14.890625-4.636719-4.300781-3.957031-6.71875-9.554687-6.648438-15.402344 0-5.519531-4.480468-10-10-10-5.523437 0-10 4.480469-10 10 .050782 7.171876-3.746093 13.824219-9.949218 17.421876-6.203125 3.601562-13.859375 3.601562-20.0625 0-6.203125-3.597657-10-10.25-9.949219-17.421876 0-5.519531-4.480469-10-10-10-5.523437 0-10 4.480469-10 10 0 11.035157-8.945313 19.980469-19.980469 19.980469s-19.980468-8.945312-19.980468-19.980469c0-5.519531-4.476563-10-10-10-5.523438 0-10 4.480469-10 10 .050781 7.171876-3.746094 13.824219-9.949219 17.421876-6.203125 3.601562-13.859375 3.601562-20.0625 0-6.203125-3.597657-10-10.25-9.949219-17.421876 0-5.519531-4.476562-10-10-10s-10 4.480469-10 10c-.023438 5.546876-2.386719 10.828126-6.507812 14.542969-4.113282 3.859375-9.644532 5.84375-15.273438 5.476563-10.023438-.875-18.179688-10.453125-18.179688-21.351563zm13.320313 210.96875v-52h253.160156v52zm253.160156-72h-253.160156v-56.515625c1.0625.1875 2.136719.335937 3.226563.433594 11.214843.808593 22.261718-3.082032 30.5-10.738282.992187-.921875 1.933593-1.886718 2.828124-2.890625 7.566407 8.660157 18.5 13.636719 30 13.65625s22.453126-4.921875 30.046876-13.558593c7.582031 8.621093 18.503906 13.558593 29.980468 13.558593 11.476563 0 22.398438-4.9375 29.980469-13.558593 7.539063 8.574218 18.386719 13.507812 29.804687 13.558593 11.414063.050781 22.304688-4.789062 29.921876-13.292969 1.101562 1.28125 2.285156 2.488282 3.546874 3.617188 7.097657 6.390625 16.320313 9.910156 25.871094 9.871094 1.480469-.003906 2.960938-.082032 4.433594-.242188 1.019531-.089844 2.023438-.226562 3.019531-.390625zm0 0"/><path d="m132.171875 80.84375c7.316406 7.476562 17.335937 11.6875 27.796875 11.6875 10.457031 0 20.476562-4.210938 27.796875-11.6875.054687-.054688.109375-.109375.160156-.167969 14.824219-15.847656 14.824219-40.472656 0-56.324219l-.070312-.074218-20.726563-21.257813c-1.878906-1.929687-4.460937-3.019531-7.160156-3.019531-2.695312 0-5.277344 1.089844-7.160156 3.019531l-20.726563 21.257813-.070312.074218c-14.824219 15.851563-14.824219 40.476563 0 56.328126.054687.054687.105469.109374.160156.164062zm14.269531-42.648438 13.527344-13.871093 13.527344 13.871093c7.363281 8.101563 7.386718 20.464844.046875 28.589844-3.558594 3.679688-8.457031 5.757813-13.574219 5.757813s-10.015625-2.078125-13.570312-5.757813c-7.339844-8.125-7.316407-20.488281.046874-28.589844zm0 0"/></svg>