<svg height="479pt" viewBox="-24 0 479 479.99585" width="479pt" xmlns="http://www.w3.org/2000/svg"><path d="m186.21875 87.878906c16.683594 16.53125 43.570312 16.53125 60.253906 0 .050782-.050781.097656-.101562.148438-.152344 16.417968-17.074218 16.386718-44.074218-.066406-61.113281l-23.054688-23.601562c-1.882812-1.925781-4.460938-3.011719-7.152344-3.011719-2.695312 0-5.273437 1.085938-7.15625 3.011719l-23.121094 23.671875c-16.402343 17.042968-16.402343 44.003906 0 61.046875.050782.046875.101563.097656.148438.148437zm14.226562-47.292968 15.902344-16.277344 15.832032 16.210937c8.9375 9.285157 8.972656 23.964844.074218 33.289063-8.851562 8.625-22.964844 8.625-31.816406 0-8.882812-9.292969-8.878906-23.933594.007812-33.222656zm0 0"/><path d="m382.195312 224.386719h-113.460937v-95.824219c-.015625-11.039062-8.960937-19.984375-20-20h-64.773437c-11.042969.015625-19.988282 8.960938-20 20v95.824219h-113.464844c-27.597656.03125-49.964844 22.398437-50 50v195.0625c0 5.515625 4.46875 9.992187 9.988281 10l411.699219.546875h.015625c5.523437 0 10-4.476563 10-10v-195.609375c-.03125-27.601563-22.402344-49.96875-50.003907-50zm-361.699218 118.488281c15.074218-3.101562 24-12.9375 31.414062-21.125 8.289063-9.152344 14.277344-15.765625 27.203125-15.765625 12.515625 0 18.417969 6.519531 26.585938 15.539063 9.015625 9.953124 20.234375 22.339843 42.03125 22.339843 21.382812 0 32.488281-12.261719 41.410156-22.113281 8.289063-9.152344 14.277344-15.765625 27.199219-15.765625 12.515625 0 18.417968 6.519531 26.585937 15.539063 9.015625 9.953124 20.234375 22.339843 42.03125 22.339843 21.382813 0 32.488281-12.261719 41.410157-22.113281 8.289062-9.152344 14.277343-15.765625 27.203124-15.765625 12.832032 0 18.722657 6.554687 26.871094 15.625 7.425782 8.265625 16.375 18.210937 31.746094 21.289063v59.261718c-6.601562-2.507812-11.191406-7.597656-16.871094-13.921875-8.910156-9.914062-20-22.253906-41.746094-22.253906-21.800781 0-33.011718 12.386719-42.027343 22.339844-8.171875 9.019531-14.074219 15.539062-26.585938 15.539062-12.925781 0-18.917969-6.613281-27.207031-15.765625-8.921875-9.851562-20.027344-22.113281-41.410156-22.113281-21.792969 0-33.015625 12.386719-42.027344 22.339844-8.171875 9.019531-14.074219 15.539062-26.589844 15.539062-12.925781 0-18.914062-6.613281-27.203125-15.765625-8.921875-9.851562-20.027343-22.113281-41.410156-22.113281-21.796875 0-33.015625 12.386719-42.027344 22.339844-5.636719 6.222656-10.191406 11.25-16.585937 13.773437zm163.460937-214.3125h64.773438v95.824219h-64.773438zm-133.460937 115.824219h331.703125c16.558593.019531 29.980469 13.441406 30 30v47.777343c-6.601563-2.511718-11.191407-7.601562-16.871094-13.921874-8.910156-9.917969-20-22.253907-41.746094-22.253907-21.800781 0-33.015625 12.382813-42.027343 22.335938-8.171876 9.023437-14.074219 15.539062-26.585938 15.539062-12.929688 0-18.917969-6.613281-27.207031-15.765625-8.921875-9.851562-20.027344-22.109375-41.410157-22.109375-21.796874 0-33.015624 12.382813-42.027343 22.335938-8.171875 9.019531-14.074219 15.539062-26.589844 15.539062-12.925781 0-18.914063-6.613281-27.199219-15.765625-8.921875-9.851562-20.027344-22.109375-41.410156-22.109375-21.796875 0-33.015625 12.382813-42.027344 22.335938-5.636718 6.222656-10.195312 11.253906-16.589844 13.773437v-47.710937c.019532-16.554688 13.433594-29.976563 29.988282-30zm-30 215.074219v-36.585938c15.074218-3.101562 24-12.9375 31.414062-21.125 8.289063-9.152344 14.277344-15.765625 27.203125-15.765625 12.515625 0 18.417969 6.519531 26.585938 15.539063 9.015625 9.953124 20.234375 22.339843 42.03125 22.339843 21.382812 0 32.488281-12.261719 41.410156-22.113281 8.289063-9.152344 14.277344-15.765625 27.199219-15.765625 12.515625 0 18.417968 6.519531 26.585937 15.539063 9.015625 9.953124 20.234375 22.339843 42.03125 22.339843 21.382813 0 32.488281-12.261719 41.410157-22.113281 8.289062-9.152344 14.277343-15.765625 27.203124-15.765625 12.832032 0 18.722657 6.554687 26.871094 15.625 7.425782 8.265625 16.375 18.210937 31.746094 21.289063v37.085937zm0 0"/></svg>