<svg height="480pt" viewBox="-27 0 480 480" width="480pt" xmlns="http://www.w3.org/2000/svg"><path d="m376 0h-326c-27.601562.03125-49.96875 22.398438-50 50v380c.03125 27.601562 22.398438 49.96875 50 50h326c27.601562-.03125 49.96875-22.398438 50-50v-380c-.03125-27.601562-22.398438-49.96875-50-50zm30 430c-.019531 16.5625-13.4375 29.980469-30 30h-326c-16.5625-.019531-29.980469-13.4375-30-30v-380c.019531-16.5625 13.4375-29.980469 30-30h326c16.5625.019531 29.980469 13.4375 30 30zm0 0"/><path d="m65 145.5h290.5c5.523438 0 10-4.476562 10-10v-66c0-5.523438-4.476562-10-10-10h-290.5c-5.523438 0-10 4.476562-10 10v66c0 5.523438 4.476562 10 10 10zm10-66h270.5v46h-270.5zm0 0"/><path d="m129 175h-64c-5.523438 0-10 4.476562-10 10v49.5c0 5.523438 4.476562 10 10 10h64c5.523438 0 10-4.476562 10-10v-49.5c0-5.523438-4.476562-10-10-10zm-10 49.5h-44v-29.5h44zm0 0"/><path d="m129 263h-64c-5.523438 0-10 4.476562-10 10v49.5c0 5.523438 4.476562 10 10 10h64c5.523438 0 10-4.476562 10-10v-49.5c0-5.523438-4.476562-10-10-10zm-10 49.5h-44v-29.5h44zm0 0"/><path d="m129 351h-64c-5.523438 0-10 4.476562-10 10v49.5c0 5.523438 4.476562 10 10 10h64c5.523438 0 10-4.476562 10-10v-49.5c0-5.523438-4.476562-10-10-10zm-10 49.5h-44v-29.5h44zm0 0"/><path d="m246 175h-66c-5.523438 0-10 4.476562-10 10v49.5c0 5.523438 4.476562 10 10 10h66c5.523438 0 10-4.476562 10-10v-49.5c0-5.523438-4.476562-10-10-10zm-10 49.5h-46v-29.5h46zm0 0"/><path d="m246 263h-66c-5.523438 0-10 4.476562-10 10v49.5c0 5.523438 4.476562 10 10 10h66c5.523438 0 10-4.476562 10-10v-49.5c0-5.523438-4.476562-10-10-10zm-10 49.5h-46v-29.5h46zm0 0"/><path d="m246 351h-66c-5.523438 0-10 4.476562-10 10v49.5c0 5.523438 4.476562 10 10 10h66c5.523438 0 10-4.476562 10-10v-49.5c0-5.523438-4.476562-10-10-10zm-10 49.5h-46v-29.5h46zm0 0"/><path d="m361 175h-64c-5.523438 0-10 4.476562-10 10v49.5c0 5.523438 4.476562 10 10 10h64c5.523438 0 10-4.476562 10-10v-49.5c0-5.523438-4.476562-10-10-10zm-10 49.5h-44v-29.5h44zm0 0"/><path d="m361 263h-64c-5.523438 0-10 4.476562-10 10v137.5c0 5.523438 4.476562 10 10 10h64c5.523438 0 10-4.476562 10-10v-137.5c0-5.523438-4.476562-10-10-10zm-10 137.5h-44v-117.5h44zm0 0"/></svg>