<svg height="438pt" viewBox="-8 0 438 438.877" width="438pt" xmlns="http://www.w3.org/2000/svg"><path d="m373.359375 30.875h-32.902344v-20.875c0-5.523438-4.476562-10-10-10-5.519531 0-10 4.476562-10 10v20.878906h-217.117187v-20.878906c0-5.523438-4.476563-10-10-10-5.523438 0-10 4.476562-10 10v20.878906h-32.902344c-27.601562.03125-49.96875 22.398438-50 50v308c.03125 27.597656 22.398438 49.964844 50 50h245.445312c2.539063 0 4.976563-.964844 6.832032-2.695312l117.472656-109.804688c2.023438-1.894531 3.171875-4.539062 3.171875-7.308594v-238.195312c-.03125-27.601562-22.398437-49.96875-50-50zm-322.917969 20h32.898438v29.929688c0 5.523437 4.476562 10 10 10 5.523437 0 10-4.476563 10-10v-29.929688h217.121094v29.929688c0 5.523437 4.476562 10 10 10 5.523437 0 10-4.476563 10-10v-29.929688h32.902343c16.558594.019531 29.980469 13.441406 30 30v59.40625h-382.921875v-59.40625c.015625-16.558594 13.4375-29.980469 30-30zm-30 338v-228.59375h382.917969v149.191406h-79.351563c-22.082031.023438-39.972656 17.917969-40 40v69.398438h-233.566406c-16.558594-.019532-29.980468-13.4375-30-29.996094zm367.144532-59.398438-83.578126 78.121094v-58.125c.011719-11.042968 8.960938-19.988281 20-20zm0 0"/></svg>