<svg height="442pt" viewBox="0 -5 442 442" width="442pt" xmlns="http://www.w3.org/2000/svg"><path d="m153.0625 200.328125h-60.457031c-5.519531 0-10 4.476563-10 10v55.417969c0 5.523437 4.480469 10 10 10h60.457031c5.523438 0 10-4.476563 10-10v-55.417969c0-5.523437-4.476562-10-10-10zm-10 55.417969h-40.457031v-35.417969h40.457031zm0 0"/><path d="m349.390625 225.519531h-130.832031c-5.523438 0-10 4.476563-10 10 0 5.523438 4.476562 10 10 10h130.832031c5.523437 0 10-4.476562 10-10 0-5.523437-4.476563-10-10-10zm0 0"/><path d="m153.0625 311.164062h-60.457031c-5.519531 0-10 4.476563-10 10v55.417969c0 5.523438 4.480469 10 10 10h60.457031c5.523438 0 10-4.476562 10-10v-55.417969c0-5.523437-4.476562-10-10-10zm-10 55.417969h-40.457031v-35.417969h40.457031zm0 0"/><path d="m349.390625 336.355469h-130.832031c-5.523438 0-10 4.476562-10 10 0 5.519531 4.476562 10 10 10h130.832031c5.523437 0 10-4.480469 10-10 0-5.523438-4.476563-10-10-10zm0 0"/><path d="m392 56.410156h-11.050781v-8.921875c0-26.226562-21.261719-47.488281-47.488281-47.488281-26.226563 0-47.484376 21.261719-47.484376 47.488281v8.921875h-129.949218v-8.921875c-.121094-26.144531-21.347656-47.269531-47.488282-47.269531-26.140624 0-47.367187 21.125-47.488281 47.269531v8.921875h-11.050781c-27.601562.03125-49.96875 22.398438-50 50v275.589844c.03125 27.601562 22.398438 49.96875 50 50h342c27.601562-.03125 49.96875-22.398438 50-50v-275.589844c-.03125-27.601562-22.398438-49.96875-50-50zm-86.027344-8.921875c.019532-15.175781 12.316406-27.472656 27.488282-27.488281 15.171874.019531 27.46875 12.3125 27.488281 27.488281v37.484375h-54.976563zm-224.921875 0c0-15.183593 12.304688-27.488281 27.488281-27.488281 15.179688 0 27.484376 12.304688 27.484376 27.488281v37.484375h-54.972657zm-31.050781 28.921875h11.050781v18.5625c0 5.523438 4.476563 10 10 10h74.972657c5.523437 0 10-4.476562 10-10v-18.5625h129.949218v18.5625c0 5.523438 4.476563 10 10 10h74.976563c5.523437 0 10-4.476562 10-10v-18.5625h11.050781c16.5625.019532 29.980469 13.4375 30 30v49.617188h-402v-49.617188c.019531-16.5625 13.4375-29.980468 30-30zm342 335.589844h-342c-16.5625-.019531-29.980469-13.4375-30-30v-205.972656h402v205.972656c-.019531 16.5625-13.4375 29.980469-30 30zm0 0"/></svg>