<svg height="437pt" viewBox="0 -19 437.151 437" width="437pt" xmlns="http://www.w3.org/2000/svg"><path d="m387.152344 32.621094h-26.789063v-22.546875c0-5.523438-4.476562-10.0000002-10-10.0000002-5.523437 0-10 4.4765622-10 10.0000002v22.546875h-238.152343v-22.546875c0-5.523438-4.476563-10.0000002-10-10.0000002-5.523438 0-10 4.4765622-10 10.0000002v22.546875h-32.210938c-27.601562.03125-49.96875 22.398437-50 50v265.453125c.03125 27.601562 22.398438 49.96875 50 50h337.152344c27.601562-.03125 49.96875-22.398438 50-50v-265.453125c-.03125-27.601563-22.398438-49.96875-50-50zm30 315.453125c-.019532 16.5625-13.441406 29.984375-30 30h-337.152344c-16.5625-.015625-29.980469-13.4375-30-30v-265.453125c.019531-16.5625 13.4375-29.980469 30-30h32.210938v17.121094c0 5.523437 4.476562 10 10 10 5.523437 0 10-4.476563 10-10v-17.121094h238.152343v17.121094c0 5.523437 4.476563 10 10 10 5.523438 0 10-4.476563 10-10v-17.121094h26.789063c16.558594.019531 29.980468 13.4375 30 30zm0 0"/><path d="m95.941406 172.800781h163.90625c5.523438 0 10-4.476562 10-10 0-5.519531-4.476562-10-10-10h-163.90625c-5.523437 0-10 4.480469-10 10 0 5.523438 4.476563 10 10 10zm0 0"/><path d="m341.210938 259.589844h-245.269532c-5.523437 0-10 4.476562-10 10 0 5.523437 4.476563 10 10 10h245.273438c5.519531 0 10-4.476563 10-10 0-5.523438-4.480469-10-10-10zm0 0"/></svg>