<svg height="417pt" viewBox="0 -4 417.0607 417" width="417pt" xmlns="http://www.w3.org/2000/svg"><path d="m407.058594 100.042969h-320.453125l-9.339844-54.347657c-3.59375-20.527343-19.488281-36.699218-39.949219-40.652343l-25.378906-4.824219c-3.523438-.695312-7.144531.550781-9.496094 3.265625-2.3515622 2.710937-3.066406 6.476563-1.875 9.863281 1.191406 3.386719 4.105469 5.875 7.636719 6.519532l25.382813 4.824218c12.273437 2.371094 21.8125 12.074219 23.964843 24.390625l45.847657 266.789063c-19.613282 7.355468-32.320313 26.441406-31.542969 47.375.777343 20.9375 14.863281 39.027344 34.972656 44.90625 20.109375 5.882812 41.722656-1.765625 53.65625-18.984375 11.9375-17.21875 11.515625-40.140625-1.046875-56.90625h125.589844c-13.460938 17.980469-12.855469 42.84375 1.464844 60.152343 14.324218 17.304688 38.632812 22.550782 58.816406 12.691407 20.1875-9.859375 30.992187-32.261719 26.144531-54.195313s-24.089844-37.695312-46.546875-38.128906c-1.023438-.34375-2.089844-.519531-3.167969-.519531h-198.664062l-9.351563-54.410157h214.789063c20.949219-.050781 39.660156-13.109374 46.933593-32.757812l41-111.597656c1.128907-3.070313.6875-6.496094-1.183593-9.175782-1.871094-2.679687-4.933594-4.277343-8.203125-4.277343zm-286.546875 290c-15.816407 0-28.640625-12.824219-28.640625-28.644531 0-15.816407 12.824218-28.644532 28.640625-28.644532 15.820312 0 28.644531 12.828125 28.644531 28.644532-.015625 15.8125-12.832031 28.628906-28.644531 28.644531zm232.085937-28.644531c0 15.820312-12.824218 28.644531-28.640625 28.644531-15.820312 0-28.644531-12.824219-28.644531-28.644531 0-15.816407 12.824219-28.644532 28.644531-28.644532 15.808594.019532 28.625 12.832032 28.640625 28.644532zm4.074219-143.199219c-4.363281 11.789062-15.589844 19.625-28.160156 19.65625h-218.222657l-20.246093-117.8125h302.6875zm0 0"/></svg>