<svg height="487pt" viewBox="0 -95 487.51 487" width="487pt" xmlns="http://www.w3.org/2000/svg"><path d="m446.34375.253906h-405.175781c-22.726563.027344-41.1406252 18.441406-41.167969 41.167969v213.664063c.0234375 22.726562 18.441406 41.144531 41.167969 41.167968h405.175781c22.722656-.023437 41.140625-18.441406 41.167969-41.164062v-213.667969c-.027344-22.726563-18.445313-41.140625-41.167969-41.167969zm21.167969 254.835938c-.015625 11.683594-9.484375 21.152344-21.167969 21.164062h-405.175781c-11.6875-.011718-21.15625-9.480468-21.167969-21.164062v-213.667969c.011719-11.683594 9.480469-21.152344 21.167969-21.167969h405.175781c11.683594.015625 21.152344 9.484375 21.167969 21.167969zm0 0"/><path d="m426.589844 95.449219c-27.019532-.4375-45.105469-14.164063-46.082032-34.96875-.25-5.335938-4.648437-9.53125-9.988281-9.53125h-252.964843c-5.339844 0-9.738282 4.195312-9.988282 9.53125-.972656 20.800781-19.285156 34.527343-46.644531 34.964843-5.460937.089844-9.839844 4.542969-9.839844 10v85.617188c0 5.460938 4.378907 9.914062 9.839844 10 27.804687.449219 45.675781 13.84375 46.644531 34.957031.242188 5.339844 4.644532 9.542969 9.988282 9.542969h252.398437c5.34375 0 9.742187-4.195312 9.992187-9.53125.972657-20.800781 19.28125-34.527344 46.644532-34.96875 5.460937-.085938 9.839844-4.539062 9.839844-10v-85.617188c0-5.460937-4.382813-9.910156-9.839844-9.996093zm-10.164063 86.261719c-14.746093 1.734374-27.511719 6.859374-37.324219 15.054687-8.945312 7.378906-15.214843 17.5-17.832031 28.796875h-234.972656c-5.285156-23.84375-26.082031-40.414062-55.214844-43.847656v-66.914063c14.746094-1.734375 27.515625-6.863281 37.324219-15.058593 8.949219-7.378907 15.214844-17.496094 17.835938-28.792969h235.601562c4.8125 20.929687 22.4375 40.140625 54.585938 43.859375v66.902344zm0 0"/><path d="m243.753906 88.113281c-33.214844 0-60.140625 26.925781-60.140625 60.140625s26.925781 60.140625 60.140625 60.140625 60.140625-26.925781 60.140625-60.140625c-.035156-33.199218-26.941406-60.101562-60.140625-60.140625zm0 100.28125c-22.167968 0-40.140625-17.96875-40.140625-40.140625 0-22.167968 17.972657-40.140625 40.140625-40.140625 22.171875 0 40.140625 17.972657 40.140625 40.140625-.023437 22.160156-17.980469 40.117188-40.140625 40.140625zm0 0"/></svg>