<svg height="466pt" viewBox="0 -81 466.754 466" width="466pt" xmlns="http://www.w3.org/2000/svg"><path d="m363.5625 81.164062c-22.066406-.355468-36.832031-11.4375-37.617188-28.234374-.25-5.335938-4.648437-9.53125-9.988281-9.53125h-214.679687c-5.339844 0-9.738282 4.195312-9.988282 9.53125-.785156 16.792968-15.742187 27.871093-38.101562 28.234374-5.460938.085938-9.839844 4.539063-9.839844 10v72.65625c0 5.460938 4.378906 9.914063 9.839844 10 22.722656.367188 37.320312 11.179688 38.101562 28.222657.242188 5.339843 4.644532 9.542969 9.988282 9.542969h214.199218c5.339844 0 9.738282-4.199219 9.988282-9.53125.789062-16.792969 15.742187-27.871094 38.101562-28.234376 5.460938-.085937 9.839844-4.539062 9.839844-10v-72.660156c0-5.460937-4.382812-9.910156-9.84375-9.996094zm-10.160156 73.386719c-12.246094 1.652344-22.875 6.054688-31.132813 12.945313-7.523437 6.214844-12.898437 14.640625-15.355469 24.085937h-197.015624c-4.933594-19.886719-22.320313-33.761719-46.546876-37.03125v-54.117187c12.246094-1.65625 22.875-6.054688 31.132813-12.949219 7.523437-6.210937 12.898437-14.640625 15.355469-24.085937h197.558594c4.507812 17.578124 19.398437 33.515624 46.003906 37.046874zm0 0"/><path d="m208.378906 74.9375c-29.027344 0-52.554687 23.53125-52.554687 52.554688 0 29.023437 23.527343 52.550781 52.554687 52.550781 29.023438 0 52.550782-23.527344 52.550782-52.550781-.03125-29.011719-23.542969-52.519532-52.550782-52.554688zm0 85.101562c-17.980468 0-32.554687-14.574218-32.554687-32.554687 0-17.976563 14.578125-32.550781 32.554687-32.550781 17.980469.003906 32.550782 14.578125 32.550782 32.558594-.019532 17.96875-14.582032 32.53125-32.550782 32.550781zm0 0"/><path d="m430.304688 50.378906h-13.550782v-13.550781c-.023437-20.121094-16.328125-36.429687-36.449218-36.449219h-343.855469c-20.121094.019532-36.4257815 16.328125-36.449219 36.449219v181.328125c.0234375 20.121094 16.328125 36.425781 36.449219 36.449219h13.550781v13.550781c.023438 20.121094 16.328125 36.425781 36.449219 36.449219h343.855469c20.121093-.023438 36.425781-16.328125 36.449218-36.449219v-181.328125c-.023437-20.121094-16.328125-36.429687-36.449218-36.449219zm-410.304688 167.777344v-181.328125c.011719-9.082031 7.367188-16.441406 16.449219-16.449219h343.855469c9.082031.007813 16.4375 7.367188 16.449218 16.449219v181.328125c-.011718 9.078125-7.367187 16.4375-16.449218 16.449219h-343.855469c-9.082031-.011719-16.4375-7.371094-16.449219-16.449219zm426.753906 50c-.011718 9.078125-7.367187 16.4375-16.449218 16.449219h-343.855469c-9.082031-.011719-16.4375-7.371094-16.449219-16.449219v-13.550781h310.304688c20.121093-.023438 36.425781-16.328125 36.449218-36.449219v-147.777344h13.550782c9.082031.007813 16.441406 7.367188 16.449218 16.449219zm0 0"/></svg>