<svg height="434pt" viewBox="0 -24 434.01401 434" width="434pt" xmlns="http://www.w3.org/2000/svg"><path d="m395.199219 80.960938c2.082031-12.410157-5.988281-24.25-18.300781-26.851563l-254.949219-53.886719c-5.402344-1.140625-10.707031 2.3125-11.847657 7.714844l-26.5625 125.65625c-1.140624 5.40625 2.3125 10.710938 7.71875 11.851562l123.039063 26.007813v76.183594c-.011719 9.371093-7.605469 16.964843-16.976563 16.972656h-88.707031v-26.125c-.011719-12.222656-9.917969-22.125-22.136719-22.136719h-76.476562c-5.523438 0-10 4.476563-10 10v150.460938c0 5.523437 4.476562 10 10 10h76.476562c12.222657-.015625 22.125-9.917969 22.136719-22.136719v-26.125h88.710938c50.183593-.054687 90.855469-40.726563 90.910156-90.910156v-60.554688l57.964844 12.25c12.347656 2.617188 24.554687-5.007812 27.613281-17.253906 2.800781.472656 5.640625.714844 8.484375.71875 24.414063-.097656 45.457031-17.195313 50.550781-41.070313 2.917969-13.425781.304688-27.460937-7.25-38.9375-7.050781-10.820312-17.894531-18.605468-30.398437-21.828124zm-267.597657-59.101563 64 13.527344-22.421874 106.089843-64-13.527343zm-38.988281 342.8125c0 1.179687-.957031 2.136719-2.136719 2.140625h-66.476562v-130.464844h66.476562c1.179688 0 2.136719.957032 2.136719 2.136719zm179.621094-117.035156c-.042969 39.148437-31.765625 70.871093-70.914063 70.914062h-88.707031v-33.941406h88.707031c20.410157-.023437 36.949219-16.5625 36.972657-36.972656v-71.957031l33.941406 7.175781zm82.101563-67.871094-161.589844-34.15625 22.421875-106.089844 161.589843 34.152344c1.882813.398437 3.085938 2.25 2.6875 4.132813l-20.980468 99.269531c-.402344 1.882812-2.246094 3.085937-4.128906 2.691406zm62.957031-42.226563c-3.101563 14.652344-15.992188 25.171876-30.972657 25.269532-1.449218-.003906-2.894531-.109375-4.332031-.3125l13.089844-61.917969c7.308594 2.117187 13.621094 6.789063 17.78125 13.164063 4.617187 7.011718 6.214844 15.589843 4.433594 23.796874zm0 0"/></svg>