<svg height="494pt" viewBox="-68 0 494 494.89966" width="494pt" xmlns="http://www.w3.org/2000/svg"><path d="m246.738281 2.585938c-1.839843-1.664063-4.230469-2.585938-6.710937-2.585938h-199.578125c-22.082031.0234375-39.972657 17.917969-40 40v344.273438c.027343 22.078124 17.917969 39.972656 40 40h70.527343v60.625c0 3.902343 2.269532 7.449218 5.816407 9.085937 3.542969 1.632813 7.714843 1.050781 10.683593-1.484375l51.8125-44.335938 51.808594 44.332032c2.96875 2.539062 7.140625 3.117187 10.683594 1.484375 3.546875-1.632813 5.816406-5.179688 5.816406-9.082031v-60.625h70.527344c22.082031-.027344 39.976562-17.921876 40-40v-276.492188c0-2.824219-1.195312-5.519531-3.292969-7.414062zm3.140625 29.8125 71.886719 65.023437h-61.886719c-5.519531-.007813-9.992187-4.480469-10-10zm-70.589844 315.582031c-32.695312 0-59.203124-26.503907-59.203124-59.199219s26.507812-59.199219 59.203124-59.199219c32.695313 0 59.199219 26.503907 59.199219 59.199219-.035156 32.679688-26.519531 59.164062-59.199219 59.199219zm6.5 79.421875c-3.742187-3.199219-9.257812-3.199219-13 0l-41.8125 35.78125v-111.707032c28.449219 22.007813 68.175782 22.007813 96.625 0v111.703126zm132.335938-23.128906h-70.523438v-75.492188c19.515626-33.269531 12.226563-75.761719-17.265624-100.628906-29.492188-24.863282-72.605469-24.863282-102.097657 0-29.492187 24.867187-36.78125 67.359375-17.261719 100.628906v75.492188h-70.527343c-11.039063-.011719-19.988281-8.960938-20-20v-344.273438c.011719-11.039062 8.960937-19.988281 20-20h189.429687v67.421875c.019532 16.558594 13.441406 29.980469 30 30h78.246094v266.851563c-.011719 11.039062-8.957031 19.988281-20 20zm0 0"/></svg>