<svg height="435pt" viewBox="-9 0 435 435.86415" width="435pt" xmlns="http://www.w3.org/2000/svg"><path d="m362.953125 0c-2.277344.00390625-4.554687.15625-6.8125.449219h-293.066406c-34.582031.039062-62.601563 28.0625-62.640625 62.640625v287.234375c0 5.523437 4.476562 10 10 10h87.886718l-1.875 65.253906c-.109374 3.703125 1.84375 7.164063 5.074219 8.992187 3.226563 1.824219 7.199219 1.714844 10.320313-.289062l44.597656-28.597656 44.601562 28.597656c3.113282 2 7.078126 2.113281 10.304688.296875 3.222656-1.816406 5.179688-5.265625 5.089844-8.964844l-1.644532-65.292969h104.6875c5.523438 0 10-4.476562 10-10v-170.429687h76.957032c5.519531 0 10-4.476563 10-10v-117.074219c-.046875-13.976562-5.703125-27.347656-15.703125-37.117187-10-10.050781-23.597657-15.699219-37.777344-15.699219zm-206.515625 281.40625c-35.898438 0-65-29.101562-65-65s29.101562-65 65-65 65 29.101562 65 65c-.039062 35.882812-29.117188 64.960938-65 65zm5.402344 103.976562c-3.292969-2.113281-7.511719-2.113281-10.800782 0l-34.0625 21.84375 3.273438-113.929687c23.078125 10.886719 49.832031 10.808594 72.84375-.214844l2.871094 114.1875zm147.636718-332.566406v287.507813h-95.1875l-1.515624-60.34375c26.5-23.449219 35.695312-60.867188 23.09375-93.929688-12.605469-33.066406-44.375-54.863281-79.761719-54.722656-35.382813.136719-66.980469 22.183594-79.324219 55.347656-12.34375 33.164063-2.851562 70.503907 23.832031 93.746094l-1.722656 59.898437h-78.457031v-277.230468c.027344-23.539063 19.101562-42.613282 42.640625-42.640625h257.863281c-7.394531 9.167969-11.4375 20.589843-11.460938 32.367187zm86.957032 107.074219h-66.957032v-107.074219c0-16.035156 12.460938-29.820312 28.203126-32.386718.664062-.019532 1.328124-.109376 1.972656-.261719 1.097656-.113281 2.199218-.167969 3.300781-.167969 18.148437 0 33.480469 15.03125 33.480469 32.816406zm0 0"/></svg>