<svg height="453pt" viewBox="-43 0 453 453.525" width="453pt" xmlns="http://www.w3.org/2000/svg"><path d="m336.28125 185.804688v-145.804688c-.027344-22.082031-17.917969-39.9765625-40-40h-225.21875c-22.082031.0234375-39.976562 17.917969-40 40v145.804688l-30.15625 79.898437c-.425781 1.128906-.644531 2.324219-.644531 3.53125v174.289063c0 5.523437 4.476562 10 10 10 5.523437 0 10-4.476563 10-10v-91.878907h326.820312v91.878907c0 5.523437 4.476563 10 10 10 5.523438 0 10-4.476563 10-10v-174.289063c0-1.207031-.21875-2.402344-.644531-3.53125zm-265.21875-165.804688h225.21875c11.039062.011719 19.988281 8.960938 20 20v139.992188h-265.21875v-139.992188c.011719-11.039062 8.960938-19.988281 20-20zm-23.976562 179.992188h273.175781l23.253906 61.601562h-319.683594zm-26.824219 131.652343v-50.046875h326.820312v50.046875zm0 0"/></svg>