<svg height="420pt" viewBox="-39 0 420 420" width="420pt" xmlns="http://www.w3.org/2000/svg"><path d="m222.722656 2.738281c-1.859375-1.757812-4.320312-2.738281-6.878906-2.738281h-165.84375c-27.601562.03125-49.96875 22.398438-50 50v320c.03125 27.601562 22.398438 49.96875 50 50h242.078125c27.601563-.03125 49.96875-22.398438 50-50v-249.898438c0-2.746093-1.128906-5.371093-3.125-7.261718zm4.679688 31.984375 78.917968 74.757813h-68.917968c-5.519532-.007813-9.996094-4.480469-10-10zm64.675781 365.277344h-242.078125c-16.5625-.019531-29.980469-13.4375-30-30v-320c.019531-16.5625 13.4375-29.980469 30-30h157.398438v79.480469c.019531 16.558593 13.441406 29.980469 30 30h84.675781v240.519531c-.015625 16.558594-13.4375 29.980469-29.996094 30zm0 0"/><path d="m228.714844 224.355469c-2.285156-2.78125-5.886719-4.121094-9.433594-3.507813-3.542969.613282-6.488281 3.082032-7.707031 6.46875-1.21875 3.386719-.523438 7.164063 1.820312 9.894532l25.796875 30.75-25.796875 30.75c-2.34375 2.730468-3.039062 6.511718-1.820312 9.898437 1.21875 3.382813 4.164062 5.855469 7.707031 6.464844 3.546875.613281 7.148438-.726563 9.433594-3.507813l31.199218-37.175781c3.117188-3.71875 3.117188-9.140625 0-12.855469zm0 0"/><path d="m102.882812 267.960938 25.800782-30.75c2.34375-2.730469 3.039062-6.507813 1.820312-9.894532-1.21875-3.386718-4.164062-5.855468-7.710937-6.46875-3.542969-.613281-7.144531.726563-9.429688 3.507813l-31.195312 37.179687c-3.117188 3.714844-3.117188 9.136719 0 12.855469l31.195312 37.175781c2.285157 2.78125 5.886719 4.121094 9.429688 3.507813 3.546875-.609375 6.492187-3.082031 7.710937-6.464844 1.21875-3.386719.523438-7.167969-1.820312-9.898437zm0 0"/><path d="m181.9375 196.113281c-5.457031-.828125-10.558594 2.925781-11.386719 8.386719l-18.796875 123.921875c-.832031 5.460937 2.925782 10.558594 8.386719 11.386719.5.078125 1.003906.117187 1.511719.117187 4.9375-.007812 9.132812-3.617187 9.875-8.5l18.796875-123.925781c.832031-5.460938-2.925781-10.558594-8.386719-11.386719zm0 0"/></svg>