<svg height="476pt" viewBox="-90 0 476 476.00917" width="476pt" xmlns="http://www.w3.org/2000/svg"><path d="m264.507812 190.058594c-2.152343-35.066406-19.890624-67.332032-48.347656-87.9375-28.457031-20.605469-64.644531-27.390625-98.632812-18.492188l-12.609375-58.5c-3.558594-16.773437-19.808594-27.679687-36.679688-24.621094l-34.210937 6.082032c-5.441406.964844-9.0625 6.15625-8.097656 11.59375.964843 5.4375 6.15625 9.0625 11.597656 8.097656l34.210937-6.085938c6.269531-1.132812 12.304688 2.917969 13.628907 9.152344l13.164062 61.074219c-39.472656 18.074219-65.78125 56.425781-68.4375 99.761719-17.597656 4.085937-30.0625 19.753906-30.08984375 37.820312 0 19.957032 14.14453175 35.9375 33.04296875 38.460938l7.917969 158.636718c1.445312 28.53125 25.007812 50.921876 53.578125 50.90625h105.523437c28.574219.015626 52.136719-22.378906 53.578125-50.917968l7.964844-158.636719c18.65625-2.570313 32.78125-18.160156 33.496094-36.980469.714843-18.820312-12.1875-35.4375-30.597657-39.414062zm-152.5-83.636719c.066407-.015625.128907-.019531.199219-.035156 1.007813-.214844 1.972657-.585938 2.867188-1.097657 28.464843-9.980468 59.945312-6.210937 85.25 10.207032 25.304687 16.414062 41.582031 43.625 44.074219 73.683594h-194.1875c3.132812-37.113282 27.101562-69.214844 61.796874-82.757813zm-58.917968 160.398437h188.476562l-3.472656 69.152344h-181.550781zm146.976562 189.1875h-105.523437c-17.914063.007813-32.6875-14.027343-33.597657-31.917968l-3.402343-68.113282h179.546875l-3.421875 68.101563c-.902344 17.894531-15.683594 31.941406-33.601563 31.929687zm56.238282-209.183593h-218c-10.261719 0-18.300782-8.269531-18.300782-18.820313.136719-10.339844 8.484375-18.6875 18.824219-18.824218h217.476563c10.394531 0 18.820312 8.425781 18.820312 18.824218 0 10.394532-8.425781 18.820313-18.820312 18.820313zm0 0"/></svg>