<svg height="465pt" viewBox="-64 0 465 465.00039" width="465pt" xmlns="http://www.w3.org/2000/svg"><path d="m167.558594 223.339844c-34.207032.003906-61.933594 27.734375-61.933594 61.9375 0 34.207031 27.730469 61.9375 61.9375 61.9375s61.9375-27.730469 61.9375-61.9375c-.039062-34.191406-27.75-61.898438-61.941406-61.9375zm0 103.875c-23.160156 0-41.933594-18.777344-41.933594-41.9375s18.777344-41.9375 41.9375-41.9375 41.9375 18.777344 41.9375 41.9375c-.027344 23.152344-18.789062 41.910156-41.941406 41.9375zm0 0"/><path d="m292.636719 50.835938-.238281-5.046876c-.007813-.152343-.019532-.304687-.03125-.457031-2.3125-25.742187-23.9375-45.433593-49.78125-45.332031h-150.050782c-25.84375-.101562-47.46875 19.589844-49.78125 45.332031-.015625.152344-.023437.304688-.03125.457031l-.246094 5.171876c-24.410156 3.75-42.445312 24.734374-42.476562 49.433593v29.394531c0 5.519532 4.476562 10 10 10h15.78125l14.054688 277.738282c1.332031 26.605468 23.296874 47.488281 49.9375 47.472656h155.570312c26.640625.015625 48.609375-20.867188 49.9375-47.472656l14.054688-277.742188h16.753906c5.519531 0 10-4.476562 10-10v-29.390625c-.035156-25.070312-18.605469-46.246093-43.453125-49.558593zm-200.101563-30.835938h150.050782c15.421874-.058594 28.355468 11.632812 29.847656 26.984375l.160156 3.410156h-210.070312l.164062-3.410156c1.492188-15.351563 14.425781-27.042969 29.847656-26.984375zm-43.289062 187.742188h236.628906l-7.828125 154.742187h-220.96875zm196.097656 237.257812h-155.570312c-15.984376.007812-29.164063-12.519531-29.964844-28.484375l-1.71875-34.03125h218.941406l-1.722656 34.03125c-.796875 15.964844-13.980469 28.496094-29.964844 28.484375zm41.542969-257.257812h-238.652344l-2.425781-47.953126h243.5zm29.203125-67.953126h-296.089844v-19.394531c.019531-16.5625 13.4375-29.980469 30-30h236.089844c16.5625.019531 29.980468 13.4375 30 30zm0 0"/></svg>