<svg height="471pt" viewBox="0 0 471 471.22264" width="471pt" xmlns="http://www.w3.org/2000/svg"><path d="m235.679688 0c-95.28125 0-181.175782 57.394531-217.636719 145.421875-36.460938 88.023437-16.308594 189.34375 51.0625 256.71875 91.980469 92.074219 241.203125 92.113281 333.230469.085937 92.03125-92.027343 91.992187-241.25-.085938-333.230468-44.082031-44.320313-104.0625-69.164063-166.570312-68.996094zm152.425781 388c-37.894531 38.105469-88.738281 60.558594-142.425781 62.902344v-36.160156c0-5.519532-4.480469-10-10-10-5.523438 0-10 4.480468-10 10v36.160156c-111.195313-5.164063-200.171876-94.140625-205.335938-205.335938h36.160156c5.523438 0 10-4.476562 10-10 0-5.519531-4.476562-10-10-10h-36.160156c5.164062-111.191406 94.140625-200.171875 205.335938-205.332031v36.15625c0 5.523437 4.476562 10 10 10 5.519531 0 10-4.476563 10-10v-36.15625c111.191406 5.160156 200.171874 94.140625 205.332031 205.332031h-36.160157c-5.519531 0-10 4.480469-10 10 0 5.523438 4.480469 10 10 10h36.160157c-2.339844 53.691406-24.796875 104.535156-62.90625 142.429688zm0 0"/><path d="m332.839844 125.054688-136.984375 66.023437c-2.039063.980469-3.683594 2.625-4.667969 4.664063l-66.023438 136.988281c-1.84375 3.832031-1.066406 8.410156 1.9375 11.414062 3.007813 3.007813 7.585938 3.785157 11.414063 1.9375l136.988281-66.023437c2.039063-.980469 3.683594-2.628906 4.667969-4.667969l66.019531-136.988281c1.847656-3.828125 1.070313-8.40625-1.9375-11.414063-3.003906-3.003906-7.582031-3.78125-11.414062-1.933593zm-129.753906 92.0625 51.042968 51.042968-98.527344 47.484375zm65.183593 36.902343-51.039062-51.039062 98.523437-47.488281zm0 0"/></svg>