<svg height="485pt" viewBox="0 -30 485.452 485" width="485pt" xmlns="http://www.w3.org/2000/svg"><path d="m296.492188 141.507812v-20.125c0-30.964843-25.011719-56.15625-55.757813-56.15625s-55.757813 25.191407-55.757813 56.15625v21.890626c-9.789062 5.207031-15.90625 15.390624-15.917968 26.476562v59.476562c.019531 16.558594 13.441406 29.980469 30 30h87.332031c16.558594-.019531 29.980469-13.441406 30-30v-59.476562c-.015625-12.667969-7.976563-23.964844-19.898437-28.242188zm-55.757813-56.28125c19.851563.132813 35.847656 16.308594 35.757813 36.15625v18.367188h-71.515626v-18.367188c-.085937-19.847656 15.910157-36.023437 35.757813-36.15625zm55.65625 144c-.007813 5.519532-4.480469 9.992188-10 10h-87.332031c-5.519532-.007812-9.992188-4.480468-10-10v-59.476562c.007812-5.519531 4.480468-9.992188 10-10h87.332031c5.519531.007812 9.992187 4.480469 10 10zm0 0"/><path d="m445.449219.226562h-405.449219c-22.082031.023438-39.9765625 17.917969-40 40v251.824219c.0234375 22.082031 17.917969 39.976563 40 40h109.851562l-23.488281 72.175781h-28.042969c-5.523437 0-10 4.476563-10 10 0 5.523438 4.476563 10 10 10h282.664063c5.523437 0 10-4.476562 10-10 0-5.523437-4.476563-10-10-10h-28.042969l-23.488281-72.175781h116c22.078125-.023437 39.972656-17.917969 40-40v-251.824219c-.023437-22.082031-17.921875-39.976562-40.003906-40zm-113.539063 404h-184.515625l23.492188-72.175781h137.539062zm133.539063-112.175781c-.011719 11.042969-8.957031 19.988281-20 20h-405.449219c-11.039062-.011719-19.988281-8.957031-20-20v-251.824219c.011719-11.039062 8.960938-19.988281 20-20h405.449219c11.039062.011719 19.988281 8.960938 20 20zm0 0"/></svg>