<svg height="458pt" viewBox="0 -11 458 458" width="458pt" xmlns="http://www.w3.org/2000/svg"><path d="m408 0h-358c-27.601562.03125-49.96875 22.398438-50 50v228.222656c.03125 27.601563 22.398438 49.96875 50 50h96v37.332032h-54.890625c-5.519531 0-10 4.476562-10 10v50c0 5.523437 4.480469 10 10 10h275.777344c5.523437 0 10-4.476563 10-10v-50c0-5.523438-4.476563-10-10-10h-60.296875v-37.332032h101.410156c27.601562-.03125 49.96875-22.398437 50-50v-228.222656c-.03125-27.601562-22.398438-49.96875-50-50zm-51.109375 415.554688h-255.78125v-30h255.777344v30zm-70.300781-50h-120.589844v-37.332032h120.59375v37.332032zm151.410156-87.332032c-.019531 16.558594-13.4375 29.980469-30 30h-358c-16.5625-.019531-29.980469-13.441406-30-30v-228.222656c.019531-16.5625 13.4375-29.980469 30-30h358c16.5625.019531 29.980469 13.4375 30 30zm0 0"/><path d="m399.332031 43.257812h-340.664062c-5.523438 0-10 4.476563-10 10v216.300782c0 5.523437 4.476562 10 10 10h340.667969c5.519531 0 10-4.476563 10-10v-216.300782c0-5.523437-4.480469-10-10.003907-10zm-10 216.300782h-320.664062v-196.300782h320.667969v196.300782zm0 0"/></svg>