<svg height="466pt" viewBox="-34 0 466 466" width="466pt" xmlns="http://www.w3.org/2000/svg"><path d="m221.5625 233.433594h-22.257812c-43.53125.046875-78.808594 35.324218-78.859376 78.855468v49.382813c0 5.523437 4.480469 10 10 10h159.972657c5.523437 0 10-4.476563 10-10v-49.382813c-.050781-43.53125-35.324219-78.808593-78.855469-78.855468zm58.855469 118.238281h-139.96875v-39.382813c.035156-32.488281 26.363281-58.820312 58.855469-58.855468h22.257812c32.492188.035156 58.820312 26.367187 58.855469 58.855468zm0 0"/><path d="m213.300781 212.9375c31.257813 0 56.601563-25.339844 56.601563-56.597656 0-31.261719-25.34375-56.601563-56.601563-56.601563-31.257812 0-56.601562 25.339844-56.601562 56.601563.039062 31.242187 25.355469 56.5625 56.601562 56.597656zm0-93.199219c20.214844 0 36.601563 16.386719 36.601563 36.601563 0 20.210937-16.386719 36.597656-36.601563 36.597656-20.214843 0-36.601562-16.386719-36.601562-36.597656.023437-20.207032 16.398437-36.578125 36.601562-36.601563zm0 0"/><path d="m348.65625 0h-276.445312c-27.601563.03125-49.96875 22.398438-50 50v19.550781h-12.210938c-5.523438 0-10 4.476563-10 10 0 5.523438 4.476562 10 10 10h12.210938v293.847657h-12.210938c-5.523438 0-10 4.480468-10 10 0 5.523437 4.476562 10 10 10h12.210938v12.601562c.03125 27.601562 22.398437 49.96875 50 50h276.445312c27.601562-.03125 49.96875-22.398438 50-50v-366c-.03125-27.601562-22.398438-49.96875-50-50zm30 416c-.019531 16.5625-13.441406 29.980469-30 30h-276.445312c-16.5625-.019531-29.984376-13.4375-30-30v-12.601562h16.476562c5.523438 0 10-4.476563 10-10 0-5.519532-4.476562-10-10-10h-16.476562v-293.847657h16.476562c5.523438 0 10-4.476562 10-10 0-5.523437-4.476562-10-10-10h-16.476562v-19.550781c.015624-16.5625 13.4375-29.980469 30-30h276.445312c16.5625.019531 29.980469 13.4375 30 30zm0 0"/></svg>