<svg height="409pt" viewBox="0 0 409 409.958" width="409pt" xmlns="http://www.w3.org/2000/svg"><path d="m400.4375 308.859375h-71.097656v-214.988281l28.667968-28.667969c3.902344-3.90625 3.902344-10.238281-.003906-14.144531s-10.238281-3.90625-14.144531 0l-30.042969 30.042968h-212.234375v-71.101562c0-5.523438-4.476562-10-10-10-5.523437 0-10 4.476562-10 10v71.101562h-71.101562c-5.523438 0-10 4.476563-10 10 0 5.519532 4.476562 10 10 10h71.097656v213.027344c-1.253906 3.3125-.816406 7.03125 1.171875 9.964844 1.992188 2.929688 5.285156 4.707031 8.828125 4.765625h217.757813v71.097656c0 5.523438 4.476562 10 10 10 5.523437 0 10-4.476562 10-10v-71.097656h71.101562c5.519531 0 10-4.480469 10-10 0-5.523437-4.480469-10-10-10zm-106.617188-207.757813-192.238281 192.238282v-192.238282zm-179.472656 207.757813 194.988282-194.988281v194.988281zm0 0"/></svg>