<svg height="459pt" viewBox="0 -4 459.90549 459" width="459pt" xmlns="http://www.w3.org/2000/svg"><path d="m416.664062 158.125c-15.9375-.015625-30.589843 8.726562-38.152343 22.757812-7.558594 14.027344-6.804688 31.078126 1.972656 44.378907l-63.792969 50.671875-60.558594-197.558594c14.804688-11.183594 20.847657-30.546875 15.03125-48.164062-5.8125-17.617188-22.195312-29.582032-40.746093-29.757813-18.550781-.171875-35.15625 11.476563-41.300781 28.980469-6.148438 17.503906-.472657 36.980468 14.117187 48.441406l-64.804687 197.859375-59.402344-49.742187c11.277344-16.421876 9.894531-38.421876-3.34375-53.304688-13.242188-14.886719-34.925782-18.820312-52.554688-9.539062-17.625 9.285156-26.644531 29.394531-21.859375 48.734374 4.785157 19.335938 22.144531 32.917969 42.066407 32.910157h.089843l46.574219 128.421875v69.195312c0 5.519532 4.476562 10 10 10h270c5.519531 0 10-4.480468 10-10v-69.539062l36.980469-128.089844c23.835937-.222656 43.011719-19.652344 42.925781-43.488281-.089844-23.832031-19.40625-43.121094-43.242188-43.167969zm-186.664062-137.621094c12.882812 0 23.332031 10.445313 23.332031 23.332032 0 12.886718-10.449219 23.335937-23.332031 23.335937-12.886719 0-23.335938-10.449219-23.335938-23.335937.015626-12.878907 10.453126-23.316407 23.335938-23.332032zm-210 180.953125c-.003906-12.886719 10.445312-23.335937 23.332031-23.335937s23.332031 10.445312 23.335938 23.332031c0 12.890625-10.449219 23.335937-23.335938 23.335937-12.882812-.011718-23.320312-10.453124-23.332031-23.332031zm44.023438 38.0625 72.886718 61.035157c2.546875 2.132812 5.980469 2.863281 9.171875 1.949218 3.1875-.914062 5.71875-3.347656 6.753907-6.5l68.675781-209.667968c5.335937 1.070312 10.828125 1.117187 16.183593.140624l64.167969 209.339844c.96875 3.160156 3.441407 5.640625 6.597657 6.621094s6.597656.335938 9.183593-1.722656l77.582031-61.621094c.734376.417969 1.480469.820312 2.234376 1.199219l-34.984376 121.164062h-255.46875l-44.027343-121.402343c.347656-.175782.699219-.347657 1.042969-.535157zm45.976562 192.890625v-50.953125h250v50.953125zm306.664062-207.621094c-12.886718 0-23.332031-10.445312-23.332031-23.332031s10.445313-23.332031 23.332031-23.332031c12.886719 0 23.335938 10.445312 23.335938 23.332031-.015625 12.878907-10.453125 23.316407-23.335938 23.332031zm0 0"/></svg>