<svg height="479pt" viewBox="-117 0 479 479" width="479pt" xmlns="http://www.w3.org/2000/svg"><path d="m96.050781 49.457031c-5.523437 0-10 4.476563-10 10v47c0 5.523438 4.476563 10 10 10 5.523438 0 10-4.476562 10-10v-47c0-5.523437-4.476562-10-10-10zm0 0"/><path d="m155.210938 49.457031c-5.523438 0-10 4.476563-10 10v47c0 5.523438 4.476562 10 10 10 5.523437 0 10-4.476562 10-10v-47c0-5.523437-4.476563-10-10-10zm0 0"/><path d="m235.882812 140.292969h-16.890624v-130.292969c0-5.523438-4.476563-10-10-10h-172.101563c-5.523437 0-10 4.476562-10 10v130.292969h-16.890625c-5.523438 0-10 4.476562-10 10v204.691406c0 68.382813 55.152344 124.015625 122.941406 124.015625 67.789063 0 122.941406-55.632812 122.941406-124.015625v-204.691406c0-5.523438-4.476562-10-10-10zm-188.992187-120.292969h152.101563v120.292969h-152.101563zm178.992187 334.984375c0 57.355469-46.179687 104.015625-102.941406 104.015625-56.761718 0-102.941406-46.660156-102.941406-104.015625v-194.691406h205.882812zm0 0"/><path d="m122.941406 407.863281c26.414063 0 47.828125-21.410156 47.828125-47.824219 0-26.414062-21.414062-47.828124-47.828125-47.828124-26.414062 0-47.828125 21.410156-47.828125 47.824218.03125 26.402344 21.425781 47.800782 47.828125 47.828125zm0-75.652343c15.367188 0 27.828125 12.457031 27.828125 27.828124 0 15.367188-12.460937 27.824219-27.828125 27.824219-15.367187 0-27.828125-12.457031-27.828125-27.828125.019531-15.359375 12.46875-27.804687 27.828125-27.824218zm0 0"/></svg>