<svg height="416pt" viewBox="0 -15 416 416" width="416pt" xmlns="http://www.w3.org/2000/svg"><path d="m366 32.546875h-30.519531v-22.546875c0-5.523438-4.480469-10-10-10-5.523438 0-10 4.476562-10 10v22.546875h-214.960938v-22.546875c0-5.523438-4.476562-10-10-10-5.519531 0-10 4.476562-10 10v22.546875h-30.519531c-27.601562.03125-49.96875 22.398437-50 50v252.933594c.03125 27.601562 22.398438 49.96875 50 50h316c27.601562-.03125 49.96875-22.398438 50-50v-252.933594c-.03125-27.601563-22.398438-49.96875-50-50zm30 302.933594c-.019531 16.558593-13.4375 29.980469-30 30h-316c-16.5625-.019531-29.980469-13.441407-30-30v-252.933594c.019531-16.558594 13.4375-29.980469 30-30h30.519531v27.125c0 5.523437 4.480469 10 10 10 5.523438 0 10-4.476563 10-10v-27.125h214.960938v27.125c0 5.523437 4.476562 10 10 10 5.523437 0 10-4.476563 10-10v-27.125h30.519531c16.5625.019531 29.980469 13.441406 30 30zm0 0"/><path d="m178.164062 124.765625h-16.273437c-5.523437 0-10 4.480469-10 10 0 5.523437 4.476563 10 10 10h16.273437c5.523438 0 10-4.476563 10-10 0-5.519531-4.476562-10-10-10zm0 0"/><path d="m254.109375 124.765625h-21.699219c-5.523437 0-10 4.480469-10 10 0 5.523437 4.476563 10 10 10h21.699219c5.523437 0 10-4.476563 10-10 0-5.519531-4.476563-10-10-10zm0 0"/><path d="m330.054688 124.765625h-21.699219c-5.523438 0-10 4.480469-10 10 0 5.523437 4.476562 10 10 10h21.699219c5.523437 0 10-4.476563 10-10 0-5.519531-4.476563-10-10-10zm0 0"/><path d="m178.164062 209.863281h-16.273437c-5.523437 0-10 4.476563-10 10 0 5.523438 4.476563 10 10 10h16.273437c5.523438 0 10-4.476562 10-10 0-5.523437-4.476562-10-10-10zm0 0"/><path d="m102.21875 209.863281h-16.273438c-5.523437 0-10 4.476563-10 10 0 5.523438 4.476563 10 10 10h16.273438c5.523438 0 10-4.476562 10-10 0-5.523437-4.476562-10-10-10zm0 0"/><path d="m254.109375 209.863281h-21.699219c-5.523437 0-10 4.476563-10 10 0 5.523438 4.476563 10 10 10h21.699219c5.523437 0 10-4.476562 10-10 0-5.523437-4.476563-10-10-10zm0 0"/><path d="m330.054688 209.863281h-21.699219c-5.523438 0-10 4.476563-10 10 0 5.523438 4.476562 10 10 10h21.699219c5.523437 0 10-4.476562 10-10 0-5.523437-4.476563-10-10-10zm0 0"/><path d="m178.164062 289.535156h-16.273437c-5.523437 0-10 4.476563-10 10 0 5.523438 4.476563 10 10 10h16.273437c5.523438 0 10-4.476562 10-10 0-5.523437-4.476562-10-10-10zm0 0"/><path d="m102.21875 289.535156h-16.273438c-5.523437 0-10 4.476563-10 10 0 5.523438 4.476563 10 10 10h16.273438c5.523438 0 10-4.476562 10-10 0-5.523437-4.476562-10-10-10zm0 0"/><path d="m254.109375 289.535156h-21.699219c-5.523437 0-10 4.476563-10 10 0 5.523438 4.476563 10 10 10h21.699219c5.523437 0 10-4.476562 10-10 0-5.523437-4.476563-10-10-10zm0 0"/></svg>