<svg height="426pt" viewBox="0 -10 426.9 426" width="426pt" xmlns="http://www.w3.org/2000/svg"><path d="m376.902344 36.15625h-34.804688v-25.707031c0-5.523438-4.476562-10-10-10-5.523437 0-10 4.476562-10 10v25.707031h-212.828125v-25.707031c0-5.523438-4.480469-10-10-10-5.523437 0-10 4.476562-10 10v25.707031h-39.269531c-27.601562.03125-49.96875 22.402344-50 50v270.292969c.03125 27.601562 22.398438 49.96875 50 50h326.898438c27.601562-.03125 49.96875-22.398438 50-50v-270.292969c-.03125-27.597656-22.394532-49.964844-49.996094-50zm30 320.292969c-.019532 16.5625-13.441406 29.980469-30 30h-326.902344c-16.5625-.019531-29.980469-13.4375-30-30v-188.707031h386.898438v188.707031zm-386.902344-208.707031v-61.585938c.019531-16.558594 13.4375-29.980469 30-30h39.269531v25.707031c0 5.523438 4.476563 10 10 10 5.523438 0 10-4.476562 10-10v-25.707031h212.828125v25.707031c0 5.523438 4.476563 10 10 10 5.523438 0 10-4.476562 10-10v-25.707031h34.804688c16.5625.019531 29.980468 13.441406 30 30v61.585938zm0 0"/></svg>