<svg height="398pt" viewBox="0 -5 398.61619 398" width="398pt" xmlns="http://www.w3.org/2000/svg"><path d="m334.632812 5.09375c-1.816406-2.972656-5.050781-4.785156-8.53125-4.785156h-253.585937c-3.484375 0-6.714844 1.8125-8.53125 4.785156l-62.515625 102.261719c-2.089844 3.417969-1.9375 7.753906.386719 11.019531l188.480469 264.609375.066406.191406.058594-.019531 1.253906 1.761719c1.875 2.632812 4.910156 4.199219 8.144531 4.199219h.011719c3.238281-.003907 6.277344-1.578126 8.148437-4.222657l1.246094-1.757812.054687.015625.066407-.191406 187.390625-264.609376c2.308594-3.261718 2.457031-7.585937.371094-10.996093zm-112.84375 15.214844h90.332032l-24.8125 72.640625zm47.191407 82.179687h-138.503907l68.871094-77.199219zm-157.203125-9.078125-25.171875-73.097656h90.390625zm-18.023438 9.078125h-65.871094l42.132813-68.917969zm183.46875 20-77.398437 226.605469-78.03125-226.597656zm51.460938-88.789062 42.050781 68.789062h-65.550781zm-299.339844 88.789062h71.292969l66.71875 193.761719zm269.007812 0h70.988282l-137.121094 193.628907zm0 0"/></svg>