<svg height="458pt" viewBox="-42 0 458 458.001" width="458pt" xmlns="http://www.w3.org/2000/svg"><path d="m333.566406 0h-278.363281c-30.003906.0351562-54.316406 24.347656-54.351563 54.347656v338.351563c-.566406 3.242187-.851562 6.527343-.851562 9.816406 0 29.699219 23.667969 54.070313 53.882812 55.472656.15625.007813.3125.011719.464844.011719h256.476563c22.082031-.023438 39.976562-17.917969 40-40v-54.886719c13.886719-6.65625 22.730469-20.683593 22.742187-36.085937v-287.027344c-.023437-22.082031-17.917968-39.9765625-40-40zm-312.714844 54.347656c.023438-18.960937 15.390626-34.324218 34.351563-34.347656h16.25v327.027344h-16.761719c-12.300781.226562-24.1875 4.476562-33.839844 12.101562zm309.972657 363.652344c-.011719 11.039062-8.957031 19.988281-20 20h-256.226563c-19.417968-1.011719-34.597656-16.558594-34.597656-35.484375 0-19.417969 15.382812-34.984375 35.039062-35.488281h275.785157zm22.742187-90.972656c-.011718 11.042968-8.957031 19.988281-20 20h-242.113281v-327.027344h242.113281c11.042969.011719 19.988282 8.960938 20 20zm0 0"/><path d="m309.421875 61.746094h-177.761719c-5.523437 0-10 4.476562-10 10v130c0 5.523437 4.476563 10 10 10h177.761719c5.523437 0 10-4.476563 10-10v-130c0-5.523438-4.476563-10-10-10zm-10 130h-157.761719v-110h157.761719zm0 0"/></svg>