<svg height="440pt" viewBox="-17 0 440 440.538" width="440pt" xmlns="http://www.w3.org/2000/svg"><path d="m367.128906 0h-139.539062c-22.082032.0234375-39.976563 17.917969-40 40v144.847656c0 3.601563 1.9375 6.925782 5.074218 8.703125 3.132813 1.773438 6.980469 1.726563 10.070313-.125l52.132813-31.273437h112.261718c22.082032-.023438 39.976563-17.917969 40-40v-82.152344c-.023437-22.082031-17.917968-39.9765625-40-40zm20 122.152344c-.011718 11.042968-8.960937 19.988281-20 20h-115.03125c-1.8125 0-3.589844.492187-5.144531 1.425781l-39.363281 23.609375v-127.1875c.011718-11.039062 8.960937-19.988281 20-20h139.539062c11.039063.011719 19.988282 8.960938 20 20zm0 0"/><path d="m111.140625 296.90625c-61.203125.074219-110.800781 49.671875-110.871094 110.875v22.757812c0 5.523438 4.476563 10 10 10h201.746094c5.519531 0 10-4.476562 10-10v-22.757812c-.070313-61.203125-49.671875-110.804688-110.875-110.875zm90.875 123.632812h-181.746094v-12.757812c-.109375-32.539062 17.1875-62.648438 45.347657-78.949219 28.160156-16.300781 62.886718-16.300781 91.046874 0 28.160157 16.300781 45.457032 46.410157 45.351563 78.949219zm0 0"/><path d="m111.140625 284.417969c36.007813 0 65.199219-29.191407 65.199219-65.199219s-29.191406-65.199219-65.199219-65.199219-65.199219 29.191407-65.199219 65.199219c.039063 35.992188 29.207032 65.160156 65.199219 65.199219zm0-110.398438c24.964844 0 45.199219 20.234375 45.199219 45.199219s-20.234375 45.199219-45.199219 45.199219-45.199219-20.234375-45.199219-45.199219c.027344-24.949219 20.25-45.167969 45.199219-45.195312zm0 0"/></svg>