<svg height="489pt" viewBox="0 -54 489.98728 489" width="489pt" xmlns="http://www.w3.org/2000/svg"><path d="m147.957031 143.648438c19.417969-19.285157 22.496094-49.605469 7.351563-72.402344-15.144532-22.796875-44.289063-31.707032-69.59375-21.277344-25.300782 10.425781-39.703125 37.285156-34.390625 64.132812 5.3125 26.847657 28.863281 46.191407 56.230469 46.195313 15.152343.070313 29.699218-5.925781 40.402343-16.648437zm-77.441406-40.402344c0-20.460938 16.585937-37.046875 37.042969-37.046875 20.460937 0 37.046875 16.585937 37.046875 37.046875 0 20.460937-16.585938 37.046875-37.046875 37.046875-9.855469.105469-19.339844-3.761719-26.3125-10.734375-6.96875-6.96875-10.839844-16.453125-10.730469-26.3125zm0 0"/><path d="m382.429688 152.238281c-27.101563.09375-50.371094 19.308594-55.589844 45.902344-5.21875 26.597656 9.066406 53.179687 34.121094 63.507813 25.058593 10.328124 53.925781 1.53125 68.960937-21.015626 15.039063-22.550781 12.070313-52.578124-7.097656-71.742187-10.699219-10.722656-25.246094-16.71875-40.394531-16.652344zm0 94.089844c-20.460938 0-37.046876-16.585937-37.046876-37.042969 0-20.460937 16.585938-37.046875 37.046876-37.046875 20.460937 0 37.046874 16.585938 37.046874 37.046875.105469 9.855469-3.761718 19.339844-10.734374 26.3125-6.96875 6.96875-16.453126 10.839844-26.3125 10.730469zm0 0"/><path d="m457.296875 137.671875c-19.816406-19.933594-46.757813-31.140625-74.863281-31.140625-28.105469 0-55.050782 11.207031-74.863282 31.140625-19.054687 19.152344-30.574218 44.523437-32.449218 71.476563-1.800782 25.261718 6.199218 51.410156 22.582031 73.691406l32.855469 43.890625c-16.828125-5.160157-27.5-1.679688-36.074219 1.117187-7.695313 2.511719-13.253906 4.332032-24.085937.988282-11-3.394532-15.210938-8.496094-20.542969-14.953126-5.949219-7.199218-13.355469-16.171874-30.074219-21.328124-16.898438-5.210938-27.589844-1.71875-36.183594 1.085937-7.699218 2.511719-13.253906 4.328125-24.082031.988281-11-3.394531-15.210937-8.492187-20.542969-14.949218-3.5-4.246094-7.53125-9.097657-13.652344-13.421876l67.019532-89.523437c16.332031-22.214844 24.332031-48.363281 22.53125-73.609375-1.875-26.957031-13.394532-52.335938-32.449219-71.488281-19.8125-19.933594-46.757813-31.144531-74.863281-31.144531-28.105469 0-55.050782 11.210937-74.863282 31.144531-19.050781 19.152343-30.570312 44.523437-32.445312 71.472656-1.804688 25.265625 6.199219 51.414063 22.582031 73.695313l68.480469 91.480468c1.800781 2.414063 4.117188 4.398438 6.785156 5.804688 1.25 1.597656 2.964844 2.777344 4.90625 3.375 11 3.394531 15.210938 8.492187 20.546875 14.949218 5.949219 7.203126 13.351563 16.171876 30.070313 21.328126 16.894531 5.210937 27.589844 1.71875 36.183594-1.085938 7.695312-2.511719 13.253906-4.328125 24.082031-.988281 11 3.394531 15.210937 8.496093 20.542969 14.953125 5.949218 7.199218 13.355468 16.171875 30.074218 21.328125 16.898438 5.210937 27.589844 1.71875 36.183594-1.085938 7.695312-2.511719 13.257812-4.328125 24.085938-.988281 11 3.394531 15.214843 8.5 20.550781 14.953125 5.949219 7.203125 13.355469 16.171875 30.074219 21.332031 1.664062.515625 3.429687.585938 5.128906.199219.628906.058594 1.261718.09375 1.898437.09375 6.402344.027344 12.433594-2.992187 16.246094-8.132813l68.535156-91.546874c16.332031-22.214844 24.335938-48.363282 22.53125-73.609376-1.871093-26.957031-13.386719-52.335937-32.441406-71.492187zm-418.402344 27.214844c-13.519531-18.390625-20.160156-39.824219-18.691406-60.371094 1.535156-22.15625 11-43.019531 26.664063-58.769531 16.0625-16.164063 37.90625-25.253906 60.691406-25.253906s44.632812 9.089843 60.691406 25.253906c15.667969 15.753906 25.136719 36.621094 26.671875 58.785156 1.464844 20.53125-5.175781 41.964844-18.644531 60.285156l-68.480469 91.480469c-.050781.082031-.144531.128906-.238281.117187-.09375.007813-.1875-.035156-.234375-.117187zm412.253907 105.96875-68.480469 91.476562c-.058594.074219-.144531.117188-.238281.117188-.089844 0-.175782-.042969-.234376-.117188l-68.429687-91.410156c-13.523437-18.386719-20.160156-39.820313-18.695313-60.367187 1.539063-22.160157 11.003907-43.023438 26.667969-58.769532 16.0625-16.164062 37.90625-25.253906 60.691407-25.253906 22.785156 0 44.632812 9.089844 60.691406 25.253906 15.667968 15.75 25.136718 36.621094 26.671875 58.785156 1.464843 20.53125-5.175781 41.960938-18.644531 60.285157zm0 0"/></svg>