<svg height="467pt" viewBox="0 -18 467.763 467" width="467pt" xmlns="http://www.w3.org/2000/svg"><path d="m417.765625.382812h-281.449219c-27.601562.03125-49.96875 22.398438-50 50v157.097657h-36.316406c-27.601562.03125-49.96875 22.398437-50 50v119.742187c.03125 29.34375 23.8125 53.125 53.15625 53.160156h350.660156c35.300782-.039062 63.90625-28.648437 63.945313-63.949218v-316.050782c-.027344-27.601562-22.394531-49.96875-49.996094-50zm-331.449219 376.839844c0 18.3125-14.84375 33.160156-33.15625 33.160156s-33.160156-14.847656-33.160156-33.160156v-119.734375c.019531-16.5625 13.441406-29.984375 30-30h36.316406zm361.449219-10.789062c-.03125 24.261718-19.691406 43.917968-43.949219 43.949218h-309.132812c7.542968-9.40625 11.648437-21.105468 11.636718-33.160156v-326.839844c.015626-16.5625 13.4375-29.984374 30-30h281.445313c16.558594.015626 29.980469 13.4375 30 30zm0 0"/><path d="m381.84375 284.855469h-210.402344c-5.519531 0-10 4.476562-10 10 0 5.523437 4.480469 10 10 10h210.402344c5.523438 0 10-4.476563 10-10 0-5.523438-4.476562-10-10-10zm0 0"/><path d="m381.84375 204.855469h-210.402344c-5.519531 0-10 4.476562-10 10 0 5.523437 4.480469 10 10 10h210.402344c5.523438 0 10-4.476563 10-10 0-5.523438-4.476562-10-10-10zm0 0"/><path d="m171.445312 134.855469h110.402344c5.523438 0 10-4.476563 10-10 0-5.523438-4.476562-10-10-10h-110.402344c-5.519531 0-10 4.476562-10 10 0 5.523437 4.480469 10 10 10zm0 0"/></svg>