<svg height="418pt" viewBox="-20 0 418 418.0321" width="418pt" xmlns="http://www.w3.org/2000/svg"><path d="m303.855469 2.089844c-24.566407-5.25-50.210938-.519532-71.292969 13.140625-18.65625 12.015625-32.421875 30.289062-38.816406 51.542969h-183.730469c-5.523437 0-10 4.476562-10 10v108.898437c0 36.929687 14.582031 74.355469 40 102.683594 24.21875 26.988281 55.210937 42.953125 88.152344 45.648437v64.027344h-48.925781c-5.519532 0-10 4.476562-10 10s4.480468 10 10 10h123.203124c5.523438 0 10-4.476562 10-10s-4.476562-10-10-10h-54.273437v-64.03125c32.90625-2.710938 63.898437-18.75 88.164063-45.855469 24.667968-27.558593 39.121093-63.550781 39.953124-99.222656 2.707032.230469 5.410157.347656 8.109376.351563 48.4375-.035157 89.027343-36.648438 94.035156-84.828126 5.007812-48.179687-27.179688-92.359374-74.578125-102.355468zm-47.527344 84.679687v90.515625h-236.3125v-90.515625zm-34.898437 188.035157c-22.277344 24.882812-50.914063 38.871093-80.882813 39.574218-1.558594-.394531-3.195313-.394531-4.753906 0-30.023438-.699218-58.664063-14.617187-80.890625-39.382812-19.398438-21.609375-31.421875-48.824219-34.335938-77.710938h235.199219c-2.664063 28.027344-14.847656 55.746094-34.332031 77.519532zm135.738281-164.585938c-3.976563 19.378906-15.59375 36.339844-32.222657 47.050781-14.394531 9.332031-31.5625 13.414063-48.617187 11.5625v-92.0625c0-5.519531-4.476563-10-10-10h-51.410156c5.632812-14.277343 15.605469-26.433593 28.511719-34.746093 16.660156-10.789063 36.921874-14.511719 56.328124-10.355469 19.378907 3.976562 36.339844 15.59375 47.050782 32.222656 10.789062 16.660156 14.515625 36.921875 10.359375 56.328125zm0 0"/></svg>