<svg height="462pt" viewBox="0 0 462 462.00133" width="462pt" xmlns="http://www.w3.org/2000/svg"><path d="m241 91c0-5.523438-4.476562-10-10-10-39.789062-.023438-77.957031 15.773438-106.089844 43.910156-28.136718 28.132813-43.933594 66.300782-43.910156 106.089844 0 5.523438 4.476562 10 10 10s10-4.476562 10-10c.082031-71.761719 58.238281-129.917969 130-130 5.523438 0 10-4.476562 10-10zm0 0"/><path d="m371 221c-5.523438 0-10 4.476562-10 10-.082031 71.765625-58.234375 129.917969-130 130-5.523438 0-10 4.476562-10 10s4.476562 10 10 10c39.792969.023438 77.957031-15.769531 106.09375-43.90625s43.929688-66.304688 43.90625-106.09375c0-5.523438-4.476562-10-10-10zm0 0"/><path d="m231 0c-93.429688 0-177.660156 56.28125-213.414062 142.601562-35.757813 86.316407-15.992188 185.675782 50.074218 251.742188 90.210938 90.210938 236.472656 90.210938 326.683594 0s90.210938-236.472656 0-326.683594c-43.226562-43.464844-102.042969-67.828125-163.34375-67.660156zm0 442c-116.34375 0-211-94.652344-211-211 0-116.34375 94.65625-211 211-211 116.347656 0 211 94.65625 211 211 0 116.347656-94.652344 211-211 211zm0 0"/><path d="m298.207031 231c0-37.117188-30.089843-67.207031-67.207031-67.207031s-67.203125 30.089843-67.203125 67.207031 30.085937 67.207031 67.203125 67.207031c37.101562-.042969 67.164062-30.105469 67.207031-67.207031zm-114.410156 0c0-26.070312 21.132813-47.207031 47.203125-47.207031 26.074219 0 47.207031 21.136719 47.207031 47.207031s-21.132812 47.207031-47.207031 47.207031c-26.058594-.03125-47.175781-21.148437-47.203125-47.207031zm0 0"/></svg>