<svg height="458pt" viewBox="0 -58 458.37571 458" width="458pt" xmlns="http://www.w3.org/2000/svg"><path d="m453.84375 145.042969-219.1875-143.226563c-3.324219-2.171875-7.617188-2.171875-10.9375 0l-219.191406 143.226563c-2.738282 1.789062-4.425782 4.804687-4.52343775 8.070312-.09765625 3.269531 1.41015575 6.378907 4.03515575 8.328125l87.273438 64.730469v106.398437c0 3.285157 1.609375 6.355469 4.308594 8.226563 2.703125 1.867187 6.144531 2.289063 9.21875 1.132813 80.164062-30.214844 168.585937-30.214844 248.75 0 3.070312 1.15625 6.515625.734374 9.214844-1.136719 2.699218-1.867188 4.308593-4.9375 4.308593-8.222657v-106.027343l87.246094-65.117188c2.613281-1.953125 4.113281-5.058593 4.011719-8.324219-.101563-3.265624-1.792969-6.273437-4.527344-8.058593zm-106.730469 173.375c-76.527343-25.527344-159.269531-25.527344-235.796875 0v-91.042969c76.285156-26.96875 159.507813-26.972656 235.796875-.015625zm9.390625-108.914063c-82.132812-29.746094-172.085937-29.785156-254.246094-.113281l-74.769531-55.457031 201.699219-131.800782 201.738281 131.824219zm0 0"/></svg>