<svg height="422pt" viewBox="0 -5 422 422" width="422pt" xmlns="http://www.w3.org/2000/svg"><path d="m372 56.628906h-11.050781v-8.925781c.078125-17.015625-8.957031-32.773437-23.679688-41.304687-14.726562-8.53125-32.890625-8.53125-47.613281 0-14.726562 8.53125-23.757812 24.289062-23.679688 41.304687v8.925781h-109.953124v-8.925781c.078124-17.015625-8.953126-32.773437-23.679688-41.304687-14.722656-8.53125-32.886719-8.53125-47.613281 0-14.722657 8.53125-23.757813 24.289062-23.679688 41.304687v8.925781h-11.050781c-27.601562.03125-49.96875 22.398438-50 50v255.589844c.03125 27.601562 22.398438 49.96875 50 50h322c27.601562-.03125 49.96875-22.398438 50-50v-255.589844c-.03125-27.601562-22.398438-49.96875-50-50zm-86.023438-8.925781c-.0625-9.859375 5.164063-18.992187 13.695313-23.941406 8.527344-4.945313 19.050781-4.945313 27.582031 0 8.527344 4.949219 13.753906 14.082031 13.695313 23.941406v37.488281h-54.976563v-37.488281zm-204.925781 0c-.058593-9.859375 5.167969-18.992187 13.695313-23.941406 8.53125-4.945313 19.054687-4.945313 27.582031 0 8.53125 4.949219 13.757813 14.082031 13.695313 23.941406v37.488281h-54.972657zm-31.050781 28.925781h11.050781v18.5625c0 5.523438 4.476563 10 10 10h74.976563c5.523437 0 10-4.476562 10-10v-18.5625h109.949218v18.5625c0 5.523438 4.476563 10 10 10h74.972657c5.523437 0 10-4.476562 10-10v-18.5625h11.050781c16.5625.019532 29.980469 13.4375 30 30v49.613282h-382v-49.613282c.019531-16.5625 13.4375-29.980468 30-30zm322 315.589844h-322c-16.5625-.019531-29.980469-13.441406-30-30v-185.976562h382v185.976562c-.019531 16.558594-13.4375 29.980469-30 30zm0 0"/><path d="m275.816406 226.988281-83.832031 80.160157-42.523437-42.523438c-3.90625-3.90625-10.238282-3.90625-14.144532 0-3.902344 3.90625-3.902344 10.238281 0 14.144531l49.441406 49.4375c3.839844 3.84375 10.050782 3.914063 13.980469.15625l90.898438-86.914062c3.992187-3.816407 4.136719-10.148438.320312-14.140625-3.816406-3.992188-10.148437-4.136719-14.140625-.320313zm0 0"/></svg>