<svg height="439pt" viewBox="0 -6 439.082 439" width="439pt" xmlns="http://www.w3.org/2000/svg"><path d="m429.082031 180.753906h-56.917969v-170.714844c0-5.519531-4.476562-9.9999995-10-9.9999995h-92.222656c-5.523437 0-10 4.4804685-10 9.9999995v132.128907l-52.09375 45.894531v-67.832031c0-4.027344-2.417968-7.664063-6.132812-9.222657-3.71875-1.558593-8.007813-.730468-10.878906 2.097657l-76.910157 75.679687v-68.863281c-.003906-3.816406-2.175781-7.304687-5.609375-8.980469-3.429687-1.679687-7.515625-1.257812-10.53125 1.085938l-93.925781 73.042968c-2.433594 1.894532-3.859375 4.804688-3.859375 7.894532v224.3125c0 5.523437 4.476562 10 10 10h419.082031c5.523438 0 10-4.476563 10-10v-226.523438c0-5.523437-4.476562-10-10-10zm-76.917969-160.714844v30h-72.222656v-30zm-72.222656 50h72.222656v110.714844h-39.339843v-63.039062c0-3.929688-2.304688-7.496094-5.886719-9.113282-3.578125-1.617187-7.777344-.984374-10.722656 1.613282l-16.273438 14.332031zm-110.339844 337.238282h-71.828124v-76.921875h71.828124zm152.597657 0h-71.824219v-76.921875h71.824219zm96.882812 0h-76.882812v-86.921875c0-5.523438-4.476563-10-10-10h-91.824219c-5.523438 0-10 4.476562-10 10v86.921875h-40.773438v-86.921875c0-5.523438-4.480468-10-10-10h-91.828124c-5.519532 0-10 4.476562-10 10v86.921875h-57.773438v-209.421875l73.925781-57.488281v72.289062c0 4.03125 2.417969 7.667969 6.136719 9.222656 3.714844 1.558594 8.003906.730469 10.875-2.09375l76.914062-75.683594v66.101563c0 3.929687 2.300782 7.492187 5.882813 9.109375s7.777344.988281 10.726563-1.609375l88.363281-77.851563v50.898438c0 5.523438 4.476562 10 10 10h116.257812zm0 0"/></svg>