<svg height="439pt" viewBox="-38 0 439 439.627" width="439pt" xmlns="http://www.w3.org/2000/svg"><path d="m313.195312 0h-184.339843c-2.582031 0-5.0625.996094-6.925781 2.785156l-118.539063 113.75c-1.964844 1.886719-3.078125 4.492188-3.078125 7.214844v265.878906c.03125 27.597656 22.398438 49.964844 50 50h262.882812c27.601563-.035156 49.96875-22.402344 50-50v-339.628906c-.03125-27.601562-22.398437-49.96875-50-50zm-193.640624 32.78125v50.78125c-.019532 16.558594-13.4375 29.980469-30 30h-54.179688zm223.640624 356.847656c-.015624 16.558594-13.4375 29.980469-30 30h-262.882812c-16.5625-.019531-29.980469-13.441406-30-30v-256.066406h69.242188c27.601562-.03125 49.96875-22.398438 50-50v-63.5625h173.640624c16.5625.019531 29.980469 13.4375 30 30zm0 0"/><path d="m226.234375 184.101562c-16.757813.011719-32.8125 6.734376-44.574219 18.667969-12.113281-12.101562-28.578125-18.832031-45.699218-18.667969-16.878907.011719-33.039063 6.832032-44.820313 18.917969-11.839844 12.039063-18.503906 28.226563-18.570313 45.113281-.167968 16.929688 6.601563 33.1875 18.734376 45l.089843.085938 76.46875 72.847656c7.722657 7.367188 19.871094 7.367188 27.59375 0l76.46875-72.851562c.058594-.058594.117188-.113282.171875-.167969 12.164063-12.050781 18.957032-28.496094 18.835938-45.613281-.046875-16.78125-6.851563-32.835938-18.878906-44.539063-12.117188-12.183593-28.636719-18.960937-45.820313-18.792969zm31.804687 94.71875-76.375 72.761719-76.421874-72.800781c-8.214844-8.03125-12.789063-19.070312-12.667969-30.558594.054687-11.691406 4.675781-22.898437 12.878906-31.230468 8.058594-8.25 19.101563-12.898438 30.632813-12.898438 11.851562-.113281 23.246093 4.566406 31.597656 12.976562 2.101562 2.101563 3.996094 4.402344 5.65625 6.863282 1.855468 2.78125 4.976562 4.453125 8.320312 4.453125s6.464844-1.671875 8.320313-4.453125c1.664062-2.460938 3.558593-4.761719 5.65625-6.863282l.085937-.082031c8.054688-8.25 19.097656-12.902343 30.628906-12.898437 11.851563-.105469 23.246094 4.578125 31.601563 12.988281l.085937.082031c8.214844 7.980469 12.863282 18.9375 12.894532 30.390625.070312 11.730469-4.574219 23-12.894532 31.269531zm0 0"/></svg>