<svg height="450pt" viewBox="-46 0 450 450" width="450pt" xmlns="http://www.w3.org/2000/svg"><path d="m247.6875 3c-1.882812-1.917969-4.453125-3-7.136719-3h-190.550781c-27.601562.03125-49.96875 22.398438-50 50v350c.03125 27.601562 22.398438 49.96875 50 50h258.265625c27.601563-.03125 49.96875-22.398438 50-50v-280.226562c0-2.617188-1.027344-5.128907-2.859375-7zm1.644531 30.230469 74.285157 75.699219h-54.285157c-11.039062-.011719-19.988281-8.960938-20-20zm58.933594 396.769531h-258.265625c-16.5625-.019531-29.980469-13.4375-30-30v-350c.019531-16.5625 13.4375-29.980469 30-30h179.332031v68.933594c.027344 22.082031 17.917969 39.972656 40 40h68.933594v271.066406c-.019531 16.5625-13.4375 29.980469-30 30zm0 0"/><path d="m248.410156 224.789062-41.253906-6.109374-18.324219-37.152344c-1.683593-3.414063-5.160156-5.578125-8.96875-5.578125-3.808593 0-7.285156 2.164062-8.96875 5.578125l-18.320312 37.152344-41.257813 6.109374c-3.78125.5625-6.914062 3.234376-8.066406 6.878907-1.15625 3.648437-.125 7.632812 2.648438 10.269531l29.945312 28.421875-7.109375 41.167969c-.652344 3.753906.890625 7.554687 3.976563 9.792968 3.082031 2.242188 7.171874 2.53125 10.542968.753907l36.613282-19.324219 36.613281 19.324219c3.371093 1.777343 7.460937 1.484375 10.542969-.753907 3.085937-2.238281 4.628906-6.039062 3.980468-9.792968l-7.117187-41.167969 29.945312-28.421875c2.777344-2.632812 3.804688-6.621094 2.652344-10.269531-1.152344-3.648438-4.285156-6.316407-8.070313-6.878907zm-42.175781 34.746094c-2.425781 2.304688-3.539063 5.664063-2.972656 8.957032l4.5625 26.402343-23.292969-12.292969c-2.917969-1.542968-6.414062-1.542968-9.332031 0l-23.296875 12.292969 4.5625-26.402343c.570312-3.292969-.542969-6.652344-2.96875-8.953126l-18.933594-17.972656 26.128906-3.871094c3.246094-.480468 6.046875-2.523437 7.5-5.46875l11.667969-23.667968 11.671875 23.667968c1.453125 2.941407 4.253906 4.988282 7.5 5.46875l26.128906 3.871094zm0 0"/><path d="m239.132812 355h-120c-5.523437 0-10 4.476562-10 10s4.476563 10 10 10h120c5.523438 0 10-4.476562 10-10s-4.476562-10-10-10zm0 0"/></svg>