<svg height="473pt" viewBox="-27 0 473 473.99983" width="473pt" xmlns="http://www.w3.org/2000/svg"><path d="m415.105469 2.011719c-2.507813-1.886719-5.757813-2.488281-8.777344-1.625l-166.035156 47.683593v-8.539062c0-5.519531-4.476563-10-10-10h-20.058594c-20.484375.03125-38.007813 14.722656-41.613281 34.886719h-158.121094c-5.523438 0-10 4.480469-10 10 0 5.523437 4.476562 10 10 10h84.351562c-1.582031 1.011719-3.152343 2.046875-4.695312 3.128906-21.503906 15.058594-37.835938 36.386719-46.769531 61.074219-.03125.085937-.0625.171875-.09375.261718l-2.179688 6.539063c-1.355469 4.070313.035157 8.554687 3.457031 11.140625l52.667969 39.808594c3.09375 2.339844 7.261719 2.675781 10.691407.867187 3.433593-1.808593 5.507812-5.441406 5.324218-9.3125-1.898437-40.363281 21.488282-80 57.960938-100.28125 4.332031 10.332031 12.566406 18.535157 22.910156 22.828125v21.226563c-37.652344 6.035156-65.363281 38.496093-65.410156 76.628906v245.671875c0 5.523438 4.476562 10 10 10h135.621094c3.171874-.003906 6.152343-1.507812 8.039062-4.058594 1.886719-2.546875 2.453125-5.839844 1.527344-8.871094v-242.742187c-.050782-39.804687-30.175782-73.136719-69.777344-77.199219v-17.460937h16.167969c5.523437 0 10-4.476563 10-10v-11.875l166.015625 48.089843c3.019531.875 6.277344.277344 8.789062-1.609374 2.515625-1.890626 3.992188-4.851563 3.992188-7.996094v-130.277344c0-3.140625-1.476563-6.097656-3.984375-7.988281zm-300.660157 121.78125c-11.019531 16.503906-18.023437 35.359375-20.453124 55.054687l-31.621094-23.898437c14.359375-39.046875 49.921875-66.328125 91.351562-70.085938-15.613281 10.15625-28.980468 23.40625-39.277344 38.929688zm149.457032 273.515625h-51.808594v-134.089844h51.8125zm0-178.980469v24.890625h-61.808594c-5.523438 0-10 4.476562-10 10v154.089844c0 5.523437 4.476562 10 10 10h61.8125v36.691406h-115.191406v-235.671875c-.085938-20.632813 10.871094-39.734375 28.726562-50.074219 17.855469-10.34375 39.878906-10.34375 57.730469 0 17.855469 10.339844 28.816406 29.441406 28.730469 50.074219zm-43.609375-114.660156h-10.058594c-12.292969-.015625-22.257813-9.980469-22.273437-22.273438v-9.585937c.015624-12.296875 9.980468-22.261719 22.273437-22.277344h10.058594zm178.800781 23.300781-158.800781-46v-12.089844l158.800781-45.601562zm0 0"/></svg>