<svg height="438pt" viewBox="-16 0 438 438" width="438pt" xmlns="http://www.w3.org/2000/svg"><path d="m404.921875 58.265625c-1.589844-3.652344-5.191406-6.015625-9.171875-6.015625h-161.5v-42.25c0-5.523438-4.476562-10-10-10h-214.25c-5.523438 0-10 4.476562-10 10v418c0 5.523438 4.476562 10 10 10h50c5.523438 0 10-4.476562 10-10v-227.5h58.75v37.5c0 5.523438 4.476562 10 10 10h257c3.980469 0 7.582031-2.363281 9.171875-6.015625 1.585937-3.648437.855469-7.894531-1.859375-10.804687l-75.636719-81.054688 75.636719-81.054688c2.714844-2.910156 3.445312-7.15625 1.859375-10.804687zm-384.921875-38.265625h194.25v160.5h-194.25zm30 398h-30v-217.5h30zm256.4375-274.699219c-3.582031 3.839844-3.582031 9.800781 0 13.644531l66.304688 71.054688h-223.992188v-27.5h75.5c5.523438 0 10-4.476562 10-10v-118.25h138.492188zm0 0"/></svg>