<svg height="434pt" viewBox="-48 0 434 434.08" width="434pt" xmlns="http://www.w3.org/2000/svg"><path d="m169.039062 0c-2.695312 0-5.28125 1.089844-7.164062 3.023438-6.605469 6.785156-161.8359375 167.222656-161.8359375 259.503906 0 94.59375 75.8124995 171.550781 168.9999995 171.550781s169-76.957031 169-171.550781c0-92.28125-155.226562-252.71875-161.835937-259.503906-1.882813-1.933594-4.464844-3.023438-7.164063-3.023438zm71.15625 379.601562c-28.757812 28.804688-72.046874 37.433594-109.648437 21.847657-37.601563-15.585938-62.097656-52.304688-62.042969-93.007813 0-43.179687 67.851563-102.707031 100.535156-127.078125 32.6875 24.371094 100.535157 83.902344 100.535157 127.078125.105469 26.691406-10.476563 52.3125-29.378907 71.15625zm77.84375-117.074218c.085938 41.675781-16.90625 81.5625-47.011718 110.378906 12.183594-19.289062 18.617187-41.652344 18.546875-64.464844 0-28.167968-19.597657-61.75-58.25-99.800781-17.652344-17.285156-36.535157-33.261719-56.507813-47.800781-3.460937-2.449219-8.09375-2.449219-11.554687 0-19.972657 14.539062-38.855469 30.515625-56.503907 47.800781-38.65625 38.058594-58.253906 71.636719-58.253906 99.804687-.070312 22.8125 6.363282 45.171876 18.546875 64.460938-30.105469-28.816406-47.09375-68.703125-47.011719-110.378906 0-34.257813 26.738282-87.34375 77.324219-153.511719 29.089844-38.050781 58.5-70.390625 71.675781-84.484375 13.15625 14.066406 42.484376 46.316406 71.558594 84.328125 50.664063 66.242187 77.441406 119.378906 77.441406 153.667969zm0 0"/></svg>