<svg height="422pt" viewBox="-1 0 422 422.00181" width="422pt" xmlns="http://www.w3.org/2000/svg"><path d="m302.402344 20.617188c-.117188.117187-.230469.238281-.34375.359374l-44.855469 49.542969-148.347656-42.246093c-20.886719-5.859376-43.3125.003906-58.664063 15.332031l-36.621094 36.617187c-2.234374 2.238282-3.28125 5.40625-2.820312 8.535156.464844 3.132813 2.382812 5.859376 5.171875 7.351563l146.90625 78.65625-67.210937 74.246094c-3.222657 3.566406-8.160157 5.046875-12.8125 3.839843l-41.578126-10.722656c-14.246093-3.625-29.171874 2.585938-36.636718 15.25l-.078125.136719c-4.710938 8.042969-5.789063 17.707031-2.96875 26.589844 2.820312 8.882812 9.273437 16.15625 17.757812 20.011719l63.367188 28.800781c2.84375 1.292969 5.125 3.574219 6.417969 6.417969l28.800781 63.367187c7.085937 15.59375 24.945312 23.144531 41.070312 17.371094 16.125-5.773438 25.132813-22.945313 20.714844-39.492188l-11.289063-42.261719c-1.261718-4.679687.210938-9.675781 3.8125-12.917968l74.429688-67.382813 81.164062 149.976563c1.503907 2.777344 4.230469 4.679687 7.351563 5.136718 3.125.453126 6.28125-.59375 8.515625-2.824218l36.644531-36.648438c15.316407-15.339844 21.179688-37.742187 15.347657-58.621094l-43.183594-152.839843 47.667968-43.152344c.121094-.113281.242188-.226563.359376-.34375 17.699218-17.484375 24.679687-43.113281 18.289062-67.160156s-25.171875-42.828125-49.222656-49.214844c-24.046875-6.390625-49.671875.589844-67.15625 18.289063zm-265.164063 64.222656 27.09375-27.089844c10.222657-10.214844 25.160157-14.125 39.078125-10.230469l138.824219 39.539063-65.570313 72.429687zm339.160157 235.613281c3.882812 13.917969-.03125 28.84375-10.234376 39.066406l-27.167968 27.164063-77.105469-142.484375 74.023437-67.011719zm10.121093-216.058594-227.746093 206.179688c-9.171876 8.265625-12.925782 20.980469-9.710938 32.902343l11.289062 42.269532c1.488282 5.621094-.945312 11.546875-5.957031 14.492187-3.160156 1.847657-6.953125 2.273438-10.441406 1.167969-3.488281-1.109375-6.34375-3.644531-7.859375-6.976562l-28.800781-63.363282c-3.292969-7.246094-9.105469-13.054687-16.351563-16.347656l-63.367187-28.800781c-3.332031-1.511719-5.867188-4.367188-6.972657-7.859375-1.109374-3.488282-.683593-7.28125 1.167969-10.441406l.078125-.132813c2.335938-3.964844 6.59375-6.394531 11.191406-6.394531 1.082032 0 2.15625.136718 3.199219.40625l41.574219 10.722656c11.851562 3.078125 24.429688-.695312 32.628906-9.785156l206.269532-227.84375c19.3125-19.070313 50.398437-18.96875 69.585937.21875 19.191406 19.191406 19.289063 50.273437.222656 69.585937zm0 0"/></svg>