<svg height="392pt" viewBox="0 0 392.29867 392" width="392pt" xmlns="http://www.w3.org/2000/svg"><path d="m311.738281 11.433594-79.171875 58.664062c-6.761718 5-15.308594 6.941406-23.570312 5.351563l-134.945313-26.152344c-24.8125-4.789063-49.304687 9.675781-57.089843 33.714844l-.890626 2.746093c-1.449218 4.488282.433594 9.378907 4.515626 11.738282l120.070312 69.351562-70.90625 88.882813-10.160156-2.964844c-16.644532-4.925781-34.652344-.800781-47.5 10.871094l-8.785156 7.925781c-2.039063 1.839844-3.2304692 4.429688-3.30078175 7.171875-.07031245 2.742187.98828175 5.390625 2.92578175 7.328125l102.648437 102.648438c1.875 1.875 4.417969 2.925781 7.070313 2.925781h.257812c2.738281-.070313 5.332031-1.261719 7.167969-3.296875l7.925781-8.789063c11.675781-12.84375 15.796875-30.851562 10.875-47.5l-2.964844-10.15625 88.902344-70.917969 69.90625 120.65625c2.363281 4.070313 7.246094 5.945313 11.726562 4.5l2.75-.890624c24.039063-7.789063 38.5-32.277344 33.714844-57.089844l-26.160156-134.949219c-1.589844-8.257813.351562-16.804687 5.351562-23.566406l58.652344-79.160157c16.484375-19.386718 15.171875-48.21875-3.007812-66.023437-17.945313-17.847656-46.507813-19.152344-66.007813-3.019531zm53.589844 56.308594c-.15625.179687-.300781.363281-.441406.554687l-58.855469 79.429687c-8.332031 11.269532-11.566406 25.515626-8.914062 39.277344l26.152343 134.949219c2.503907 13.003906-3.800781 26.113281-15.519531 32.277344l-65.640625-113.289063c-2.917969-5.035156-7.882813-8.550781-13.601563-9.628906-5.722656-1.074219-11.625.390625-16.175781 4.023438l-94.140625 75.097656c-3.171875 2.53125-4.5 6.726562-3.363281 10.621094l4.84375 16.601562c2.957031 9.984375.484375 20.789062-6.519531 28.5l-.875.96875-87.761719-87.761719.96875-.875c7.710937-7.003906 18.515625-9.476562 28.5-6.523437l16.601563 4.84375c3.894531 1.136718 8.089843-.191406 10.621093-3.363282l75.089844-94.125c3.632813-4.554687 5.097656-10.464843 4.015625-16.1875-1.082031-5.726562-4.605469-10.691406-9.648438-13.605468l-112.6875-65.085938c6.164063-11.71875 19.273438-18.015625 32.273438-15.511718l134.945312 26.152343c13.765626 2.652344 28.011719-.582031 39.28125-8.914062l79.429688-58.855469c.179688-.132812.359375-.273438.53125-.421875 11.527344-9.65625 28.523438-8.917969 39.171875 1.703125 11.003906 11.007812 11.726563 27.472656 1.71875 39.148438zm0 0"/></svg>