<svg height="482pt" viewBox="0 -66 482.01331 482" width="482pt" xmlns="http://www.w3.org/2000/svg"><path d="m450.800781 5.855469c-7.816406-7.796875-20.46875-7.796875-28.285156 0l-108.289063 108.289062c-9.601562-6.644531-21.050781-10.09375-32.722656-9.863281-15.285156.246094-29.863281 6.476562-40.601562 17.351562l-196.742188 200.171876c-.648437-.808594-1.324218-1.664063-2.039062-2.578126-6.363282-8.15625-15.074219-19.324218-32.121094-19.324218-5.523438 0-10 4.476562-10 10 0 5.523437 4.476562 10 10 10 6.957031 0 10.394531 3.988281 16.355469 11.625 6.289062 8.0625 14.898437 19.101562 31.597656 19.101562 17.042969 0 25.761719-11.167968 32.121094-19.324218 5.847656-7.492188 9.207031-11.398438 15.832031-11.398438 6.957031 0 10.394531 3.988281 16.355469 11.625 6.289062 8.0625 14.898437 19.101562 31.597656 19.101562 17.042969 0 25.757813-11.167968 32.121094-19.324218 5.847656-7.492188 9.207031-11.398438 15.832031-11.398438 6.957031 0 10.390625 3.984375 16.351562 11.625 6.292969 8.0625 14.902344 19.101563 31.601563 19.101563 17.042969 0 25.757813-11.167969 32.121094-19.324219 5.847656-7.492188 9.207031-11.402344 15.832031-11.402344 6.957031 0 10.390625 3.988282 16.351562 11.628906 6.289063 8.058594 14.902344 19.097657 31.601563 19.097657 17.042969 0 25.757813-11.167969 32.121094-19.320313 5.847656-7.496094 9.203125-11.402344 15.828125-11.402344 5.523437 0 10-4.476562 10-10 0-5.523437-4.476563-10-10-10-16.695313 0-25.308594 11.039063-31.597656 19.101563-5.960938 7.640625-9.402344 11.625-16.355469 11.625-6.625 0-9.984375-3.910156-15.828125-11.398437-5.09375-6.53125-11.699219-14.984376-22.875-18.101563l56.78125-56.78125c20.75-20.804687 22.679687-53.835937 4.492187-76.914063l107.925781-107.945312c7.796876-7.816406 7.796876-20.46875 0-28.285156zm-384.566406 322.023437 5.277344-5.367187c-1.550781 1.984375-3.320313 3.785156-5.277344 5.367187zm281.054687-167.792968c-3.90625 3.90625-3.90625 10.238281 0 14.144531l2.304688 2.304687c14.796875 14.828125 14.796875 38.839844 0 53.667969l-100.398438 100.402344c-6.25-.222657-9.589843-4.109375-15.265624-11.382813-6.363282-8.152344-15.074219-19.320312-32.121094-19.320312-16.695313 0-25.308594 11.039062-31.597656 19.097656-5.964844 7.640625-9.402344 11.625-16.355469 11.625-6.625 0-9.984375-3.90625-15.832031-11.398438-6.363282-8.15625-15.074219-19.324218-32.121094-19.324218-5.789063-.070313-11.488282 1.445312-16.476563 4.382812l165.675781-168.574218c14.800782-14.796876 38.429688-15.238282 52.683594-.984376 3.90625 3.90625 10.238282 3.90625 14.144532 0l78.28125-78.277343 25.355468 25.363281zm92.421876-92.421876-25.359376-25.359374 22.304688-22.308594 25.363281 25.363281zm0 0"/></svg>