<svg height="470pt" viewBox="0 -66 470.63663 470" width="470pt" xmlns="http://www.w3.org/2000/svg"><path d="m460.640625 239.261719h-24.390625c-2.402344-46.832031-23.09375-90.445313-58.875-123.652344-27.503906-25.382813-61.453125-42.71875-98.140625-50.113281v-19.601563c0-25.171875-20.402344-45.578125-45.574219-45.578125s-45.578125 20.40625-45.578125 45.578125v20.320313c-35.433593 7.742187-68.164062 24.796875-94.816406 49.398437-35.785156 33.207031-56.472656 76.816407-58.875 123.648438h-24.390625c-3.421875 0-6.605469 1.75-8.4375 4.636719-1.835938 2.886718-2.070312 6.507812-.617188 9.605468l22.261719 47.527344c.035157.074219.074219.152344.109375.226562 11.289063 22.773438 34.546875 37.148438 59.964844 37.0625h304.074219c25.417969.085938 48.675781-14.289062 59.964843-37.0625.035157-.074218.074219-.152343.109376-.226562l22.261718-47.527344c1.453125-3.097656 1.21875-6.71875-.617187-9.605468-1.832031-2.886719-5.015625-4.636719-8.4375-4.636719zm-252.558594-193.367188c0-14.125 11.453125-25.574219 25.578125-25.574219s25.574219 11.449219 25.574219 25.574219v16.46875c-17.007813-1.863281-34.175781-1.730469-51.152344.394531zm-101.210937 84.375c34.199218-31.734375 79.816406-49.210937 128.449218-49.210937 48.632813 0 94.25 17.476562 128.449219 49.210937 31.648438 29.371094 50.050781 67.78125 52.441407 108.992188h-361.78125c2.390624-41.210938 20.789062-79.621094 52.441406-108.992188zm322.507812 162.152344c-7.945312 15.921875-24.230468 25.957031-42.023437 25.898437h-304.074219c-17.792969.058594-34.078125-9.976562-42.019531-25.898437l-15.535157-33.160156h419.1875zm0 0"/></svg>