<svg height="454pt" viewBox="0 -8 454.8965 454" width="454pt" xmlns="http://www.w3.org/2000/svg"><path d="m394.332031 24.261719c-3.542969-4.238281-9.847656-4.800781-14.085937-1.261719-4.238282 3.542969-4.804688 9.847656-1.261719 14.085938l31.742187 37.984374c-21.707031-3.6875-43.058593 8.210938-51.335937 28.613282-8.277344 20.40625-1.253906 43.820312 16.890625 56.292968 18.144531 12.476563 42.519531 10.65625 58.609375-4.375v99.847657c.058594 9.652343-5.058594 18.597656-13.410156 23.441406-8.351563 4.84375-18.65625 4.84375-27.007813 0-8.351562-4.84375-13.464844-13.789063-13.40625-23.441406v-30.039063c-.027344-22.988281-18.65625-41.617187-41.640625-41.640625h-32.1875v-140.4375c-.027343-23.675781-19.210937-42.855469-42.882812-42.882812h-221.472657c-23.671874.027343-42.8554682 19.207031-42.882812 42.882812v384.117188c0 5.523437 4.476562 10 10 10h287.246094c5.523437 0 10-4.476563 10-10v-223.679688h32.183594c11.945312.011719 21.628906 9.695313 21.640624 21.640625v30.039063c-.078124 16.8125 8.847657 32.378906 23.394532 40.808593 14.546875 8.425782 32.492187 8.425782 47.039062 0 14.546875-8.429687 23.46875-23.996093 23.390625-40.808593v-138.066407c-.035156-14.367187-5.441406-28.199218-15.15625-38.789062zm-107.085937 393.1875h-267.246094v-374.117188c.015625-12.632812 10.25-22.871093 22.882812-22.882812h221.476563c12.632813.011719 22.871094 10.246093 22.886719 22.882812zm115.664062-269.214844c-14.863281 0-26.914062-12.046875-26.914062-26.914063 0-14.863281 12.050781-26.910156 26.914062-26.910156 14.863282-.003906 26.914063 12.046875 26.914063 26.910156-.019531 14.855469-12.058594 26.898438-26.914063 26.914063zm0 0"/><path d="m233.46875 51.9375h-159.703125c-16.558594.019531-29.980469 13.441406-30 30v134.035156c0 5.523438 4.480469 10 10 10h199.703125c5.519531 0 10-4.476562 10-10v-134.035156c-.019531-16.558594-13.441406-29.980469-30-30zm10 154.035156h-179.699219v-124.035156c.007813-5.519531 4.480469-9.992188 10-10h159.703125c5.519532.007812 9.992188 4.480469 10 10zm0 0"/><path d="m159.316406 98.65625c-3.90625-3.90625-10.238281-3.90625-14.144531 0l-18.652344 18.652344c-10.484375 10.453125-13.628906 26.195312-7.972656 39.875 5.660156 13.679687 19.007813 22.597656 33.8125 22.589844h.3125c9.550781-.015626 18.695313-3.886719 25.355469-10.730469 14.226562-14.320313 14.199218-37.441407-.054688-51.730469zm4.511719 56.300781c-.039063.039063-.074219.078125-.113281.113281-2.949219 3.019532-6.992188 4.714844-11.207032 4.703126-4.433593.042968-8.703124-1.691407-11.847656-4.816407-6.421875-6.519531-6.421875-16.984375 0-23.5l11.585938-11.589843 11.582031 11.582031c6.375 6.539062 6.375 16.964843 0 23.507812zm0 0"/></svg>