<svg height="487pt" viewBox="0 -95 487.89903 487" width="487pt" xmlns="http://www.w3.org/2000/svg"><path d="m380.074219 60.167969-30.21875-40.480469c-.148438-.199219-.308594-.394531-.472657-.582031-10.28125-11.945313-25.292968-18.765625-41.050781-18.65625h-128.859375c-15.757812-.109375-30.769531 6.710937-41.050781 18.65625-.164063.1875-.324219.382812-.472656.582031l-30.21875 40.480469c-53.058594 4.96875-96.3125 44.660156-105.824219 97.089843-9.507812 52.433594 17.054688 104.785157 64.984375 128.074219 47.929687 23.289063 105.503906 11.816407 140.847656-28.066406h72.328125c35.339844 39.925781 92.941406 51.429687 140.90625 28.136719 47.960938-23.292969 74.539063-75.675782 65.015625-128.136719-9.527343-52.460937-52.824219-92.15625-105.914062-97.097656zm-226.335938-28.195313c6.503907-7.390625 15.890625-11.59375 25.734375-11.519531h128.859375c9.839844-.074219 19.230469 4.128906 25.734375 11.519531l20.664063 27.683594h-221.65625zm215.351563 245.308594c-29.726563.027344-57.886719-13.320312-76.679688-36.351562-1.902344-2.316407-4.738281-3.660157-7.734375-3.660157h-81.546875c-2.996094 0-5.832031 1.34375-7.730468 3.660157-29.042969 35.65625-78.835938 46.578124-120.132813 26.34375-41.296875-20.230469-63.191406-66.269532-52.8125-111.070313 10.375-44.800781 50.273437-76.527344 96.261719-76.546875h250.375c54.570312 0 98.8125 44.238281 98.8125 98.8125s-44.242188 98.8125-98.8125 98.8125zm0 0"/><path d="m146.589844 167.492188h-23.730469v-23.726563c0-5.523437-4.476563-10-10-10s-10 4.476563-10 10v23.730469h-23.730469c-5.523437 0-10 4.480468-10 10 0 5.523437 4.476563 10 10 10h23.730469v23.734375c0 5.519531 4.476563 10 10 10s10-4.480469 10-10v-23.738281h23.730469c5.523437 0 10-4.476563 10-10 0-5.523438-4.476563-10-10-10zm0 0"/><path d="m368.601562 102.109375c-13.335937 0-24.148437 10.8125-24.148437 24.148437 0 13.335938 10.8125 24.148438 24.148437 24.148438 13.339844 0 24.152344-10.8125 24.152344-24.148438-.015625-13.332031-10.820312-24.132812-24.152344-24.148437zm0 28.296875c-2.289062 0-4.148437-1.855469-4.148437-4.148438 0-2.292968 1.859375-4.148437 4.148437-4.148437 2.292969 0 4.152344 1.855469 4.152344 4.148437-.003906 2.292969-1.859375 4.148438-4.152344 4.152344zm0 0"/><path d="m368.601562 199.699219c-13.335937 0-24.148437 10.8125-24.148437 24.148437 0 13.335938 10.8125 24.148438 24.148437 24.148438 13.339844 0 24.152344-10.8125 24.152344-24.148438-.015625-13.332031-10.820312-24.132812-24.152344-24.148437zm0 28.296875c-2.289062 0-4.148437-1.855469-4.148437-4.148438 0-2.292968 1.859375-4.148437 4.148437-4.148437 2.292969 0 4.152344 1.855469 4.152344 4.148437-.003906 2.292969-1.859375 4.148438-4.152344 4.148438zm0 0"/><path d="m417.402344 150.902344c-13.339844 0-24.152344 10.8125-24.152344 24.152344 0 13.335937 10.8125 24.148437 24.152344 24.148437s24.152344-10.8125 24.148437-24.148437c-.011719-13.332032-10.816406-24.136719-24.148437-24.152344zm0 28.300781c-2.292969 0-4.152344-1.859375-4.152344-4.152344 0-2.289062 1.859375-4.148437 4.152344-4.148437 2.292968 0 4.148437 1.855468 4.148437 4.148437s-1.855469 4.148438-4.148437 4.152344zm0 0"/><path d="m319.808594 150.902344c-13.339844 0-24.152344 10.8125-24.152344 24.152344 0 13.335937 10.8125 24.148437 24.152344 24.148437 13.335937 0 24.148437-10.8125 24.148437-24.148437-.015625-13.332032-10.816406-24.136719-24.148437-24.152344zm0 28.300781c-2.292969 0-4.152344-1.859375-4.152344-4.152344 0-2.289062 1.855469-4.148437 4.148438-4.148437 2.292968 0 4.152343 1.855468 4.152343 4.148437s-1.859375 4.148438-4.148437 4.152344zm0 0"/></svg>