<svg height="440pt" viewBox="-6 0 440 440" width="440pt" xmlns="http://www.w3.org/2000/svg"><path d="m377.097656 125.628906h-50.8125c2.363282-6.753906 3.582032-13.855468 3.597656-21.011718-.039062-34.917969-28.335937-63.214844-63.253906-63.253907-17.347656.128907-33.902344 7.269531-45.898437 19.800781-1.300781-16.882812-8.316407-32-20.132813-43.027343-12.539062-11.695313-29.605468-18.136719-48.058594-18.136719-37.730468 0-68.425781 33.015625-68.425781 73.601562-.109375 19.207032 6.957031 37.761719 19.8125 52.03125h-53.925781c-27.601562.03125-49.96875 22.398438-50 50v72.726563c0 5.523437 4.476562 10 10 10h15.847656v131.640625c.03125 27.601562 22.398438 49.96875 50 50h270.226563c27.601562-.03125 49.96875-22.398438 50-50v-131.644531h21.023437c5.523438 0 10-4.476563 10-10v-72.726563c-.03125-27.601562-22.398437-49.96875-50-50zm-110.472656-64.265625c23.878906.023438 43.230469 19.375 43.253906 43.253907-.023437 7.335937-1.855468 14.550781-5.328125 21.011718h-83.585937v-17.527344c.800781-1.367187 1.265625-2.902343 1.355468-4.484374 1.273438-22.902344 21.5625-42.253907 44.304688-42.253907zm-162.511719 12.238281c0-29.554687 21.722657-53.601562 48.425781-53.601562 13.371094 0 25.59375 4.53125 34.410157 12.757812 9.167969 8.554688 14.015625 20.351563 14.015625 34.117188v58.753906h-61.167969l.03125-.101562c-20.695313-6.039063-35.714844-27.878906-35.714844-51.925782zm-84.113281 102.027344c.019531-16.5625 13.4375-29.980468 30-30h150.964844v92.726563h-180.964844zm356.074219 214.371094c-.019531 16.5625-13.4375 29.980469-30 30h-270.226563c-16.558594-.019531-29.980468-13.4375-30-30v-131.644531h330.226563zm31.023437-151.644531h-186.132812v-92.726563h156.132812c16.5625.019532 29.980469 13.4375 30 30zm0 0"/></svg>