<svg height="454pt" viewBox="-1 0 454 454.42222" width="454pt" xmlns="http://www.w3.org/2000/svg"><path d="m439.058594 304.980469-192.789063 64.074219c-11.515625-21.804688-35.539062-33.960938-59.925781-30.320313l-91.65625-279.253906c-4.988281-15.15625-18.507812-25.894531-34.398438-27.320313l-49.179687-4.441406c-5.5-.496094-10.359375 3.5625-10.859375 9.0625-.496094 5.5 3.5625 10.359375 9.0625 10.859375l49.179688 4.4375c7.941406.707031 14.703124 6.074219 17.199218 13.648437l91.679688 279.328126c-25.972656 13.949218-37.394532 45.132812-26.574219 72.558593 10.820313 27.429688 40.457031 42.414063 68.957031 34.875 28.503906-7.539062 46.851563-35.21875 42.695313-64.410156l192.917969-64.117187c5.238281-1.742188 8.078124-7.402344 6.335937-12.644532-1.742187-5.242187-7.40625-8.078125-12.644531-6.335937zm-244.148438 129.347656c-21.050781 0-38.113281-17.0625-38.113281-38.113281 0-21.050782 17.0625-38.117188 38.113281-38.117188 21.050782 0 38.117188 17.066406 38.117188 38.117188-.023438 21.039062-17.074219 38.089844-38.117188 38.113281zm0 0"/><path d="m221.652344 280.621094c3.214844 10.191406 10.382812 18.667968 19.898437 23.53125 9.515625 4.867187 20.582031 5.714844 30.726563 2.351562l116.484375-38.332031c20.78125-6.914063 32.183593-29.210937 25.617187-50.105469l-60.414062-190.175781c-3.234375-10.179687-10.402344-18.644531-19.914063-23.503906-9.507812-4.863281-20.566406-5.722657-30.710937-2.382813l-116.484375 38.335938c-20.78125 6.914062-32.183594 29.210937-25.617188 50.105468zm160.859375-31.449219-116.484375 38.335937c-5.074219 1.667969-10.605469 1.238282-15.359375-1.191406-4.753907-2.433594-8.339844-6.664062-9.957031-11.757812l-44.285157-139.398438 154.484375-50.84375 44.414063 139.800782c3.28125 10.449218-2.417969 21.601562-12.8125 25.054687zm-189.402344-189.835937 116.480469-38.332032c5.074218-1.667968 10.601562-1.242187 15.359375 1.191406 4.753906 2.429688 8.339843 6.660157 9.953125 11.75l9.949218 31.308594-154.484374 50.839844-10.070313-31.703125c-3.28125-10.449219 2.421875-21.597656 12.8125-25.054687zm0 0"/></svg>