<svg height="459pt" viewBox="0 -14 459.437 459" width="459pt" xmlns="http://www.w3.org/2000/svg"><path d="m394.382812 16.695312c-.097656-.175781-.199218-.347656-.300781-.515624-6.199219-9.957032-17.117187-15.996094-28.847656-15.960938h-271.035156c-11.730469-.035156-22.644531 6.003906-28.84375 15.960938-.105469.167968-.207031.339843-.300781.515624l-63.828126 116.726563c-.804687 1.46875-1.226562 3.121094-1.226562 4.796875v242.140625c.03125 27.601563 22.398438 49.96875 50 50h359.4375c27.601562-.03125 49.96875-22.398437 50-50v-242.140625c0-1.675781-.421875-3.328125-1.226562-4.800781zm-17.386718 9.894532 55.574218 101.628906h-189.921874v-108h122.585937c4.75-.015625 9.179687 2.386719 11.761719 6.371094zm-294.554688 0c2.582032-3.984375 7.011719-6.382813 11.757813-6.367188h128.449219v108h-195.785157zm188.644532 383.769531h-88.597657v-175.179687l88.597657 60.5zm138.351562 0h-118.351562v-119.957031c0-3.304688-1.632813-6.394532-4.359376-8.257813l-108.601562-74.164062c-3.0625-2.089844-7.03125-2.316407-10.308594-.582031-3.277344 1.730468-5.332031 5.132812-5.332031 8.84375v194.117187h-112.484375c-16.5625-.019531-29.980469-13.441406-30-30v-232.140625h419.4375v232.140625c-.019531 16.558594-13.441406 29.980469-30 30zm0 0"/></svg>