<svg height="454pt" viewBox="-30 0 454 454.858" width="454pt" xmlns="http://www.w3.org/2000/svg"><path d="m385.296875 0h-374.867187c-5.523438 0-10 4.476562-10 10v130.492188c0 5.523437 4.476562 10 10 10h129.980468v254.367187c.03125 27.601563 22.398438 49.96875 50 50h14.902344c27.601562-.03125 49.96875-22.398437 50-50v-254.367187h129.984375c5.519531 0 10-4.476563 10-10v-130.492188c0-5.523438-4.476563-10-10-10zm-146.328125 20-41.105469 41.105469-41.101562-41.101563h82.203125zm-218.539062 0h108.042968l55.246094 55.246094-55.246094 55.246094h-108.042968zm136.332031 110.492188 41.101562-41.101563 41.101563 41.101563zm48.554687 304.367187h-14.898437c-16.5625-.019531-29.980469-13.441406-30-30v-96.589844h74.898437v96.589844c-.015625 16.5625-13.441406 29.980469-30.003906 30zm30-146.589844h-74.898437v-137.777343h74.898437zm139.980469-157.777343h-108.042969l-55.246094-55.246094 55.246094-55.246094h108.042969zm0 0"/></svg>