<svg height="404pt" viewBox="-11 0 404 404.147" width="404pt" xmlns="http://www.w3.org/2000/svg"><path d="m351.78125.414062h-25.953125c-14.089844.023438-26.273437 9.832032-29.300781 23.59375l-68.117188-7.949218c-24.015625-2.796875-48.277344-2.78125-72.289062.050781l-70.617188 8.339844c-2.683594-14.167969-15.054687-24.4296878-29.476562-24.449219h-25.953125c-16.5625.0195312-29.980469 13.4375-30.0000002 30v123.511719c.0195312 16.558593 13.4375002 29.980469 30.0000002 30h25.953125c14.160156-.019531 26.386718-9.921875 29.34375-23.769531l48.183594 5.503906v182.394531c0 31.15625 25.796874 56.507813 57.503906 56.507813 31.707031 0 57.507812-25.351563 57.507812-56.507813v-182.078125l47.910156-5.441406c2.949219 13.863281 15.183594 23.785156 29.355469 23.800781h25.953125c16.558594-.019531 29.980469-13.4375 30-30v-123.507813c-.023437-16.558593-13.441406-29.980468-30.003906-30zm-193.316406 35.558594c22.464844-2.652344 45.160156-2.667968 67.625-.046875l69.738281 8.136719v96.011719l-70.738281 8.03125c-21.808594 2.46875-43.824219 2.460937-65.632813-.023438l-73.429687-8.394531v-95.160156zm-92.4375 117.539063c-.007813 5.519531-4.480469 9.992187-10 10h-25.953125c-5.519531-.007813-9.996094-4.480469-10-10v-123.511719c.003906-5.519531 4.480469-9.992188 10-10h25.953125c5.519531.007812 9.992187 4.480469 10 10zm125.03125 230.632812c-20.332032 0-37.507813-16.714843-37.507813-36.503906v-102.855469h75.015625v102.855469c0 19.789063-17.175781 36.503906-37.507812 36.503906zm37.507812-159.359375h-75.015625v-57.253906l3.636719.414062c11.679688 1.335938 23.429688 2.003907 35.1875 2 11.683594.003907 23.359375-.65625 34.96875-1.972656l1.222656-.140625zm133.214844-70.859375c-.003906 5.519531-4.480469 9.992188-10 10h-25.953125c-5.519531-.007812-9.996094-4.480469-10-10v-123.511719c.003906-5.519531 4.480469-9.992187 10-10h25.953125c5.519531.007813 9.992188 4.480469 10 10zm0 0"/></svg>