<svg height="445pt" viewBox="-5 1 445 445.999" width="445pt" xmlns="http://www.w3.org/2000/svg"><path d="m217.84375 0c-119.84375 0-217.34375 97.5-217.34375 217.34375v122.128906c0 5.523438 4.476562 10 10 10s10-4.476562 10-10v-122.128906c0-108.816406 88.527344-197.34375 197.34375-197.34375s197.347656 88.527344 197.347656 197.34375v122.128906c0 5.523438 4.476563 10 10 10 5.519532 0 10-4.476562 10-10v-122.128906c0-119.84375-97.5-217.34375-217.347656-217.34375zm0 0"/><path d="m144.84375 262.636719h-56.785156c-24.902344.027343-45.082032 20.207031-45.109375 45.109375v92.753906c.0625 24.765625 20.035156 44.875 44.800781 45.109375l57.023438.390625h.070312c5.523438 0 10-4.476562 10-10v-163.363281c0-5.523438-4.476562-10-10-10zm-10 163.300781-46.953125-.320312c-13.789063-.128907-24.910156-11.328126-24.941406-25.117188v-92.753906c.015625-13.859375 11.25-25.09375 25.109375-25.109375h46.785156zm0 0"/><path d="m347.628906 262.636719h-45.707031c-5.523437 0-10 4.476562-10 10v162.734375c0 5.523437 4.476563 10 10 10h45.707031c24.902344-.027344 45.082032-20.207032 45.109375-45.109375v-92.515625c-.027343-24.902344-20.207031-45.082032-45.109375-45.109375zm25.117188 137.625c-.015625 13.863281-11.25 25.09375-25.109375 25.109375h-35.714844v-142.734375h35.710937c13.859376.015625 25.09375 11.25 25.109376 25.109375zm0 0"/></svg>