<svg height="488pt" viewBox="-115 0 488 488.99103" width="488pt" xmlns="http://www.w3.org/2000/svg"><path d="m129.15625 0c-71.023438.0820312-128.582031 57.636719-128.660156 128.660156 0 67.578125 52.371094 123.15625 118.660156 128.273438v67.265625c0 5.523437 4.476562 10 10 10 37.222656 0 67.398438 30.175781 67.398438 67.402343 0 37.222657-30.175782 67.398438-67.398438 67.398438-37.226562 0-67.402344-30.175781-67.402344-67.398438 0-5.523437-4.476562-10-10-10-5.519531 0-10 4.476563-10 10 .007813 46.96875 37.132813 85.535157 84.066406 87.324219 46.9375 1.792969 86.894532-33.832031 90.480469-80.664062 3.585938-46.832031-30.484375-88.121094-77.144531-93.496094v-57.832031c66.289062-5.117188 118.660156-60.695313 118.660156-128.273438-.082031-71.023437-57.636718-128.5781248-128.660156-128.660156zm0 237.320312c-60.011719 0-108.664062-48.648437-108.664062-108.660156 0-60.011718 48.652343-108.660156 108.664062-108.660156s108.660156 48.648438 108.660156 108.660156c-.070312 59.984375-48.675781 108.59375-108.660156 108.660156zm0 0"/><path d="m129.15625 70.730469c-31.996094 0-57.933594 25.9375-57.933594 57.929687 0 31.996094 25.9375 57.933594 57.933594 57.933594s57.929688-25.9375 57.929688-57.933594c-.035157-31.980468-25.949219-57.894531-57.929688-57.929687zm0 95.863281c-20.949219 0-37.933594-16.984375-37.933594-37.933594 0-20.949218 16.984375-37.933594 37.933594-37.933594s37.933594 16.984376 37.929688 37.933594c-.023438 20.941406-16.992188 37.910156-37.929688 37.933594zm0 0"/></svg>