<svg height="424pt" viewBox="0 -37 424.516 424" width="424pt" xmlns="http://www.w3.org/2000/svg"><path d="m374.515625 53.484375h-105v-43.226563c0-5.523437-4.476563-10-10-10h-94.515625c-5.523438 0-10 4.476563-10 10v43.226563h-105c-27.601562.03125-49.96875 22.398437-50 50v196.773437c.03125 27.601563 22.398438 49.96875 50 50h324.515625c27.601563-.03125 49.96875-22.398437 50-50v-196.773437c-.03125-27.601563-22.398437-49.96875-50-50zm-199.515625-33.226563h74.515625v43.226563c0 20.578125-16.679687 37.257813-37.257813 37.257813-20.578124 0-37.257812-16.679688-37.257812-37.257813zm229.515625 280c-.019531 16.5625-13.4375 29.980469-30 30h-324.515625c-16.5625-.019531-29.980469-13.4375-30-30v-196.773437c.019531-16.5625 13.4375-29.980469 30-30h105.894531c4.839844 27.335937 28.601563 47.261719 56.363281 47.261719 27.761719 0 51.523438-19.925782 56.363282-47.261719h105.894531c16.5625.019531 29.980469 13.4375 30 30zm0 0"/><path d="m180.320312 139.933594h-111.125c-5.523437 0-10 4.480468-10 10v132.128906c0 5.523438 4.476563 10 10 10h111.128907c5.523437 0 10-4.476562 10-10v-132.128906c0-5.523438-4.480469-10-10.003907-10zm-10 132.132812h-91.128906v-112.132812h91.128906zm0 0"/><path d="m350 239.773438h-105.804688c-5.523437 0-10 4.476562-10 10 0 5.523437 4.476563 10 10 10h105.804688c5.523438 0 10-4.476563 10-10 0-5.523438-4.476562-10-10-10zm0 0"/><path d="m244.195312 195.902344h55.804688c5.523438 0 10-4.476563 10-10 0-5.523438-4.476562-10-10-10h-55.804688c-5.523437 0-10 4.476562-10 10 0 5.523437 4.476563 10 10 10zm0 0"/></svg>