<svg height="460pt" viewBox="-68 0 460 460" width="460pt" xmlns="http://www.w3.org/2000/svg"><path d="m274.515625 53.226562h-55v-43.226562c0-5.523438-4.476563-10-10-10h-94.515625c-5.523438 0-10 4.476562-10 10v43.226562h-55c-27.601562.03125-49.96875 22.398438-50 50v306.773438c.03125 27.601562 22.398438 49.96875 50 50h224.515625c27.601563-.03125 49.96875-22.398438 50-50v-306.773438c-.03125-27.601562-22.398437-49.96875-50-50zm-149.515625-33.226562h74.515625v43.226562c0 20.578126-16.679687 37.257813-37.257813 37.257813-20.578124 0-37.257812-16.679687-37.257812-37.257813zm179.515625 390c-.019531 16.5625-13.4375 29.980469-30 30h-224.515625c-16.5625-.019531-29.980469-13.4375-30-30v-306.773438c.019531-16.5625 13.4375-29.980468 30-30h55.894531c4.839844 27.335938 28.601563 47.261719 56.363281 47.261719 27.761719 0 51.523438-19.925781 56.363282-47.261719h55.894531c16.5625.019532 29.980469 13.4375 30 30zm0 0"/><path d="m217.820312 139.675781h-111.125c-5.523437 0-10 4.476563-10 10v132.128907c0 5.523437 4.476563 10 10 10h111.128907c5.523437 0 10-4.476563 10-10v-132.128907c0-5.523437-4.480469-10-10.003907-10zm-10 132.132813h-91.128906v-112.132813h91.128906zm0 0"/><path d="m215.15625 379.515625h-105.796875c-5.523437 0-10 4.476563-10 10s4.476563 10 10 10h105.796875c5.523438 0 10-4.476563 10-10s-4.476562-10-10-10zm0 0"/><path d="m190.15625 345.644531c5.523438 0 10-4.476562 10-10 0-5.523437-4.476562-10-10-10h-55.796875c-5.523437 0-10 4.476563-10 10 0 5.523438 4.476563 10 10 10zm0 0"/></svg>