<svg height="486pt" viewBox="-91 0 486 486" width="486pt" xmlns="http://www.w3.org/2000/svg"><path d="m149.632812 100.117188c-30.5.488281-59.601562 13.058593-81.941406 35.398437-22.339844 22.34375-34.90625 51.4375-35.398437 81.945313-.492188 31.582031 10.972656 61.289062 32.292969 83.648437 15.027343 15.835937 23.253906 36.929687 22.921874 58.757813h-2.109374c-5.523438 0-10 4.476562-10 10 0 5.523437 4.476562 10 10 10h133.800781c5.523437 0 10-4.476563 10-10 0-5.523438-4.476563-10-10-10h-4.8125c-.582031-21.566407 7.402343-41.574219 23.375-58.292969l.09375-.101563c20.890625-22.207031 32.566406-51.523437 32.667969-82.011718.015624-31.925782-12.765626-62.527344-35.484376-84.957032-22.71875-22.429687-53.484374-34.816406-85.40625-34.386718zm73.621094 187.683593c-19.351562 20.273438-29.382812 45.515625-28.863281 72.058594h-32.75v-94.488281c6.179687 3.566406 9.988281 10.15625 10 17.292968 0 5.523438 4.476563 10 10 10 5.519531 0 10-4.476562 10-10 0-22.089843-17.910156-40-40-40-22.09375 0-40 17.910157-40 40 0 5.523438 4.476563 10 10 10 5.519531 0 10-4.476562 10-10 .007813-7.136718 3.820313-13.726562 10-17.292968v94.492187h-34.132813c.308594-26.964843-9.894531-52.992187-28.445312-72.5625-17.671875-18.535156-27.179688-43.226562-26.765625-69.527343.832031-52.097657 45.554687-96.824219 97.648437-97.660157 26.5625-.34375 52.160157 9.972657 71.058594 28.644531 18.902344 18.667969 29.535156 44.132813 29.515625 70.703126-.105469 25.410156-9.847656 49.835937-27.265625 68.339843zm0 0"/><path d="m151.640625 66.136719c5.519531 0 10-4.476563 10-10v-46.136719c0-5.523438-4.480469-10-10-10-5.523437 0-10 4.476562-10 10v46.136719c0 5.523437 4.476563 10 10 10zm0 0"/><path d="m286.410156 65.0625-33.21875 31.375c-2.625 2.445312-3.742187 6.113281-2.917968 9.605469.820312 3.496093 3.453124 6.28125 6.894531 7.300781 3.441406 1.019531 7.164062.117188 9.757812-2.367188l33.214844-31.375c2.625-2.449218 3.742187-6.113281 2.917969-9.609374-.820313-3.492188-3.453125-6.28125-6.894532-7.300782-3.441406-1.019531-7.164062-.113281-9.757812 2.367188zm0 0"/><path d="m41.839844 109.554688c4.03125 0 7.667968-2.421876 9.226562-6.140626 1.554688-3.71875.726563-8.007812-2.105468-10.878906l-31.839844-32.296875c-3.875-3.933593-10.207032-3.980469-14.140625-.101562-3.933594 3.875-3.980469 10.207031-.101563 14.140625l31.832032 32.300781c1.878906 1.910156 4.449218 2.980469 7.128906 2.976563zm0 0"/><path d="m200.855469 406h-98.433594c-5.523437 0-10 4.476562-10 10v40c.019531 16.5625 13.441406 29.980469 30 30h58.433594c16.558593-.019531 29.980469-13.4375 30-30v-40c0-5.523438-4.476563-10-10-10zm-10 50c-.007813 5.519531-4.480469 9.992188-10 10h-58.433594c-5.519531-.007812-9.992187-4.480469-10-10v-30h78.433594zm0 0"/></svg>