<svg height="407pt" viewBox="-14 0 407 407" width="407pt" xmlns="http://www.w3.org/2000/svg"><path d="m51.140625 72.023438h276.132813c5.523437 0 10-4.480469 10-10 0-5.523438-4.476563-10-10-10h-276.132813c-5.523437 0-10 4.476562-10 10 0 5.519531 4.476563 10 10 10zm0 0"/><path d="m96.789062 20h184.835938c5.523438 0 10-4.476562 10-10s-4.476562-10-10-10h-184.835938c-5.523437 0-10 4.476562-10 10s4.476563 10 10 10zm0 0"/><path d="m152.582031 263.105469c31.199219 0 56.492188-25.292969 56.492188-56.492188 0-31.203125-25.292969-56.496093-56.492188-56.496093-31.199219.003906-56.492187 25.296874-56.492187 56.496093.035156 31.183594 25.304687 56.457031 56.492187 56.492188zm0-92.984375c20.152344 0 36.492188 16.335937 36.492188 36.492187 0 20.152344-16.335938 36.492188-36.492188 36.492188s-36.492187-16.335938-36.492187-36.492188c.023437-20.144531 16.347656-36.46875 36.492187-36.492187zm0 0"/><path d="m337.09375 105h-294.863281c-23.3125.027344-42.2031252 18.917969-42.230469 42.230469v217.542969c.0273438 23.308593 18.917969 42.199218 42.230469 42.226562h294.863281c23.3125-.027344 42.203125-18.917969 42.230469-42.230469v-217.539062c-.027344-23.3125-18.917969-42.203125-42.230469-42.230469zm-294.863281 20h294.863281c12.269531.015625 22.214844 9.957031 22.230469 22.230469v152.726562l-44.679688-63.300781c-7.835937-11.101562-20.539062-17.753906-34.128906-17.875-13.589844-.117188-26.40625 6.3125-34.4375 17.277344l-54.871094 74.914062c-7.023437 9.636719-20.40625 11.992188-30.300781 5.339844l-41.019531-27.453125c-14.132813-9.476563-32.574219-9.535156-46.761719-.140625l-53.125 35.480469v-176.96875c.015625-12.273438 9.957031-22.214844 22.230469-22.230469zm294.863281 262h-294.863281c-12.273438-.015625-22.214844-9.957031-22.230469-22.230469v-16.523437l64.179688-42.863282c7.464843-4.929687 17.160156-4.890624 24.585937.09375l41.019531 27.453126c18.792969 12.632812 44.214844 8.15625 57.554688-10.144532l54.871094-74.914062c4.226562-5.773438 10.972656-9.15625 18.128906-9.09375 7.152344.0625 13.839844 3.566406 17.964844 9.410156l61.019531 86.453125v30.128906c-.015625 12.273438-9.957031 22.214844-22.230469 22.230469zm0 0"/></svg>