<svg height="476pt" viewBox="0 -41 476 476" width="476pt" xmlns="http://www.w3.org/2000/svg"><path d="m419.765625 33.144531c-7.144531-19.859375-25.96875-33.1093748-47.074219-33.144531h-269.382812c-21.140625.0429688-39.980469 13.335938-47.109375 33.234375l-55.648438 160.414063c-.363281 1.050781-.550781 2.160156-.550781 3.277343v147.742188c.03125 27.601562 22.398438 49.96875 50 50h376c27.601562-.03125 49.96875-22.398438 50-50v-148.742188c0-1.125-.1875-2.238281-.558594-3.300781zm-344.699219 6.742188c4.285156-11.914063 15.582032-19.867188 28.242188-19.886719h269.382812c12.636719.011719 23.914063 7.929688 28.21875 19.8125l51.394532 147.222656h-60.75v-51.921875c0-5.523437-4.476563-10-10-10h-18.148438v-57.558593c0-5.523438-4.476562-10-10-10h-225.183594c-5.523437 0-10 4.476562-10 10v57.558593h-23.777344c-5.523437 0-10 4.476563-10 10v51.921875h-60.429687zm268.34375 85.226562h-205.1875v-47.558593h205.183594v47.558593zm28.148438 20v41.921875h-35.039063c-4.753906.011719-8.847656 3.359375-9.800781 8.015625-3.332031 13.492188-9.144531 26.25-17.144531 37.613281-16.960938 23.890626-40.851563 36-71.007813 36-30.160156 0-54.050781-12.109374-71.007812-36-7.996094-11.359374-13.808594-24.105468-17.144532-37.589843-.933593-4.675781-5.039062-8.039063-9.804687-8.039063h-36.164063v-41.921875zm84.441406 199.554688c-.019531 16.558593-13.4375 29.980469-30 30h-376c-16.5625-.019531-29.980469-13.441407-30-30v-137.632813h112.945312c4.058594 13.015625 10.074219 25.339844 17.835938 36.546875 14.402344 20.566407 41.3125 45.082031 87.78125 45.082031s73.386719-24.515624 87.78125-45.082031c7.765625-11.207031 13.777344-23.53125 17.835938-36.546875h111.820312zm0 0"/></svg>