<svg height="471pt" viewBox="0 -43 471.938 471" width="471pt" xmlns="http://www.w3.org/2000/svg"><path d="m431.378906 111.554688c-7.667968-18.785157-25.960937-31.046876-46.25-31h-10.097656v-40.085938c-.027344-22.082031-17.921875-39.976562-40-40h-198.121094c-22.082031.023438-39.976562 17.917969-40 40v40.089844h-10.101562c-20.289063-.046875-38.578125 12.214844-46.246094 31l-39.8125 96.878906c-.496094 1.207031-.75 2.496094-.75 3.800781v122.230469c.03125 27.601562 22.398438 49.96875 50 50h371.9375c27.601562-.03125 49.96875-22.398438 50-50v-122.234375c0-1.304687-.253906-2.59375-.75-3.800781zm-46.25-11c12.175782-.027344 23.148438 7.328124 27.75 18.597656l34.140625 83.078125h-71.992187v-101.671875zm-248.21875-80.085938h198.117188c11.039062.011719 19.988281 8.960938 20 20v161.765625h-55.324219c-5.523437 0-10 4.476563-10 10v20.558594c-.019531 16.5625-13.4375 29.980469-30 30h-47.46875c-16.5625-.019531-29.984375-13.4375-30-30v-20.558594c0-5.523437-4.480469-10-10-10h-55.324219v-161.765625c.011719-11.039062 8.957032-19.988281 20-20zm-77.851562 98.6875c4.597656-11.273438 15.574218-18.628906 27.746094-18.601562h10.101562v101.679687h-71.988281zm362.878906 245.3125h-371.941406c-16.558594-.019531-29.980469-13.4375-30-30v-112.234375h142.234375v10.558594c.03125 27.601562 22.398437 49.96875 50 50h47.472656c27.601563-.03125 49.96875-22.398438 50-50v-10.558594h142.234375v112.234375c-.019531 16.5625-13.4375 29.980469-30 30zm0 0"/></svg>