<svg height="430pt" viewBox="0 -24 430 430" width="430pt" xmlns="http://www.w3.org/2000/svg"><path d="m361.746094 25.632812c-6-15.402343-20.804688-25.5664058-37.332032-25.632812h-218.828124c-16.527344.0664062-31.332032 10.230469-37.332032 25.632812l-67.585937 175.589844c-.441407 1.144532-.667969 2.363282-.667969 3.589844v116.632812c.0390625 33.125 26.878906 59.964844 60 60h310c33.121094-.035156 59.960938-26.875 60-60v-116.632812c0-1.230469-.226562-2.445312-.667969-3.59375zm-274.824219 7.183594c2.996094-7.699218 10.398437-12.78125 18.664063-12.816406h218.828124c8.265626.035156 15.664063 5.117188 18.664063 12.816406l62.734375 162.972656h-118.523438c-4.753906.015626-8.84375 3.367188-9.800781 8.023438-.433593 2.117188-11.230469 51.859375-62.484375 51.859375-51.257812 0-62.054687-49.742187-62.480468-51.828125-.929688-4.679688-5.035157-8.054688-9.808594-8.054688h-118.527344zm323.078125 288.632813c-.023438 22.078125-17.917969 39.972656-40 40h-310c-22.082031-.027344-39.976562-17.921875-40-40v-105.660157h115.148438c3.035156 9.136719 7.371093 17.789063 12.867187 25.691407 10.960937 15.597656 31.476563 34.191406 66.984375 34.191406 35.503906 0 56.023438-18.59375 66.984375-34.191406 5.496094-7.902344 9.828125-16.554688 12.867187-25.691407h115.148438zm0 0"/><path d="m146.867188 91.523438h136.265624c5.523438 0 10-4.476563 10-10 0-5.523438-4.476562-10-10-10h-136.265624c-5.519532 0-10 4.476562-10 10 0 5.523437 4.480468 10 10 10zm0 0"/><path d="m316.710938 139.65625c0-5.519531-4.476563-10-10-10h-183.421876c-5.523437 0-10 4.480469-10 10 0 5.523438 4.476563 10 10 10h183.421876c5.523437 0 10-4.476562 10-10zm0 0"/></svg>