<svg height="428pt" viewBox="0 -47 428 428" width="428pt" xmlns="http://www.w3.org/2000/svg"><path d="m378.617188 32.316406c-7.414063-19.402344-26-32.2421872-46.769532-32.316406h-235.699218c-20.761719.0703125-39.34375 12.902344-46.761719 32.292969l-48.730469 127.90625c-.433594 1.136719-.65625 2.34375-.65625 3.5625v120.058593c.03125 27.601563 22.398438 49.96875 50 50h328c27.601562-.03125 49.96875-22.398437 50-50v-120.058593c0-1.21875-.222656-2.425781-.65625-3.5625zm-310.527344 7.074219c4.449218-11.640625 15.601562-19.347656 28.0625-19.390625h235.699218c12.472657.042969 23.628907 7.761719 28.070313 19.414062l43.527344 114.246094h-108.632813c-4.285156 0-8.089844 2.730469-9.46875 6.785156l-2.859375 8.425782c-9.941406 29.277344-37.425781 48.972656-68.347656 48.972656-30.917969 0-58.402344-19.695312-68.34375-48.972656l-2.863281-8.425782c-1.375-4.054687-5.183594-6.785156-9.46875-6.785156h-108.914063zm339.910156 244.425781c-.019531 16.5625-13.4375 29.984375-30 30h-328c-16.5625-.015625-29.980469-13.4375-30-30v-110.15625h106.300781l.554688 1.640625c12.695312 37.390625 47.796875 62.542969 87.285156 62.542969s74.589844-25.152344 87.285156-62.542969l.554688-1.640625h106.019531zm0 0"/><path d="m186.519531 150.183594c3.816407 3.691406 9.847657 3.757812 13.746094.15625l91.136719-84.25c3.921875-3.777344 4.105468-9.996094.40625-13.992188-3.695313-4-9.910156-4.304687-13.980469-.6875l-84.191406 77.828125-43.011719-41.640625c-3.972656-3.796875-10.269531-3.675781-14.09375.273438-3.824219 3.949218-3.742188 10.246094.183594 14.097656zm0 0"/></svg>