<svg height="474pt" viewBox="0 -41 474.678 474" width="474pt" xmlns="http://www.w3.org/2000/svg"><path d="m464.683594 141.054688h-43.101563c-16.5625.019531-29.980469 13.441406-30 30v101.285156h-308.480469v-101.285156c-.019531-16.558594-13.441406-29.980469-30-30h-43.101562c-5.523438 0-10 4.476562-10 10 0 5.523437 4.476562 10 10 10h43.101562c5.519532.007812 9.992188 4.480468 10 10v171.285156c.03125 27.601562 22.398438 49.96875 50 50h248.476563c27.601563-.03125 49.96875-22.398438 50-50v-171.285156c.007813-5.519532 4.480469-9.992188 10-10h43.101563c5.519531 0 10-4.476563 10-10 0-5.523438-4.480469-10-10-10zm-103.105469 231.285156h-248.476563c-16.5625-.019532-29.984374-13.441406-30-30v-50h308.476563v50c-.019531 16.558594-13.4375 29.980468-30 30zm0 0"/><path d="m230.621094 218.898438c3.8125 3.453124 9.625 3.453124 13.433594 0l57.980468-52.570313c2.671875-2.394531 3.855469-6.035156 3.105469-9.542969-.75-3.507812-3.324219-6.34375-6.742187-7.433594-3.414063-1.089843-7.15625-.265624-9.796876 2.160157l-41.261718 37.410156v-178.582031c0-5.523438-4.476563-10-10-10-5.523438 0-10 4.476562-10 10v178.582031l-41.261719-37.410156c-4.09375-3.710938-10.417969-3.402344-14.128906.6875-3.710938 4.089843-3.402344 10.414062.691406 14.125zm0 0"/></svg>