<svg height="480pt" viewBox="-34 0 480 480.05544" width="480pt" xmlns="http://www.w3.org/2000/svg"><path d="m379.296875 212.976562h-38.984375v-13.683593c-.019531-15.054688-10.015625-28.277344-24.496094-32.402344-1.960937-28.179687-14.753906-54.511719-35.699218-73.472656l45.132812-78.371094c1.8125-3.097656 1.824219-6.929687.03125-10.039063-1.789062-3.109374-5.109375-5.0195308-8.695312-5.007812-3.589844.0117188-6.894532 1.945312-8.667969 5.0625l-43.898438 76.230469c-35.246093-21.792969-79.78125-21.792969-115.023437 0l-43.902344-76.230469c-1.769531-3.117188-5.078125-5.0507812-8.664062-5.0625-3.585938-.0117188-6.90625 1.898438-8.699219 5.007812-1.789063 3.109376-1.777344 6.941407.035156 10.039063l45.136719 78.371094c-20.945313 18.960937-33.738282 45.292969-35.699219 73.472656-14.480469 4.125-24.476563 17.347656-24.496094 32.402344v13.683593h-38.996093c-18.59375.023438-33.664063 15.089844-33.6835942 33.6875v46.292969c0 5.519531 4.4765622 10 10.0000002 10 5.523437 0 10-4.480469 10-10v-46.292969c.007812-7.554687 6.128906-13.675781 13.683594-13.6875h38.988281v87.121094h-28.222657c-18.59375.023438-33.664062 15.089844-33.683593 33.6875v46.292969c0 5.523437 4.476562 10 10 10 5.523437 0 10-4.476563 10-10v-46.292969c.007812-7.554687 6.128906-13.675781 13.683593-13.6875h28.382813c1.5 28.875 13.464844 56.210938 33.664063 76.894532h-5.199219c-18.59375.019531-33.664063 15.089843-33.683594 33.683593v19.378907c0 5.523437 4.476563 10 10 10 5.519531 0 10-4.476563 10-10v-19.378907c.007813-7.554687 6.128906-13.675781 13.683594-13.683593h30.78125c18.167969 10.601562 38.832031 16.171874 59.867187 16.148437h29.070313c21.03125.023437 41.695312-5.550781 59.863281-16.148437h30.777344c7.554687.007812 13.675781 6.128906 13.683594 13.683593v19.378907c0 5.523437 4.480468 10 10 10 5.523437 0 10-4.476563 10-10v-19.378907c-.019532-18.59375-15.089844-33.664062-33.683594-33.683593h-5.199219c20.195313-20.683594 32.164063-48.019532 33.664063-76.894532h28.382812c7.554688.011719 13.675781 6.132813 13.683594 13.6875v46.292969c0 5.523437 4.476562 10 10 10 5.523437 0 10-4.476563 10-10v-46.292969c-.019532-18.597656-15.089844-33.664062-33.683594-33.6875h-28.21875v-87.121094h38.984375c7.554687.011719 13.675781 6.132813 13.683594 13.6875v46.292969c0 5.519531 4.476562 10 10 10 5.523437 0 10-4.480469 10-10v-46.292969c-.019531-18.597656-15.089844-33.667968-33.683594-33.6875zm-172.792969-128.027343c46 .054687 84.503906 34.894531 89.140625 80.660156h-178.28125c4.640625-45.765625 43.144531-80.605469 89.140625-80.660156zm-113.808594 248.917969v-134.574219c.007813-7.554688 6.132813-13.675781 13.6875-13.683594h90.121094v247.53125h-4.53125c-54.804687-.0625-99.214844-44.472656-99.277344-99.273437zm227.617188 0c-.0625 54.800781-44.472656 99.210937-99.273438 99.273437h-4.535156v-247.53125h90.125c7.554688.007813 13.675782 6.128906 13.683594 13.683594zm0 0"/></svg>