<svg height="456pt" viewBox="-16 0 456 456.00248" width="456pt" xmlns="http://www.w3.org/2000/svg"><path d="m316.378906 0c-41.441406-.0195312-79.160156 23.914062-96.792968 61.417969-17.628907 37.503906-11.992188 81.820312 14.464843 113.71875l-231.121093 231.121093c-3.90625 3.902344-3.90625 10.234376 0 14.140626s10.238281 3.90625 14.144531 0l24.558593-24.558594 57.738282 57.261718c3.902344 3.871094 10.195312 3.867188 14.089844-.003906l82.488281-81.953125c1.886719-1.871093 2.945312-4.417969 2.953125-7.078125.003906-2.65625-1.050782-5.207031-2.929688-7.085937l-57.738281-57.742188 109.957031-109.957031c36.324219 30.082031 88.0625 32.816406 127.351563 6.730469 39.292969-26.085938 56.851562-74.832031 43.222656-119.980469-13.625-45.148438-55.226563-76.0390625-102.386719-76.03125zm-141.644531 364.027344-68.328125 67.882812-50.632812-50.210937 68.316406-68.3125zm141.644531-170.128906c-48.019531.003906-86.949218-38.925782-86.949218-86.945313 0-48.023437 38.929687-86.949219 86.949218-86.949219 48.019532-.003906 86.949219 38.925782 86.949219 86.945313-.054687 48-38.949219 86.894531-86.949219 86.949219zm0 0"/><path d="m316.378906 62c-24.824218 0-44.949218 20.125-44.949218 44.949219s20.125 44.949219 44.949218 44.949219c24.828125 0 44.949219-20.125 44.949219-44.949219-.027344-24.8125-20.136719-44.921875-44.949219-44.949219zm0 69.898438c-13.777344 0-24.949218-11.167969-24.949218-24.949219 0-13.777344 11.171874-24.945313 24.949218-24.945313 13.78125 0 24.949219 11.167969 24.949219 24.945313-.015625 13.773437-11.175781 24.933593-24.949219 24.949219zm0 0"/></svg>