<svg height="423pt" viewBox="0 0 423 423.05508" width="423pt" xmlns="http://www.w3.org/2000/svg"><path d="m257.273438 126.917969c-10.335938-.074219-20.277344 3.992187-27.597657 11.289062-14.960937 14.960938-14.960937 40.238281 0 55.203125.050781.050782.105469.097656.15625.152344 7.441407 7.109375 17.339844 11.066406 27.628907 11.050781 10.261718.058594 20.125-3.976562 27.410156-11.207031 14.960937-14.957031 14.960937-40.234375 0-55.199219-7.320313-7.296875-17.257813-11.363281-27.597656-11.289062zm13.457031 52.34375c-7.226563 7.230469-19.3125 7.1875-26.988281-.078125-7.222657-7.5-7.1875-19.375.078124-26.832032 7.503907-7.246093 19.402344-7.246093 26.910157 0 7.292969 7.488282 7.292969 19.421876 0 26.910157zm0 0"/><path d="m91.53125 331.550781c-3.90625-3.90625-10.238281-3.90625-14.144531 0l-46.097657 46.101563c-3.90625 3.90625-3.90625 10.238281 0 14.140625 3.902344 3.90625 10.234376 3.90625 14.140626 0l46.101562-46.097657c3.90625-3.90625 3.90625-10.238281 0-14.144531zm0 0"/><path d="m410.5625.328125-83.609375 21.71875c-28.648437 7.460937-55.402344 20.886719-78.5 39.402344l-.054687-.167969-196.863282 61.78125c-8.511718 2.671875-14.222656 10.65625-14.007812 19.570312.21875 8.917969 6.316406 16.613282 14.949218 18.863282l36.585938 9.546875c2.617188.6875 4.84375 2.398437 6.179688 4.75l13.386718 23.65625-12.226562 12.226562c-3.90625 3.90625-3.90625 10.238281 0 14.144531l3.609375 3.609376-29.5 19.523437c-2.503907 1.65625-4.128907 4.351563-4.429688 7.335937-.300781 2.988282.753907 5.953126 2.878907 8.074219l89.757812 89.761719c1.875 1.875 4.417969 2.925781 7.070312 2.929688.335938 0 .667969-.019532 1-.050782 2.988282-.300781 5.679688-1.929687 7.335938-4.433594l19.523438-29.5 3.609374 3.613282c3.90625 3.90625 10.238282 3.90625 14.144532 0l6.28125-6.28125 28.363281 9.078125c3.269531 1.035156 5.773437 3.679687 6.628906 7l8.902344 34.128906c2.199219 8.664063 9.925781 14.785156 18.859375 14.949219.171875 0 .34375.003906.511719.003906 8.75.046875 16.496093-5.648438 19.0625-14.011719l61.777343-196.867187-.164062-.050782c18.515625-23.101562 31.941406-49.851562 39.398438-78.5l21.730468-83.613281c.894532-3.429687-.097656-7.078125-2.605468-9.585937-2.503907-2.511719-6.152344-3.503906-9.585938-2.613282zm-297.910156 165.613281c-4.011719-7.050781-10.691406-12.1875-18.535156-14.25l-36.589844-9.546875 157.988281-49.578125-92.207031 92.207032zm51.550781 165.386719-72.449219-72.453125 22.6875-15.011719 64.773438 64.773438zm116.734375 34.234375-8.898438-34.132812c-2.570312-9.957032-10.082031-17.890626-19.886718-21l-18.550782-5.9375 96.917969-96.921876zm100.738281-274.464844c-8.515625 32.75-25.621093 62.636719-49.542969 86.570313l-127.800781 127.800781-86.71875-86.71875 127.800781-127.800781c23.933594-23.921875 53.816407-41.027344 86.570313-49.542969l67.132813-17.441406zm0 0"/><path d="m120.105469 361.589844c-5.234375-1.773438-10.910157 1.03125-12.679688 6.265625l-14.21875 41.992187c-1.769531 5.230469 1.035157 10.90625 6.265625 12.679688 5.230469 1.769531 10.90625-1.035156 12.679688-6.265625l14.214844-41.992188c1.773437-5.234375-1.03125-10.910156-6.261719-12.679687zm0 0"/><path d="m61.492188 302.980469c-1.769532-5.234375-7.449219-8.039063-12.679688-6.265625l-41.992188 14.214844c-5.230468 1.769531-8.035156 7.445312-6.265624 12.679687 1.773437 5.230469 7.449218 8.035156 12.679687 6.261719l41.992187-14.214844c5.230469-1.769531 8.035157-7.445312 6.265626-12.675781zm0 0"/></svg>