<svg height="369pt" viewBox="0 0 369.13964 369" width="369pt" xmlns="http://www.w3.org/2000/svg"><path d="m357.730469.171875-33.167969 4.738281c-55.460938 8.042969-106.875 33.679688-146.667969 73.132813-57.335937-19.453125-109.457031-3.1875-163.496093 50.851562-3.90625 3.90625-3.90625 10.238281 0 14.144531l49.246093 49.246094-7.613281 7.617188c-3.90625 3.902344-3.90625 10.234375 0 14.140625l3.855469 3.855469-31.941407 30.820312c-7.707031 7.421875-8.1875 19.605469-1.089843 27.613281-1.011719.894531-1.988281 1.808594-2.921875 2.742188-11.335938 11.339843-19.324219 27.128906-22.503906 44.46875-2.164063 11.832031-2.445313 27.523437 3.261718 36.082031.367188.546875.785156 1.058594 1.25 1.523438l1.835938 1.835937c.464844.464844.976562.882813 1.523437 1.25 5.242188 3.5 13.164063 4.785156 21.246094 4.785156 5.007813-.019531 10.003906-.464843 14.9375-1.328125 17.5-3.058594 33.390625-10.992187 44.730469-22.332031.984375-.988281 1.882812-1.957031 2.738281-2.925781 3.636719 3.246094 8.34375 5.035156 13.21875 5.027344h.183594c5.371093-.03125 10.5-2.238282 14.214843-6.117188l30.816407-31.941406 3.78125 3.78125c3.902343 3.90625 10.234375 3.90625 14.140625 0l7.617187-7.617188 49.324219 49.324219c3.902344 3.90625 10.234375 3.90625 14.140625 0 26.375-26.375 43.265625-52.09375 51.636719-78.628906 8.628906-27.34375 8.167968-55-1.425782-84.375l.160157-.160157c39.683593-39.847656 65.472656-91.421874 73.539062-147.078124l4.738281-33.167969c.445313-3.113281-.601562-6.257813-2.828124-8.480469-2.222657-2.226562-5.367188-3.273438-8.480469-2.832031zm-322.007813 135.910156c42.722656-40.089843 82.453125-53.382812 126.105469-41.976562l-84.042969 84.039062zm-14.667968 211.820313c-2.621094-6.871094-1.730469-35.929688 17.023437-54.683594.90625-.910156 1.890625-1.800781 2.914063-2.660156l37.734374 37.734375c-.851562 1.011719-1.714843 1.984375-2.652343 2.921875-18.773438 18.773437-48.183594 19.375-55.019531 16.6875zm85.125-20.441406-64.347657-64.347657 32.199219-31.066406 63.214844 63.214844zm166.777343-57.214844c-6.640625 21.050781-19.679687 41.835937-39.75 63.316406l-42.136719-42.132812 83.382813-83.386719c5.363281 21.59375 4.855469 42.066406-1.496094 62.203125zm71.550781-228.421875c-7.449218 51.375-31.253906 98.980469-67.882812 135.765625l-106.765625 106.761718-7.609375 7.613282-85-85 109.414062-109.410156c.699219-.535157 1.320313-1.15625 1.855469-1.855469l3.105469-3.109375c36.785156-36.628906 84.390625-60.433594 135.765625-67.878906l19.96875-2.851563zm0 0"/><path d="m182.675781 122.535156c-17.664062 17.707032-17.664062 46.375 0 64.082032 17.695313 17.695312 46.386719 17.695312 64.082031 0 17.695313-17.695313 17.695313-46.386719 0-64.082032-17.695312-17.695312-46.386718-17.695312-64.082031 0zm49.9375 49.9375c-4.707031 4.820313-11.160156 7.535156-17.894531 7.535156-6.738281 0-13.191406-2.714843-17.898438-7.535156-9.886718-9.882812-9.886718-25.910156 0-35.792968 9.882813-9.886719 25.910157-9.886719 35.792969 0 9.886719 9.882812 9.886719 25.910156 0 35.792968zm0 0"/></svg>