<svg height="463pt" viewBox="0 -13 463.339 463" width="463pt" xmlns="http://www.w3.org/2000/svg"><path d="m413.339844.167969h-67.78125c-15.746094.003906-30.566406 7.425781-40 20.035156-9.429688-12.609375-24.253906-20.03125-40-20.035156h-67.777344c-15.746094.003906-30.570312 7.425781-40 20.035156-9.433594-12.609375-24.253906-20.03125-40-20.035156h-67.78125c-27.601562.03125-49.96875 22.398437-50 50v336c.03125 27.601562 22.398438 49.96875 50 50h85.171875c10.964844-.03125 21.195313-5.53125 27.269531-14.660157 9.359375 9.390626 22.078125 14.667969 35.339844 14.660157h67.777344c15.746094 0 30.570312-7.425781 40-20.035157 9.429687 12.609376 24.253906 20.035157 40 20.035157h67.78125c27.601562-.03125 49.96875-22.398438 50-50v-336c-.03125-27.601563-22.398438-49.96875-50-50zm-67.78125 20h67.78125c16.5625.019531 29.980468 13.441406 30 30v28.613281h-127.78125v-28.613281c.019531-16.558594 13.441406-29.980469 30-30zm-177.777344 116.113281v-37.5h127.777344v37.5zm127.777344 20v123.773438h-127.777344v-123.773438zm-147.777344-20h-127.78125v-37.5h127.78125zm0 20v123.773438h-127.78125v-123.773438zm0 143.773438v42.78125h-127.78125v-42.78125zm20 0h127.777344v42.78125h-127.777344zm147.777344 0h127.78125v42.78125h-127.78125zm0-20v-123.773438h127.78125v123.773438zm0-143.773438v-37.5h127.78125v37.5zm-117.777344-116.113281h67.777344c16.5625.019531 29.980468 13.441406 30 30v28.613281h-127.777344v-28.613281c.015625-16.558594 13.4375-29.980469 30-30zm-147.78125 0h67.78125c16.558594.019531 29.980469 13.441406 30 30v28.613281h-127.78125v-28.613281c.019531-16.558594 13.441406-29.980469 30-30zm97.789062 383.195312c.121094 3.289063-1.117187 6.488281-3.425781 8.839844-2.398437 2.511719-5.71875 3.945313-9.191406 3.964844h-85.171875c-16.558594-.015625-29.980469-13.4375-30-30v-23.332031h127.78125v40.109374c0 .140626 0 .277344.007812.417969zm117.769532 12.804688h-67.777344c-16.5625-.015625-29.984375-13.4375-30-30v-23.332031h127.777344v23.332031c-.015625 16.5625-13.4375 29.984375-30 30zm147.78125 0h-67.78125c-16.558594-.015625-29.980469-13.4375-30-30v-23.332031h127.78125v23.332031c-.019532 16.5625-13.4375 29.984375-30 30zm0 0"/></svg>