<svg height="473pt" viewBox="-79 0 473 473.9994" width="473pt" xmlns="http://www.w3.org/2000/svg"><path d="m266.382812 43.132812c-31.953124-30.171874-73.886718-45.398437-118.125-42.859374-38.929687 2.636718-75.507812 19.570312-102.710937 47.539062-27.378906 27.742188-43.40625 64.714844-44.9375 103.664062-1.691406 45.6875 16.367187 89.890626 49.566406 121.324219 20.332031 19.5625 29.992188 47.722657 25.953125 75.648438l-1.566406 11.992187c-.726562 3.398438.03125 6.945313 2.089844 9.746094 1.484375 2.054688 3.535156 3.636719 5.898437 4.546875v59.265625c.027344 22.082031 17.921875 39.972656 40 40h71.203125c22.082032-.027344 39.976563-17.917969 40-40v-59.800781c4.753906-2.304688 7.753906-7.144531 7.699219-12.429688 0-.175781 0-.351562-.011719-.523437l-1.085937-20.777344v-.050781c-1.5-26 7.925781-50.632813 25.847656-67.585938 31.609375-29.898437 49.546875-71.46875 49.609375-114.976562.1875-43.449219-17.722656-85.015625-49.429688-114.722657zm-72.628906 410.867188h-71.199218c-11.039063-.011719-19.988282-8.960938-20-20v-58.402344h111.199218v58.402344c-.011718 11.039062-8.960937 19.988281-20 20zm58.714844-195.710938c-22.226562 21.023438-33.921875 51.375-32.089844 83.265626l.742188 14.042968h-52.964844v-171.597656h36.5c5.519531 0 10-4.476562 10-10s-4.480469-10-10-10h-93c-5.523438 0-10 4.476562-10 10s4.476562 10 10 10h36.5v171.597656h-52.792969l.585938-4.460937c4.898437-34.296875-7.015625-68.855469-32.011719-92.847657-29.03125-27.480468-44.824219-66.128906-43.34375-106.078124 2.535156-69.421876 59.1875-127.394532 128.890625-131.972657 57.960937-3.535156 111.925781 29.609375 134.984375 82.90625 23.054688 53.292969 10.261719 115.320313-32 155.144531zm0 0"/></svg>