<svg height="470pt" viewBox="-8 0 470 470.219" width="470pt" xmlns="http://www.w3.org/2000/svg"><path d="m445.023438 117.40625h-50.347657c-5.523437 0-10 4.480469-10 10 0 5.523438 4.476563 10 10 10h50.347657c5.523437 0 10-4.476562 10-10 0-5.519531-4.476563-10-10-10zm0 0"/><path d="m379.078125 74.980469c1.59375 0 3.164063-.382813 4.582031-1.117188l50.347656-26.007812c4.90625-2.535157 6.828126-8.566407 4.292969-13.472657-2.535156-4.90625-8.566406-6.832031-13.472656-4.296874l-50.347656 26.011718c-4.101563 2.117188-6.222657 6.765625-5.128907 11.25 1.089844 4.484375 5.113282 7.640625 9.726563 7.632813zm0 0"/><path d="m434.003906 206.964844-50.34375-26.007813c-3.179687-1.675781-7.011718-1.515625-10.039062.414063-3.027344 1.929687-4.789063 5.339844-4.613282 8.925781.179688 3.585937 2.265626 6.804687 5.46875 8.425781l50.347657 26.011719c3.179687 1.675781 7.011719 1.515625 10.039062-.414063 3.027344-1.933593 4.789063-5.339843 4.613281-8.925781-.179687-3.585937-2.265624-6.804687-5.472656-8.425781zm0 0"/><path d="m70.457031 127.40625c0-5.519531-4.476562-10-10-10h-50.347656c-5.523437 0-10 4.480469-10 10 0 5.523438 4.476563 10 10 10h50.347656c5.523438 0 10-4.476562 10-10zm0 0"/><path d="m80.652344 56.097656-50.347656-26.011718c-4.90625-2.535157-10.9375-.613282-13.472657 4.292968-2.535156 4.910156-.613281 10.941406 4.292969 13.476563l50.347656 26.011719c4.90625 2.535156 10.941406.609374 13.476563-4.296876 2.535156-4.90625.613281-10.9375-4.296875-13.472656zm0 0"/><path d="m71.472656 180.957031-50.347656 26.007813c-3.203125 1.621094-5.289062 4.839844-5.46875 8.425781-.175781 3.585937 1.585938 6.992187 4.613281 8.925781 3.027344 1.929688 6.859375 2.089844 10.035157.414063l50.347656-26.011719c3.207031-1.621094 5.292968-4.839844 5.46875-8.425781.179687-3.585938-1.582032-6.996094-4.609375-8.925781-3.027344-1.929688-6.859375-2.089844-10.039063-.414063zm0 0"/><path d="m345.957031 450.21875h-27.523437l-16.96875-287.148438h8.71875c5.523437 0 10-4.476562 10-10v-49.074218c-.023438-17.546875-11.457032-33.035156-28.21875-38.226563v-1.125c0-35.703125-28.941406-64.644531-64.640625-64.644531-35.703125 0-64.644531 28.941406-64.644531 64.644531v1.125c-16.757813 5.191407-28.191407 20.683594-28.214844 38.226563v49.074218c0 5.523438 4.480468 10 10 10h8.71875l-16.976563 287.148438h-27.03125c-5.523437 0-10 4.476562-10 10s4.476563 10 10 10h236.78125c5.523438 0 10-4.476562 10-10s-4.476562-10-10-10zm-179.707031-169.363281 116.820312-89.960938 4.300782 72.738281-125.8125 96.597657zm132.152344 169.363281h-87.675782l83.828126-65.078125zm-71.082032-430.21875c24.390626.03125 44.25 19.613281 44.625 44h-89.25c.375-24.386719 20.234376-43.96875 44.625-44zm-72.855468 84c.011718-11.039062 8.957031-19.984375 20-20h105.710937c11.042969.015625 19.988281 8.960938 20 20v39.074219h-145.710937zm126.960937 59.070312.21875 3.683594-113.828125 87.660156 5.398438-91.34375zm-121.425781 223.578126 128.796875-98.890626 4.328125 73.171876-115.011719 89.289062h-21.871093zm0 0"/></svg>