<svg height="458pt" viewBox="0 -1 458 458" width="458pt" xmlns="http://www.w3.org/2000/svg"><path d="m305.871094 135.871094c0-42.453125-34.417969-76.871094-76.871094-76.871094s-76.871094 34.417969-76.871094 76.871094 34.417969 76.871094 76.871094 76.871094c42.433594-.046876 76.824219-34.4375 76.871094-76.871094zm-133.742188 0c0-31.410156 25.460938-56.871094 56.871094-56.871094s56.871094 25.460938 56.871094 56.871094-25.460938 56.871094-56.871094 56.871094c-31.394531-.035157-56.835938-25.476563-56.871094-56.871094zm0 0"/><path d="m385.976562 355.640625c-40.074218-8.691406-92.609374-13.660156-148.707031-14.101563l90.402344-94.421874c53.90625-56.085938 53.929687-147.765626.035156-204.378907-26.234375-27.558593-61.292969-42.738281-98.707031-42.738281s-72.472656 15.179688-98.675781 42.703125c-53.902344 56.085937-53.917969 147.769531-.011719 204.402344l90.417969 94.433593c-56.101563.445313-108.632813 5.414063-148.707031 14.101563-48.464844 10.507813-72.023438 24.695313-72.023438 43.359375s23.558594 32.851562 72.023438 43.359375c42.039062 9.117187 97.789062 14.140625 156.976562 14.140625s114.9375-5.019531 156.976562-14.140625c48.464844-10.507813 72.023438-24.695313 72.023438-43.359375s-23.558594-32.851562-72.023438-43.359375zm-241.199218-299.113281c22.421875-23.554688 52.335937-36.527344 84.222656-36.527344s61.800781 12.972656 84.222656 36.53125c46.613282 48.964844 46.628906 128.246094.019532 176.738281l-84.242188 87.984375-84.222656-87.964844c-46.613282-48.96875-46.628906-128.246093 0-176.761718zm236.957031 366.289062c-40.683594 8.824219-94.929687 13.683594-152.734375 13.683594s-112.050781-4.859375-152.734375-13.683594c-52.960937-11.488281-56.265625-23.699218-56.265625-23.816406s3.304688-12.328125 56.265625-23.816406c40.683594-8.824219 94.929687-13.683594 152.734375-13.683594s112.050781 4.859375 152.734375 13.683594c52.960937 11.488281 56.265625 23.699218 56.265625 23.816406s-3.304688 12.328125-56.265625 23.816406zm0 0"/></svg>