<svg height="438pt" viewBox="-43 0 438 438.00018" width="438pt" xmlns="http://www.w3.org/2000/svg"><path d="m320.570312 75.679688c-33.230468-48.097657-85.894531-75.679688-144.476562-75.679688-58.585938 0-111.246094 27.582031-144.480469 75.679688-33.070312 47.859374-40.714843 108.441406-20.46875 161.984374 5.351563 14.449219 13.890625 28.519532 25.332031 41.769532l132 155.050781c1.902344 2.230469 4.683594 3.515625 7.617188 3.515625 2.929688 0 5.710938-1.285156 7.613281-3.515625l131.976563-155.019531c11.945312-13.839844 20.242187-27.523438 25.367187-41.824219 20.226563-53.585937 12.574219-114.125-20.480469-161.960937zm1.738282 154.972656c-.019532.058594-.042969.117187-.0625.175781-4.335938 12.140625-11.238282 23.449219-21.722656 35.585937l-.046876.054688-124.382812 146.105469-124.433594-146.160157c-9.921875-11.484374-17.242187-23.5-21.785156-35.761718-17.945312-47.460938-11.144531-101.144532 18.191406-143.605469 29.445313-42.609375 76.105469-67.046875 128.027344-67.046875 51.917969 0 98.582031 24.4375 128.023438 67.046875 29.335937 42.460937 36.140624 96.144531 18.191406 143.605469zm0 0"/><path d="m176.09375 74c-56.359375 0-102.050781 45.6875-102.050781 102.046875s45.691406 102.050781 102.050781 102.050781 102.046875-45.691406 102.046875-102.050781c-.0625-56.332031-45.714844-101.984375-102.046875-102.046875zm0 184.101562c-45.316406 0-82.050781-36.734374-82.050781-82.050781 0-45.3125 36.734375-82.046875 82.050781-82.046875 45.3125 0 82.046875 36.734375 82.046875 82.050782-.050781 45.289062-36.757813 81.992187-82.046875 82.046874zm0 0"/></svg>