<svg height="488pt" viewBox="-71 0 488 488.25397" width="488pt" xmlns="http://www.w3.org/2000/svg"><path d="m286.367188 183.4375v-68.789062c.121093-40.917969-21.640626-78.78125-57.058594-99.277344-35.417969-20.496094-79.089844-20.496094-114.507813 0s-57.179687 58.359375-57.058593 99.277344v71.25c-2.304688 2.066406-4.558594 4.199218-6.773438 6.402343-67.71875 67.628907-67.800781 177.347657-.183594 245.082031 67.617188 67.734376 177.335938 67.839844 245.085938.238282 67.746094-67.601563 67.878906-177.320313.292968-245.082032-3.167968-3.171874-6.433593-6.207031-9.796874-9.101562zm-208.621094-68.789062c0-52.085938 42.222656-94.308594 94.3125-94.308594 52.085937 0 94.3125 42.222656 94.3125 94.308594v53.929687c-57.777344-36.496094-131.570313-35.78125-188.625 1.824219zm204.257812 308.71875c-51.707031 51.898437-132.882812 60.023437-193.855468 19.40625-60.96875-40.621094-84.742188-118.664063-56.765626-186.375 27.972657-67.710938 99.898438-106.214844 171.757813-91.957032 71.859375 14.261719 123.628906 77.3125 123.628906 150.574219.136719 40.644531-15.980469 79.65625-44.765625 108.351563zm0 0"/><path d="m173.445312 290.457031c-17.019531-.003906-31.476562 12.460938-33.980468 29.296875-2.503906 16.835938 7.695312 32.964844 23.980468 37.917969v28.074219c0 5.523437 4.476563 10 10 10 5.523438 0 10-4.476563 10-10v-28.074219c16.285157-4.953125 26.484376-21.082031 23.980469-37.917969-2.503906-16.835937-16.960937-29.300781-33.980469-29.296875zm0 48.703125c-7.925781 0-14.351562-6.425781-14.351562-14.351562 0-7.925782 6.425781-14.351563 14.351562-14.351563 7.925782 0 14.351563 6.425781 14.351563 14.351563-.007813 7.921875-6.429687 14.34375-14.351563 14.351562zm0 0"/></svg>