<svg height="412pt" viewBox="-11 0 412 412.03984" width="412pt" xmlns="http://www.w3.org/2000/svg"><path d="m279.101562 172.707031 28.378907-67.640625c1.644531-3.917968.628906-8.449218-2.527344-11.296875-3.160156-2.84375-7.773437-3.382812-11.5-1.339843l-63.609375 34.867187-54.199219-48.542969c-3.175781-2.84375-7.808593-3.363281-11.53125-1.289062-3.726562 2.070312-5.730469 6.277344-4.988281 10.476562l12.765625 72.339844-62.355469 37.320312c-3.644531 2.179688-5.511718 6.421876-4.664062 10.582032.851562 4.160156 4.234375 7.328125 8.441406 7.90625l38.484375 5.28125-85.460937 85.464844-.007813.007812-.007813.003906-58.332031 58.332032c-10.65625 10.753906-10.621093 28.101562.085938 38.804687 10.707031 10.707031 28.054687 10.746094 38.804687.085937l145.65625-145.65625 8.554688 39.359376c.90625 4.175781 4.367187 7.3125 8.613281 7.808593.382813.046875.773437.070313 1.164063.070313 3.847656-.003906 7.355468-2.214844 9.015624-5.683594l31.644532-66.128906 72.199218 6.605468c4.230469.390626 8.238282-1.933593 10.007813-5.796874 1.765625-3.859376.902344-8.414063-2.152344-11.359376zm-246.359374 217.21875c-2.933594 2.910157-7.664063 2.898438-10.585938-.019531-2.917969-2.921875-2.929688-7.652344-.023438-10.585938l51.265626-51.265624 10.605468 10.605468zm65.402343-65.40625-10.605469-10.605469 89.128907-89.128906 8.835937 1.210938 1.992188 9.175781zm148.277344-111.230469c-4.167969-.382812-8.128906 1.867188-9.933594 5.640626l-22.050781 46.074218-10.871094-50.082031c-.890625-4.105469-4.253906-7.214844-8.414062-7.785156l-50.925782-6.992188 43.839844-26.238281c3.558594-2.128906 5.433594-6.234375 4.714844-10.316406l-8.9375-50.640625 37.925781 33.96875c3.160157 2.832031 7.761719 3.359375 11.480469 1.320312l44.710938-24.507812-19.953126 47.554687c-1.597656 3.804688-.691406 8.203125 2.28125 11.070313l36.914063 35.582031zm0 0"/><path d="m286.082031 278.929688c-2.382812-4.984376-8.351562-7.09375-13.335937-4.714844s-7.09375 8.347656-4.714844 13.332031l11.335938 23.75c2.378906 4.980469 8.347656 7.09375 13.332031 4.714844 4.984375-2.378907 7.097656-8.351563 4.71875-13.332031zm0 0"/><path d="m240.207031 80.6875c5.519531 0 10-4.476562 10-10v-60.6875c0-5.523438-4.480469-10-10-10-5.523437 0-10 4.476562-10 10v60.6875c0 5.523438 4.476563 10 10 10zm0 0"/><path d="m377.417969 139.332031-40.847657 8.445313c-3.503906.714844-6.359374 3.25-7.488281 6.644531-1.128906 3.398437-.355469 7.136719 2.027344 9.808594 2.382813 2.667969 6.007813 3.863281 9.511719 3.132812l40.84375-8.445312c3.507812-.714844 6.363281-3.25 7.492187-6.648438 1.125-3.394531.355469-7.132812-2.027343-9.804687-2.382813-2.671875-6.007813-3.867188-9.511719-3.132813zm0 0"/><path d="m69.394531 131.398438 46.027344 7.757812c3.539063.625 7.136719-.695312 9.433594-3.457031s2.933593-6.542969 1.671875-9.90625c-1.265625-3.363281-4.234375-5.789063-7.78125-6.359375l-46.023438-7.757813c-5.421875-.867187-10.53125 2.796875-11.445312 8.210938-.910156 5.414062 2.710937 10.554687 8.117187 11.511719zm0 0"/></svg>