<svg height="410pt" viewBox="0 -52 410 409" width="410pt" xmlns="http://www.w3.org/2000/svg"><path d="m370 .5h-330c-22.082031.023438-39.9765625 17.917969-40 40v225.824219c.0234375 22.078125 17.917969 39.972656 40 40h330c22.082031-.027344 39.976562-17.921875 40-40v-225.824219c-.023438-22.082031-17.917969-39.976562-40-40zm-330 20h330c5.316406-.003906 10.414062 2.117188 14.160156 5.890625l-170.167968 111.0625c-6.742188 4.425781-15.484376 4.359375-22.15625-.167969l-165.472657-111.402344c3.695313-3.460937 8.570313-5.386718 13.636719-5.382812zm350 245.824219c-.011719 11.039062-8.960938 19.988281-20 20h-330c-11.039062-.011719-19.988281-8.960938-20-20v-220.613281l160.652344 108.160156c13.339844 9.039062 30.808594 9.167968 44.28125.328125l165.066406-107.738281zm0 0"/></svg>