<svg height="478pt" viewBox="-44 0 478 478.57095" width="478pt" xmlns="http://www.w3.org/2000/svg"><path d="m385.140625 134.886719c-2.972656-1.816407-6.675781-1.953125-9.777344-.363281l-120.601562 61.878906-115.59375-60.832032c-2.875-1.511718-6.300781-1.535156-9.195313-.0625l-46.1875 23.519532v-37.585938c31.402344-4.996094 53.726563-33.246094 51.324219-64.953125-2.398437-31.707031-28.71875-56.277343-60.519531-56.488281-31.796875-.210938-58.441406 24.003906-61.261719 55.679688-2.824219 31.671874 19.121094 60.214843 50.457031 65.628906v47.898437l-58.035156 29.554688c-3.351562 1.703125-5.464844 5.148437-5.464844 8.910156v260.898437c0 3.492188 1.820313 6.726563 4.800782 8.542969 2.980468 1.8125 6.695312 1.941407 9.792968.339844l119.554688-61.835937 115.554687 61.773437c2.894531 1.546875 6.363281 1.574219 9.28125.078125l125.222657-64.253906c3.339843-1.710938 5.4375-5.148438 5.4375-8.898438v-260.898437c-.003907-3.484375-1.816407-6.714844-4.789063-8.53125zm-352.054687-73.75c0-22.683594 18.386718-41.070313 41.070312-41.070313s41.070312 18.386719 41.070312 41.070313c0 22.683593-18.386718 41.070312-41.070312 41.070312-22.671875-.027343-41.042969-18.398437-41.070312-41.070312zm111.34375 99.800781 99.710937 52.480469v238.164062l-99.710937-53.304687zm-124.144532 52.863281 43.5-22.148437v54.839844c0 5.523437 4.476563 10 10 10 5.523438 0 10-4.476563 10-10v-65.023438l40.644532-20.695312v237.5l-104.144532 53.863281zm349.644532 184.402344-105.785157 54.28125v-238.414063l105.785157-54.277343zm0 0"/></svg>