<svg height="449pt" viewBox="0 -9 449.628 449" width="449pt" xmlns="http://www.w3.org/2000/svg"><path d="m379.960938 286.46875c-39.070313-13.429688-90.058594-21.191406-144.554688-22.082031v-72.546875c50.792969-5.640625 88.277344-50.0625 85.292969-101.078125-2.988281-51.019531-45.394531-90.7695315-96.5-90.445313-51.101563.320313-93.007813 40.601563-95.351563 91.652344-2.339844 51.050781 35.699219 95 86.558594 100v72.398438c-54.9375.800781-106.386719 8.570312-145.738281 22.101562-57.582031 19.792969-69.667969 44.464844-69.667969 61.671875 0 17.210937 12.085938 41.878906 69.667969 61.671875 41.589843 14.300781 96.691406 22.171875 155.144531 22.171875 58.457031 0 113.554688-7.875 155.148438-22.171875 57.578124-19.792969 69.667968-44.460938 69.667968-61.671875 0-17.207031-12.089844-41.878906-69.667968-61.671875zm-231.214844-190.097656c0-42.011719 34.054687-76.070313 76.066406-76.070313 42.007812-.003906 76.066406 34.050781 76.066406 76.0625.003906 42.011719-34.054687 76.066407-76.066406 76.066407-41.988281-.046876-76.015625-34.074219-76.066406-76.066407zm224.714844 294.527344c-39.554688 13.597656-92.347657 21.085937-148.648438 21.085937-56.296875 0-109.089844-7.488281-148.644531-21.085937-35.171875-12.089844-56.167969-28.074219-56.167969-42.757813s21-30.667969 56.167969-42.757813c37.34375-12.835937 86.484375-20.222656 139.238281-21.007812v60.632812c0 5.523438 4.476562 10 10 10s10-4.476562 10-10v-60.617187c52.304688.878906 100.988281 8.253906 138.054688 21 35.167968 12.089844 56.167968 28.074219 56.167968 42.753906 0 14.683594-21 30.664063-56.167968 42.753907zm0 0"/></svg>