<svg height="436pt" viewBox="0 -27 436.12505 436" width="436pt" xmlns="http://www.w3.org/2000/svg"><path d="m406.40625 33.933594-126.085938-33.535156c-2.210937-.589844-4.558593-.398438-6.648437.535156l-.117187-.269532-120.226563 51.550782-105.945313-19.894532c-11.695312-2.195312-23.765624.929688-32.921874 8.527344-9.160157 7.601563-14.460938 18.882813-14.460938 30.785156v250.5c-.03125 19.460938 13.972656 36.109376 33.152344 39.410157l117.253906 20.371093c2.5.429688 5.070312-.105468 7.1875-1.5l119.515625-50.703124 108.734375 28.921874c3.386719.90625 6.875 1.363282 10.382812 1.367188 22.050782-.078125 39.886719-17.972656 39.898438-40.023438v-247.398437c-.019531-18.121094-12.210938-33.96875-29.71875-38.644531zm-386.40625 288.203125v-250.5c-.003906-5.953125 2.644531-11.597657 7.226562-15.398438 4.578126-3.800781 10.617188-5.363281 16.464844-4.257812l98.429688 18.480469v289.710937l-105.542969-18.332031c-9.589844-1.648438-16.59375-9.972656-16.578125-19.703125zm142.121094-251.929688 105.628906-45.292969v287.054688l-105.628906 44.808594zm254 249.78125c0 6.210938-2.886719 12.070313-7.8125 15.855469-4.921875 3.785156-11.324219 5.070312-17.328125 3.472656l-103.230469-27.457031v-288.789063l113.511719 30.191407c8.757812 2.335937 14.851562 10.261719 14.859375 19.324219zm0 0"/></svg>