<svg height="437pt" viewBox="-71 0 437 437.99987" width="437pt" xmlns="http://www.w3.org/2000/svg"><path d="m285.769531 0h-275.269531c-5.523438 0-10 4.476562-10 10v133.78125c.003906 10.609375 2.816406 21.03125 8.152344 30.199219l32.152344 55.199219c8.007812 13.757812 12.226562 29.386718 12.230468 45.300781v50.234375c0 5.523437 4.476563 10 10 10h3.96875v93.285156c0 2.972656 1.324219 5.789062 3.609375 7.691406 2.285157 1.898438 5.296875 2.683594 8.21875 2.140625l142.261719-26.480469c4.734375-.882812 8.167969-5.015624 8.167969-9.832031v-66.808593h3.972656c5.523437 0 10-4.476563 10-10v-50.234376c.003906-15.914062 4.222656-31.542968 12.230469-45.296874l32.152344-55.203126c5.335937-9.167968 8.148437-19.589843 8.152343-30.199218v-133.777344c0-5.523438-4.476562-10-10-10zm-10 20v123.28125h-255.269531v-123.28125zm-66.5 373.207031-122.265625 22.757813v-81.253906h122.257813zm28.914063-174.09375c-9.785156 16.8125-14.941406 35.914063-14.949219 55.363281v40.234376h-150.199219v-40.234376c-.007812-19.449218-5.164062-38.550781-14.949218-55.363281l-32.152344-55.199219c-.121094-.207031-.222656-.421874-.339844-.632812h245.078125c-.117187.207031-.21875.425781-.339844.632812zm0 0"/></svg>