<svg height="438pt" viewBox="0 -21 438 438" width="438pt" xmlns="http://www.w3.org/2000/svg"><path d="m378 61.691406h-65.71875v-21.691406c-.023438-22.082031-17.917969-39.9765625-40-40h-100.394531c-22.082031.0234375-39.976563 17.917969-40 40v21.691406h-71.886719c-33.121094.035156-59.9609375 26.878906-60 60v214.617188c.0390625 33.121094 26.878906 59.964844 60 60h318c33.121094-.035156 59.960938-26.878906 60-60v-214.617188c-.039062-33.121094-26.878906-59.964844-60-60zm-226.113281-21.691406c.011719-11.039062 8.960937-19.988281 20-20h100.394531c11.039062.011719 19.988281 8.960938 20 20v21.691406h-140.394531zm266.113281 296.308594c-.023438 22.082031-17.917969 39.976562-40 40h-318c-22.082031-.023438-39.976562-17.917969-40-40v-214.617188c.023438-22.082031 17.917969-39.976562 40-40h318c22.082031.023438 39.976562 17.917969 40 40zm0 0"/><path d="m273.773438 215.914062h-41.6875v-41.6875c0-5.523437-4.476563-10-10-10-5.523438 0-10 4.476563-10 10v41.6875h-41.6875c-5.519532 0-10 4.480469-10 10 0 5.523438 4.480468 10 10 10h41.691406v47.859376c0 5.523437 4.476562 10 10 10 5.523437 0 10-4.476563 10-10v-47.859376h41.691406c5.523438 0 10-4.476562 10-10 0-5.519531-4.476562-10-10-10zm0 0"/></svg>