<svg height="479pt" viewBox="-2 0 479 479.22905" width="479pt" xmlns="http://www.w3.org/2000/svg"><path d="m470.964844 172.144531-189.03125-156.140625c-25.890625-21.339844-63.265625-21.339844-89.15625 0l-189.03125 156.140625c-2.300782 1.898438-3.632813 4.726563-3.632813 7.707031v249.378907c.03125 27.601562 22.398438 49.96875 50 50h374.480469c27.601562-.03125 49.96875-22.398438 50-50v-249.378907c0-2.980468-1.328125-5.808593-3.628906-7.707031zm-20.035156 271.445313-117.140626-95.027344 120.808594-141.171875v221.839844c.003906 5.015625-1.257812 9.957031-3.667968 14.359375zm-245.417969-412.164063c18.496093-15.242187 45.191406-15.242187 63.6875 0l181.421875 149.851563-132.371094 154.683594-49.519531-40.171876c-18.535157-15.457031-45.46875-15.457031-64 0l-47.414063 38.460938-133.226562-152.972656zm-182.101563 411.445313c-2.171875-4.21875-3.300781-8.898438-3.300781-13.640625v-222.0625l121.660156 139.6875zm26.699219 16.359375c-4.136719 0-8.226563-.855469-12.015625-2.519531l179.285156-145.429688.113282-.09375c11.132812-9.3125 27.339843-9.3125 38.472656 0l.113281.09375 179.707031 145.777344c-3.558594 1.433594-7.355468 2.171875-11.191406 2.171875zm0 0"/></svg>