<svg height="442pt" viewBox="0 0 442 442" width="442pt" xmlns="http://www.w3.org/2000/svg"><path d="m292.078125 139.921875h-142.15625c-5.523437 0-10 4.476563-10 10v142.15625c0 5.523437 4.476563 10 10 10h142.15625c5.523437 0 10-4.476563 10-10v-142.15625c0-5.523437-4.476563-10-10-10zm-10 142.15625h-122.15625v-122.15625h122.15625zm0 0"/><path d="m432 175.480469c5.523438 0 10-4.476563 10-10 0-5.523438-4.476562-10-10-10h-65.53125v-39.949219c-.027344-22.082031-17.917969-39.972656-40-40h-39.949219v-65.53125c0-5.523438-4.476562-10-10-10-5.523437 0-10 4.476562-10 10v65.53125h-91.039062v-65.53125c0-5.523438-4.476563-10-10-10-5.523438 0-10 4.476562-10 10v65.53125h-39.949219c-22.082031.027344-39.972656 17.917969-40 40v39.949219h-65.53125c-5.523438 0-10 4.476562-10 10 0 5.523437 4.476562 10 10 10h65.53125v77.714843h-65.53125c-5.523438 0-10 4.476563-10 10 0 5.523438 4.476562 10 10 10h65.53125v53.273438c.027344 22.078125 17.917969 39.972656 40 40h39.949219v65.53125c0 5.523438 4.476562 10 10 10 5.523437 0 10-4.476562 10-10v-65.53125h91.039062v65.53125c0 5.523438 4.476563 10 10 10 5.523438 0 10-4.476562 10-10v-65.53125h39.949219c22.078125-.027344 39.972656-17.917969 40-40v-53.269531h65.53125c5.523438 0 10-4.476563 10-10 0-5.523438-4.476562-10-10-10h-65.53125v-77.71875zm-85.53125 150.988281c-.011719 11.039062-8.960938 19.988281-20 20h-210.9375c-11.039062-.011719-19.988281-8.960938-20-20v-210.9375c.011719-11.039062 8.960938-19.988281 20-20h210.9375c11.039062.011719 19.988281 8.960938 20 20zm0 0"/></svg>