<svg height="474pt" viewBox="0 -5 474.136 474" width="474pt" xmlns="http://www.w3.org/2000/svg"><path d="m326.3125.0664062h-177.984375c-27.601563.03125-49.96875 22.3984378-50 49.9999998v364c.03125 27.601563 22.398437 49.96875 50 50h187.070313c22.269531 0 40.242187-17.84375 40.910156-40.621094 0-.101562 0-.203124 0-.296874v-373.082032c-.03125-27.597656-22.394532-49.964844-49.996094-49.9999998zm-177.984375 19.9999998h177.984375c16.5625.019532 29.984375 13.441406 30 30v26.027344h-237.984375v-26.027344c.019531-16.558594 13.441406-29.980468 30-30zm207.984375 76.027344v264.851562h-237.984375v-264.851562zm-20.914062 347.972656h-187.070313c-16.558594-.015625-29.980469-13.4375-30-30v-33.121094h237.984375v42.042969c-.414062 11.832031-9.578125 21.078125-20.914062 21.078125zm0 0"/><path d="m178.085938 229.644531 35.945312 36.78125c.117188.121094.246094.226563.367188.339844.121093.113281.230468.222656.355468.324219.140625.121094.289063.226562.433594.335937.128906.101563.253906.199219.382812.285157.15625.105468.316407.199218.476563.292968.128906.078125.257813.160156.386719.234375.171875.089844.351562.167969.527344.25.125.058594.25.125.378906.179688.1875.078125.382812.140625.574218.207031.117188.042969.234376.09375.355469.128906.210938.0625.421875.109375.632813.160156.109375.023438.21875.058594.328125.078126.238281.046874.476562.078124.71875.109374.085937.011719.167969.027344.253906.035157.328125.035156.65625.050781.984375.050781.308594 0 .625-.015625.933594-.042969.085937-.007812.167968-.027343.253906-.035156.226562-.027344.453125-.054687.679688-.101563.109374-.019531.21875-.054687.328124-.078124.199219-.042969.390626-.085938.585938-.140626.121094-.035156.242188-.082031.363281-.125.179688-.058593.355469-.113281.53125-.183593.128907-.046875.25-.109375.375-.167969.167969-.070312.332031-.140625.496094-.222656.128906-.066406.253906-.144532.382813-.21875.152343-.085938.304687-.167969.453124-.265625.128907-.082031.253907-.175781.378907-.265625.128906-.089844.28125-.195313.417969-.300782.136718-.105468.246093-.210937.367187-.316406.121094-.105468.230469-.1875.339844-.292968l67.714843-64.367188c4.003907-3.808594 4.164063-10.136719.359376-14.140625-3.804688-4.003906-10.136719-4.167969-14.140626-.359375l-60.566406 57.574219-29.050781-29.71875c-3.859375-3.949219-10.191406-4.023438-14.140625-.164063-3.953125 3.863282-4.023438 10.195313-.164062 14.144532zm0 0"/><path d="m49.535156 242.066406c5.523438 0 10-4.476562 10-10 0-5.519531-4.476562-10-10-10h-39.535156c-5.523438 0-10 4.480469-10 10 0 5.523438 4.476562 10 10 10zm0 0"/><path d="m63.636719 158.753906-39.535157-19.769531c-4.941406-2.46875-10.945312-.464844-13.417968 4.472656-2.46875 4.941407-.464844 10.949219 4.472656 13.417969l39.535156 19.769531c4.941406 2.46875 10.945313.464844 13.417969-4.472656 2.46875-4.941406.464844-10.949219-4.472656-13.417969zm0 0"/><path d="m54.691406 287.492188-39.535156 19.769531c-4.9375 2.46875-6.941406 8.476562-4.472656 13.417969 2.472656 4.9375 8.476562 6.941406 13.417968 4.46875l39.535157-19.765626c4.9375-2.472656 6.941406-8.476562 4.472656-13.417968-2.472656-4.941406-8.476563-6.941406-13.417969-4.472656zm0 0"/><path d="m464.136719 222.066406h-39.535157c-5.523437 0-10 4.480469-10 10 0 5.523438 4.476563 10 10 10h39.535157c5.523437 0 10-4.476562 10-10 0-5.519531-4.476563-10-10-10zm0 0"/><path d="m414.980469 177.699219c1.550781 0 3.078125-.359375 4.464843-1.054688l39.535157-19.769531c4.9375-2.46875 6.941406-8.476562 4.46875-13.417969-2.46875-4.9375-8.476563-6.941406-13.414063-4.472656l-39.535156 19.769531c-4.152344 2.074219-6.332031 6.730469-5.265625 11.25 1.070313 4.515625 5.105469 7.703125 9.746094 7.695313zm0 0"/><path d="m458.980469 307.261719-39.535157-19.769531c-4.941406-2.46875-10.945312-.46875-13.417968 4.472656-2.46875 4.941406-.46875 10.945312 4.472656 13.417968l39.535156 19.765626c4.9375 2.472656 10.945313.46875 13.414063-4.46875 2.472656-4.941407.46875-10.949219-4.46875-13.417969zm0 0"/></svg>