<svg height="399pt" viewBox="-35 0 399 399.00023" width="399pt" xmlns="http://www.w3.org/2000/svg"><path d="m248.875 0c-40.347656-.0976562-74.386719 30-79.230469 70.054688h-159.648437c-3.503906 0-6.75 1.835937-8.558594 4.835937-1.8125 3-1.917969 6.730469-.28125 9.828125l114.578125 217.179688v77.101562h-32.277344c-5.523437 0-10 4.476562-10 10s4.476563 10 10 10h84.558594c5.519531 0 10-4.476562 10-10s-4.480469-10-10-10h-32.28125v-79.085938l78.226563-148.261718c29.574218 14.417968 64.96875 9.222656 89.152343-13.089844 24.183594-22.308594 32.207031-57.167969 20.214844-87.808594s-41.550781-50.7890622-74.453125-50.753906zm-25.027344 90.054688-37.664062 71.378906h-121.941406l-37.664063-71.378906zm-48.214844 91.378906-50.421874 95.566406-50.417969-95.5625zm73.242188-41.75c-8.847656.011718-17.582031-1.945313-25.574219-5.730469l25.972657-49.234375c1.636718-3.097656 1.53125-6.828125-.277344-9.828125-1.8125-3.003906-5.058594-4.835937-8.566406-4.835937h-50.582032c5.199219-31.347657 33.992188-53.164063 65.574219-49.6875 31.585937 3.476562 54.945313 31.03125 53.203125 62.757812s-27.976562 56.558594-59.75 56.558594zm0 0"/></svg>