<svg height="452pt" viewBox="-84 0 452 452.199" width="452pt" xmlns="http://www.w3.org/2000/svg"><path d="m233.828125 0h-28.574219c-4.804687 0-8.933594 3.417969-9.828125 8.140625-4.914062 25.425781-27.203125 43.773437-53.097656 43.707031-26.121094 0-47.964844-18.015625-53.125-43.808594-.933594-4.675781-5.039063-8.039062-9.804687-8.039062h-29.300782c-13.273437 0-26.007812 5.28125-35.386718 14.675781-9.378907 9.398438-14.6367192 22.136719-14.6132818 35.414063l.6484378 352.199218c.089844 27.5625 22.4375 49.867188 50 49.910157h22.320312c5.144532 0 9.453125-3.90625 9.953125-9.027344 2.503907-27.609375 25.648438-48.753906 53.371094-48.757813 27.566406 0 51.003906 21.367188 53.363281 48.644532.445313 5.171875 4.773438 9.140625 9.960938 9.140625h34.117187c27.601563-.03125 49.96875-22.398438 50-50v-352.199219c-.03125-27.601562-22.398437-49.9726562-50.003906-50zm30 402.199219c-.015625 16.5625-13.4375 29.980469-30 30h-25.539063c-7.421874-33.746094-37.320312-57.78125-71.875-57.78125-34.550781 0-64.453124 24.035156-71.875 57.78125h-13.796874c-16.539063-.023438-29.945313-13.40625-30-29.945313l-.648438-352.199218c-.011719-7.964844 3.140625-15.609376 8.769531-21.25 5.628907-5.636719 13.265625-8.804688 21.230469-8.804688h21.546875c9.53125 30.992188 38.257813 52.0625 70.679687 51.847656 32.378907.042969 61.027344-20.957031 70.730469-51.847656h20.777344c16.5625.019531 29.980469 13.4375 30 30zm0 0"/><path d="m208.738281 125.40625h-133.621093c-5.523438 0-10 4.480469-10 10v181.386719c0 5.523437 4.476562 10 10 10h133.621093c5.523438 0 10-4.476563 10-10v-181.386719c0-5.519531-4.476562-10-10-10zm-10 181.386719h-113.621093v-161.386719h113.621093zm0 0"/></svg>