<svg height="484pt" viewBox="0 0 484 484.00112" width="484pt" xmlns="http://www.w3.org/2000/svg"><path d="m116.136719 116.136719c-69.515625 69.511719-69.515625 182.214843 0 251.730469 69.511719 69.511718 182.214843 69.511718 251.730469 0 69.511718-69.515626 69.511718-182.21875 0-251.730469-69.402344-69.402344-182.328126-69.402344-251.730469 0zm237.585937 237.585937c-27.164062 27.207032-63.347656 43.527344-101.722656 45.878906v-28.746093c0-5.523438-4.476562-10-10-10s-10 4.476562-10 10v28.746093c-79.386719-4.957031-142.675781-68.214843-147.679688-147.601562h28.828126c5.523437 0 10-4.476562 10-10s-4.476563-10-10-10h-28.828126c5-79.382812 68.292969-142.640625 147.679688-147.597656v28.746094c0 5.523437 4.476562 10 10 10s10-4.476563 10-10v-28.746094c79.386719 4.957031 142.679688 68.214844 147.679688 147.597656h-28.824219c-5.523438 0-10 4.476562-10 10s4.476562 10 10 10h28.824219c-2.324219 38.398438-18.679688 74.597656-45.957032 101.722656zm0 0"/><path d="m300.492188 170.410156-87.746094 37.011719c-2.402344 1.011719-4.3125 2.925781-5.324219 5.328125l-37.011719 87.742188c-1.578125 3.746093-.734375 8.082031 2.144532 10.957031 2.875 2.875 7.207031 3.722656 10.957031 2.144531l87.742187-37.011719c2.402344-1.015625 4.3125-2.925781 5.328125-5.328125l37.007813-87.742187c1.582031-3.75.734375-8.082031-2.140625-10.957031-2.878907-2.878907-7.210938-3.722657-10.957031-2.144532zm-40.757813 89.324219-61.332031 25.871094 25.871094-61.335938 61.332031-25.867187zm0 0"/><path d="m242 0c-97.878906 0-186.121094 58.960938-223.578125 149.390625s-16.753906 194.519531 52.460937 263.730469c94.503907 94.507812 247.730469 94.507812 342.238282 0 94.507812-94.507813 94.507812-247.734375 0-342.238282-45.285156-45.535156-106.902344-71.058593-171.121094-70.882812zm156.980469 398.980469c-86.699219 86.695312-227.261719 86.695312-313.957031 0-86.695313-86.699219-86.695313-227.261719 0-313.957031 86.695312-86.695313 227.257812-86.695313 313.957031 0 86.695312 86.695312 86.695312 227.257812 0 313.957031zm0 0"/></svg>