<svg height="488pt" viewBox="-57 0 488 488.00024" width="488pt" xmlns="http://www.w3.org/2000/svg"><path d="m316.121094 64.917969h-42.738282c-6.132812-18.742188-22.40625-32.355469-41.933593-35.085938-7.402344-18.054687-24.984375-29.8437498-44.496094-29.832031-19.515625.0117188-37.082031 11.820312-44.460937 29.886719-19.367188 2.859375-35.457032 16.421875-41.546876 35.03125h-42.734374c-32.132813.035156-58.1757818 26.074219-58.210938 58.207031v306.664062c.0351562 32.132813 26.078125 58.175782 58.210938 58.210938h257.910156c32.132812-.035156 58.171875-26.078125 58.210937-58.210938v-306.660156c-.039062-32.136718-26.078125-58.175781-58.210937-58.210937zm-197.699219 15.933593c.019531-17.386718 14.109375-31.480468 31.5-31.5 4.621094 0 8.640625-3.167968 9.722656-7.660156 3.074219-12.609375 14.296875-21.535156 27.269531-21.691406 13.160157 0 24.601563 9.003906 27.214844 21.414062.972656 4.628907 5.054688 7.941407 9.785156 7.941407h.5c17.390626.015625 31.480469 14.109375 31.5 31.5v14.542969h-137.496093zm235.910156 348.9375c-.023437 21.09375-17.117187 38.1875-38.210937 38.210938h-257.910156c-21.09375-.023438-38.1875-17.117188-38.210938-38.210938v-306.660156c.023438-21.09375 17.117188-38.1875 38.210938-38.210937h40.207031v20.480469c0 5.523437 4.476562 10 10 10h157.492187c5.523438 0 10-4.476563 10-10v-20.480469h40.210938c21.09375.023437 38.183594 17.117187 38.210937 38.210937zm0 0"/></svg>