<svg height="486pt" viewBox="-54 0 486 486.85814" width="486pt" xmlns="http://www.w3.org/2000/svg"><path d="m328.433594 64.097656h-53.136719c-11.277344-38.019531-46.210937-64.097656-85.867187-64.097656s-74.589844 26.078125-85.867188 64.097656h-53.132812c-27.601563.03125-49.96875 22.398438-50 50v322.761719c.03125 27.601563 22.398437 49.96875 50 50h278.007812c27.601562-.03125 49.96875-22.398437 50-50v-322.761719c-.035156-27.601562-22.402344-49.96875-50.003906-50zm-208.5625 25.457032c0-38.414063 31.140625-69.558594 69.558594-69.558594 38.414062 0 69.558593 31.144531 69.558593 69.558594v29.714843h-139.117187zm149.117187 49.714843c5.480469 0 9.9375-4.410156 10-9.890625h24.75v196.28125h-64.527343c-11.042969.011719-19.988282 8.957032-20 20v66.5h-139.117188v-282.777344h19.785156c.058594 5.476563 4.519532 9.886719 10 9.886719zm20.730469 206.390625-50.507812 51.140625v-51.140625zm68.714844 91.199219c-.015625 16.5625-13.4375 29.980469-30 30h-278.011719c-16.558594-.019531-29.980469-13.4375-30-30v-322.761719c.019531-16.5625 13.441406-29.984375 30-30h49.628906c-.109375 1.808594-.179687 3.628906-.179687 5.457032v19.824218h-29.777344c-5.523438 0-10 4.476563-10 10v302.785156c0 5.519532 4.476562 10 10 10h158.121094c2.671875-.003906 5.234375-1.074218 7.113281-2.976562l85.523437-86.589844c1.851563-1.871094 2.886719-4.394531 2.886719-7.027344v-216.1875c0-5.523437-4.476562-10-10-10h-34.753906v-19.828124c0-1.828126-.066406-3.644532-.179687-5.457032h49.628906c16.5625.019532 29.980468 13.4375 30 30zm0 0"/></svg>