<svg height="475pt" viewBox="-64 0 475 475" width="475pt" xmlns="http://www.w3.org/2000/svg"><path d="m297.488281 75.820312h-36.84375c-3.738281-10.527343-11.71875-19.007812-22-23.378906l-14.292969-6.085937c-5.066406-2.152344-8.355468-7.125-8.347656-12.628907-.023437-18.617187-15.109375-33.7070308-33.730468-33.726562h-17.058594c-18.621094.0195312-33.707032 15.109375-33.726563 33.726562.003907 5.503907-3.28125 10.476563-8.347656 12.628907l-14.296875 6.085937c-10.28125 4.371094-18.261719 12.851563-22 23.378906h-36.84375c-27.601562.03125-49.96875 22.398438-50 50v299.179688c.03125 27.601562 22.398438 49.96875 50 50h247.484375c27.601563-.03125 49.96875-22.398438 50-50v-299.179688c-.027344-27.601562-22.394531-49.96875-49.996094-50zm-192.972656 13.421876c-.007813-8.019532 4.78125-15.265626 12.164063-18.398438l14.300781-6.085938c12.449219-5.285156 20.527343-17.507812 20.511719-31.03125.007812-7.574218 6.148437-13.714843 13.722656-13.726562h17.0625c7.578125.007812 13.71875 6.148438 13.726562 13.726562-.015625 13.523438 8.066406 25.742188 20.511719 31.03125l14.300781 6.085938c7.382813 3.132812 12.171875 10.378906 12.164063 18.398438v14.835937h-138.464844zm222.972656 335.757812c-.019531 16.5625-13.441406 29.980469-30 30h-247.484375c-16.5625-.019531-29.984375-13.4375-30-30v-299.179688c.015625-16.5625 13.4375-29.980468 30-30h34.511719v18.257813c0 5.523437 4.476563 10 10 10h158.460937c5.519532 0 10-4.476563 10-10v-18.257813h34.511719c16.558594.019532 29.980469 13.4375 30 30zm0 0"/><path d="m279.386719 286.539062h-211.28125c-5.523438 0-10 4.476563-10 10 0 5.523438 4.476562 10 10 10h211.28125c5.519531 0 10-4.476562 10-10 0-5.523437-4.480469-10-10-10zm0 0"/><path d="m68.105469 227.871094h87.332031c5.523438 0 10-4.476563 10-10 0-5.523438-4.476562-10-10-10h-87.332031c-5.523438 0-10 4.476562-10 10 0 5.523437 4.476562 10 10 10zm0 0"/><path d="m279.386719 359.921875h-211.28125c-5.523438 0-10 4.476563-10 10s4.476562 10 10 10h211.28125c5.519531 0 10-4.476563 10-10s-4.480469-10-10-10zm0 0"/></svg>