<svg height="447pt" viewBox="-41 0 447 447.65691" width="447pt" xmlns="http://www.w3.org/2000/svg"><path d="m355.601562 372.289062h-22.367187v-135.625c0-72.011718-50.921875-132.34375-118.648437-146.90625 16.675781-13.414062 23.074218-35.890624 15.960937-56.074218-7.109375-20.183594-26.179687-33.683594-47.582031-33.683594-21.398438 0-40.46875 13.5-47.578125 33.683594-7.113281 20.183594-.714844 42.660156 15.957031 56.074218-67.722656 14.5625-118.644531 74.898438-118.644531 146.90625v135.625h-22.371094c-5.523437 0-10 4.476563-10 10 0 5.523438 4.476563 10 10 10h112.941406c2.351563 31.230469 28.378907 55.367188 59.695313 55.367188s57.34375-24.136719 59.695312-55.367188h112.941406c5.523438 0 10-4.476562 10-10 0-5.523437-4.476562-10-10-10zm-172.636718-352.25c16.816406 0 30.449218 13.632813 30.449218 30.449219 0 16.816407-13.628906 30.449219-30.449218 30.449219-16.816406 0-30.449219-13.632812-30.449219-30.449219.019531-16.808593 13.640625-30.429687 30.449219-30.449219zm0 86.359376c71.910156.082031 130.1875 58.355468 130.269531 130.265624v47.433594h-260.535156v-47.433594c.078125-71.910156 58.355469-130.183593 130.265625-130.265624zm-130.265625 197.699218h260.535156v68.191406h-260.535156zm130.265625 123.5625c-20.269532-.027344-37.304688-15.234375-39.617188-35.371094h79.238282c-2.316407 20.136719-19.351563 35.34375-39.621094 35.371094zm0 0"/></svg>