<svg height="496pt" viewBox="-10 0 496 496" width="496pt" xmlns="http://www.w3.org/2000/svg"><path d="m397.210938 64.398438h-15.046876v-24.398438c-.027343-22.082031-17.921874-39.9765625-40-40h-302.164062c-22.082031.0234375-39.9765625 17.917969-40 40v68.789062c.0234375 22.082032 17.917969 39.976563 40 40h302.164062c22.078126-.023437 39.972657-17.917968 40-40v-24.390624h15.046876c32.777343 0 59.347656 26.574218 59.347656 59.351562s-26.570313 59.351562-59.347656 59.351562h-163.652344c-22.082032.023438-39.976563 17.917969-40 40v19.4375h-44.578125c-5.523438 0-10 4.480469-10 10v173.460938c.03125 27.601562 22.398437 49.96875 50 50h24.207031c27.601562-.03125 49.96875-22.398438 50-50v-173.464844c0-5.523437-4.476562-10-10-10h-39.628906v-19.441406c.011718-11.039062 8.957031-19.988281 20-20h163.652344c43.820312 0 79.347656-35.527344 79.347656-79.351562 0-43.820313-35.527344-79.347657-79.347656-79.347657zm-35.046876 44.402343c-.015624 11.039063-8.960937 19.988281-20 20h-302.164062c-11.039062-.011719-19.988281-8.960937-20-20v-68.800781c.011719-11.039062 8.960938-19.988281 20-20h302.164062c11.039063.011719 19.984376 8.960938 20 20zm-118.976562 337.199219c-.019531 16.5625-13.441406 29.980469-30 30h-24.207031c-16.5625-.019531-29.984375-13.4375-30-30v-163.464844h84.207031zm0 0"/></svg>