<svg height="482pt" viewBox="-97 0 482 482" width="482pt" xmlns="http://www.w3.org/2000/svg"><path d="m288.042969 41.535156c-.027344-22.929687-18.605469-41.5078122-41.535157-41.535156h-204.972656c-22.929687.0273438-41.5117185 18.605469-41.535156 41.535156v398.929688c.0273438 22.929687 18.605469 41.507812 41.535156 41.535156h205.4375c11.167969-.019531 21.855469-4.539062 29.652344-12.53125 7.605469-7.761719 11.726562-18.285156 11.417969-29.144531zm-246.507813-21.535156h204.972656c11.890626.015625 21.523438 9.648438 21.535157 21.535156v26.277344h-248.046875v-26.277344c.015625-11.890625 9.648437-21.523437 21.539062-21.535156zm226.511719 67.8125v274.839844h-248.050781v-274.839844zm-5.773437 367.730469c-4.003907 4.148437-9.53125 6.480469-15.296876 6.457031h-205.441406c-11.890625-.015625-21.523437-9.648438-21.535156-21.535156v-57.8125h248.042969v57.8125.300781c.171875 5.507813-1.910157 10.84375-5.769531 14.777344zm0 0"/><path d="m167.160156 409.699219h-46.277344c-5.523437 0-10 4.476562-10 10 0 5.523437 4.476563 10 10 10h46.277344c5.523438 0 10-4.476563 10-10 0-5.523438-4.476562-10-10-10zm0 0"/></svg>