<svg height="432pt" viewBox="-72 0 432 432.326" width="432pt" xmlns="http://www.w3.org/2000/svg"><path d="m223.222656 137.246094 9.546875-81.808594c1.640625-14.082031-2.8125-28.195312-12.238281-38.789062-9.425781-10.589844-22.929688-16.648438-37.109375-16.648438h-78.234375c-14.179688 0-27.683594 6.058594-37.109375 16.648438-9.429687 10.59375-13.882813 24.707031-12.238281 38.789062l9.5 81.453125c-8.339844 5.457031-16.089844 11.765625-23.136719 18.8125-27.171875 26.996094-42.324219 63.800781-42.035156 102.101563v7.308593c0 5.523438 4.476562 10 10 10h124.136719v147.210938c0 5.523437 4.476562 10 10 10 5.519531 0 10-4.476563 10-10v-147.210938h124.132812c5.523438 0 10-4.476562 10-10v-7.308593c-.019531-48.613282-24.539062-93.941407-65.214844-120.558594zm-140.207031-107.300782c5.632813-6.324218 13.699219-9.941406 22.171875-9.945312h78.234375c8.46875 0 16.539063 3.621094 22.171875 9.945312 5.628906 6.328126 8.289062 14.761719 7.308594 23.175782l-.746094 6.398437h-135.699219l-.75-6.398437c-.976562-8.414063 1.679688-16.84375 7.308594-23.175782zm-4.230469 49.578126h131.039063l-5.511719 47.238281c-18.804688-8.648438-39.261719-13.117188-59.957031-13.097657h-.726563c-20.480468-.039062-40.722656 4.328126-59.367187 12.800782zm-58.601562 175.589843c1.140625-67.640625 56.472656-121.78125 124.121094-121.449219 67.480468.074219 122.570312 53.984376 124.105468 121.449219zm0 0"/></svg>