<svg height="441pt" viewBox="-87 0 441 441.43" width="441pt" xmlns="http://www.w3.org/2000/svg"><path d="m228.941406 195.542969c-4.117187-4.121094-8.5-7.96875-13.113281-11.523438l-17.304687-99.574219h18.714843c5.523438 0 10-4.476562 10-10v-24.445312c-.03125-27.601562-22.398437-49.96875-50-50h-86.707031c-27.601562.03125-49.96875 22.398438-50 50v24.445312c0 5.523438 4.476562 10 10 10h19.15625l-17.308594 99.578126c-4.613281 3.554687-8.992187 7.402343-13.113281 11.519531-25.238281 25.074219-39.3125 59.257812-39.046875 94.835937v6.75c0 5.523438 4.476562 10 10 10h113.886719v124.300782c0 5.523437 4.476562 10 10 10 5.523437 0 10-4.476563 10-10v-124.300782h113.886719c5.519531 0 10-4.476562 10-10v-6.699218c.273437-35.59375-13.800782-69.796876-39.050782-94.886719zm-168.410156-145.542969c.019531-16.5625 13.441406-29.980469 30-30h86.707031c16.5625.019531 29.980469 13.4375 30 30v14.445312h-146.707031zm29.457031 34.445312h88.234375l14.851563 85.445313c-37.285157-17.867187-80.65625-17.863281-117.9375.011719zm-69.738281 202.683594c1.390625-45.445312 29.625-85.730468 71.871094-102.546875 42.242187-16.816406 90.441406-6.953125 122.683594 25.101563 20.671874 20.542968 32.5625 48.308594 33.160156 77.445312zm0 0"/></svg>