<svg height="434pt" viewBox="0 -58 434.17 434" width="434pt" xmlns="http://www.w3.org/2000/svg"><path d="m394.171875.0859375h-354.171875c-22.082031.0234375-39.9765625 17.9179685-40 40.0000005v238c.0234375 22.082031 17.917969 39.972656 40 40h354.171875c22.078125-.027344 39.972656-17.917969 40-40v-238c-.027344-22.082032-17.921875-39.976563-40-40.0000005zm20 40.0000005v61.015624h-81.121094v-81.015624h61.121094c11.039063.011718 19.984375 8.957031 20 20zm-313.054687 156.980468h-81.117188v-75.964844h81.117188zm20-176.980468h191.933593v278h-191.933593zm211.933593 101.015624h81.121094v75.964844h-81.121094zm-293.050781-101.015624h61.117188v81.015624h-81.117188v-61.015624c.011719-11.042969 8.960938-19.988282 20-20zm-20 258v-61.019532h81.117188v81.019532h-61.117188c-11.039062-.011719-19.988281-8.960938-20-20zm374.171875 20h-61.121094v-81.019532h81.121094v61.019532c-.015625 11.039062-8.960937 19.988281-20 20zm0 0"/><path d="m271.507812 150.628906-98.167968-62c-3.078125-1.945312-6.976563-2.0625-10.164063-.300781-3.191406 1.757813-5.175781 5.113281-5.175781 8.757813v124c0 3.644531 1.984375 7 5.175781 8.757812 3.1875 1.757812 7.085938 1.640625 10.164063-.304688l98.167968-62c2.902344-1.832031 4.660157-5.023437 4.660157-8.453124 0-3.433594-1.757813-6.625-4.660157-8.457032zm-93.503906 52.3125v-87.714844l69.4375 43.859376zm0 0"/></svg>