<svg height="479pt" viewBox="0 -60 479.735 479" width="479pt" xmlns="http://www.w3.org/2000/svg"><path d="m469.734375 340.332031c-19.019531 0-27.890625-8.347656-39.121094-18.917969-12.125-11.414062-25.875-24.351562-52.824219-24.351562-.277343 0-.542968.007812-.816406.011719v-232.132813c.054688-18.894531-10.59375-36.1875-27.488281-44.644531l-37.5-18.914063c-4.921875-2.40625-10.859375-.40625-13.324219 4.484376-2.464844 4.890624-.539062 10.855468 4.324219 13.375l37.5 18.914062c10.136719 5.070312 16.527344 15.449219 16.492187 26.785156v47.320313h-174.71875v-47.320313c.058594-18.894531-10.59375-36.191406-27.492187-44.644531l-37.5-18.914063c-4.917969-2.40625-10.859375-.40625-13.324219 4.484376-2.464844 4.890624-.535156 10.855468 4.324219 13.375l37.5 18.914062c10.140625 5.070312 16.53125 15.449219 16.496094 26.785156v239.832032c-8.484375 4.6875-15.046875 10.855468-21.195313 16.640624-11.226562 10.570313-20.097656 18.917969-39.121094 18.917969-19.019531 0-27.890624-8.347656-39.117187-18.917969-12.128906-11.414062-25.875-24.351562-52.828125-24.351562-5.523438 0-10 4.476562-10 10s4.476562 10 10 10c19.019531 0 27.890625 8.347656 39.121094 18.917969 12.125 11.414062 25.875 24.351562 52.824218 24.351562 26.953126 0 40.703126-12.9375 52.828126-24.351562 11.230468-10.570313 20.101562-18.917969 39.121093-18.917969s27.890625 8.347656 39.121094 18.917969c12.125 11.414062 25.875 24.351562 52.824219 24.351562 26.953125 0 40.699218-12.9375 52.828125-24.351562 11.230469-10.570313 20.101562-18.917969 39.121093-18.917969 19.019532 0 27.890626 8.347656 39.117188 18.917969 12.128906 11.414062 25.875 24.351562 52.828125 24.351562 5.523437 0 10-4.476562 10-10 0-5.523437-4.476563-10-10-10zm-112.765625-208.070312v78.171875h-174.710938v-78.171875zm-32.011719 189.152343c-11.230469 10.570313-20.101562 18.917969-39.121093 18.917969-19.019532 0-27.890626-8.347656-39.117188-18.917969-12.128906-11.414062-25.875-24.351562-52.828125-24.351562-3.894531-.011719-7.785156.28125-11.636719.882812v-67.511718h174.714844v69.679687c-14.148438 4.507813-23.484375 13.277344-32.007812 21.300781zm0 0"/></svg>