<svg height="484pt" viewBox="-20 0 484 484.64492" width="484pt" xmlns="http://www.w3.org/2000/svg"><path d="m402.394531 0h-360.59375c-22.898437.0234375-41.453125 18.582031-41.476562 41.480469v44.898437c.019531 17.652344 11.195312 33.363282 27.863281 39.171875v184.5625c.03125 28.691407 23.28125 51.941407 51.972656 51.972657h131.9375v49.445312c-17.898437 5.285156-29.140625 22.980469-26.324218 41.425781 2.816406 18.449219 18.824218 31.980469 37.484374 31.683594 18.660157-.296875 34.230469-14.328125 36.460938-32.855469s-9.566406-35.855468-27.621094-40.570312v-49.128906h131.9375c28.6875-.03125 51.9375-23.28125 51.972656-51.972657v-184.558593c16.664063-5.808594 27.839844-21.519532 27.863282-39.171876v-44.898437c-.023438-22.898437-18.578125-41.4570312-41.476563-41.484375zm-162.40625 447.332031c0 9.574219-7.761719 17.335938-17.335937 17.332031-9.570313 0-17.332032-7.757812-17.332032-17.332031s7.761719-17.332031 17.335938-17.332031c9.566406.011719 17.320312 7.765625 17.332031 17.332031zm124.046875-105.242187h-283.875c-17.652344-.019532-31.953125-14.324219-31.972656-31.972656v-182.253907h347.816406v182.253907c-.019531 17.648437-14.320312 31.953124-31.96875 31.972656zm59.835938-255.707032c-.011719 11.855469-9.617188 21.464844-21.476563 21.480469h-360.59375c-11.855469-.011719-21.464843-9.621093-21.476562-21.480469v-44.898437c.007812-11.859375 9.617187-21.472656 21.476562-21.484375h360.59375c11.859375.011719 21.46875 9.621094 21.480469 21.480469zm0 0"/></svg>