<svg height="418pt" viewBox="-12 0 418 418.444" width="418pt" xmlns="http://www.w3.org/2000/svg"><path d="m343.421875 49.984375h-293.199219c-27.601562.03125-49.96875 22.402344-50 50v195.460937c.03125 27.601563 22.398438 49.96875 50 50h8.730469l-21.960937 19.007813c-2.738282 2.328125-4.015626 5.945313-3.347657 9.476563s3.179688 6.429687 6.578125 7.597656c3.398438 1.167968 7.160156.421875 9.855469-1.953125l39.4375-34.128907h97.304687v63c0 5.523438 4.480469 10 10 10 5.523438 0 10-4.476562 10-10v-63h98.65625l38 33.613282c4.136719 3.660156 10.457032 3.273437 14.117188-.863282 3.660156-4.136718 3.273438-10.457031-.863281-14.117187l-21.070313-18.632813h7.761719c27.601563-.03125 49.96875-22.398437 50-50v-195.460937c-.03125-27.601563-22.398437-49.96875-50-50zm30 245.460937c-.019531 16.558594-13.4375 29.980469-30 30h-293.199219c-16.5625-.019531-29.980468-13.441406-30-30v-195.460937c.019532-16.558594 13.4375-29.980469 30-30h293.199219c16.5625.019531 29.980469 13.441406 30 30zm0 0"/><path d="m63.535156 20h266.574219c5.519531 0 10-4.476562 10-10s-4.480469-10-10-10h-266.574219c-5.523437 0-10 4.476562-10 10s4.476563 10 10 10zm0 0"/><path d="m77.820312 145.222656h108c5.523438 0 10-4.476562 10-10 0-5.523437-4.476562-10-10-10h-108c-5.519531 0-10 4.476563-10 10 0 5.523438 4.480469 10 10 10zm0 0"/><path d="m315.820312 185.222656h-238c-5.519531 0-10 4.476563-10 10 0 5.523438 4.480469 10 10 10h238c5.523438 0 10-4.476562 10-10 0-5.523437-4.476562-10-10-10zm0 0"/><path d="m315.820312 245.222656h-238c-5.519531 0-10 4.476563-10 10 0 5.523438 4.480469 10 10 10h238c5.523438 0 10-4.476562 10-10 0-5.523437-4.476562-10-10-10zm0 0"/></svg>