<svg height="446pt" viewBox="0 -11 446 446" width="446pt" xmlns="http://www.w3.org/2000/svg"><path d="m396 0h-346c-27.601562.03125-49.96875 22.398438-50 50v47.261719c0 5.523437 4.476562 10 10 10h13.632812v237.84375c0 5.523437 4.476563 10 10 10h161.1875l-66.5 50.488281c-4.398437 3.34375-5.253906 9.617188-1.914062 14.015625 3.34375 4.398437 9.617188 5.257813 14.015625 1.914063l83.636719-63.5 83.636718 63.5c4.398438 3.339843 10.671876 2.480468 14.015626-1.917969 3.339843-4.398438 2.480468-10.671875-1.917969-14.011719l-66.5-50.488281h159.078125c5.523437 0 10-4.476563 10-10v-237.84375h13.628906c5.523438 0 10-4.476563 10-10v-47.261719c-.03125-27.601562-22.398438-49.96875-50-50zm6.367188 335.105469h-358.734376v-227.84375h358.734376zm23.632812-247.84375h-406v-37.261719c.019531-16.5625 13.4375-29.980469 30-30h346c16.5625.019531 29.980469 13.4375 30 30zm0 0"/><path d="m104 167.78125h108c5.523438 0 10-4.476562 10-10s-4.476562-10-10-10h-108c-5.523438 0-10 4.476562-10 10s4.476562 10 10 10zm0 0"/><path d="m104 227.78125h238c5.523438 0 10-4.476562 10-10s-4.476562-10-10-10h-238c-5.523438 0-10 4.476562-10 10s4.476562 10 10 10zm0 0"/><path d="m342 267.78125h-238c-5.523438 0-10 4.476562-10 10s4.476562 10 10 10h238c5.523438 0 10-4.476562 10-10s-4.476562-10-10-10zm0 0"/></svg>