<svg height="442pt" viewBox="-45 0 442 442" width="442pt" xmlns="http://www.w3.org/2000/svg"><path d="m244.921875 2.78125c-1.863281-1.785156-4.34375-2.78125-6.921875-2.78125h-188c-27.601562.03125-49.96875 22.398438-50 50v342c.03125 27.601562 22.398438 49.96875 50 50h251.511719c27.601562-.03125 49.96875-22.398438 50-50v-282.78125c0-2.722656-1.113281-5.332031-3.078125-7.21875zm3.078125 30.65625 67.738281 64.925781h-47.738281c-11.039062-.011719-19.988281-8.957031-20-20zm53.511719 388.5625h-251.511719c-16.5625-.019531-29.980469-13.4375-30-30v-342c.019531-16.5625 13.4375-29.980469 30-30h178v58.367188c.023438 22.078124 17.917969 39.972656 40 40h63.511719v273.632812c-.019531 16.5625-13.4375 29.980469-30 30zm0 0"/><path d="m174.214844 229.019531c26.839844 0 48.597656-21.761719 48.597656-48.601562 0-26.839844-21.757812-48.601563-48.597656-48.601563-26.84375 0-48.601563 21.761719-48.601563 48.601563.027344 26.828125 21.769531 48.570312 48.601563 48.601562zm0-77.195312c15.792968 0 28.597656 12.804687 28.597656 28.597656 0 15.796875-12.804688 28.601563-28.597656 28.601563-15.796875 0-28.601563-12.804688-28.601563-28.601563.015625-15.789063 12.8125-28.582031 28.601563-28.597656zm0 0"/><path d="m193.328125 233.050781h-34.558594c-37.339843.039063-67.597656 30.296875-67.636719 67.636719v44.699219c0 5.523437 4.476563 10 10 10h149.246094c5.523438 0 10-4.476563 10-10v-45.757813c0-36.714844-30.078125-66.578125-67.050781-66.578125zm47.050781 102.339844h-129.242187v-34.699219c.027343-26.296875 21.335937-47.609375 47.632812-47.640625h34.558594c25.945313 0 47.050781 20.898438 47.050781 46.578125zm0 0"/></svg>