<svg height="479pt" viewBox="-38 1 479 479.99962" width="479pt" xmlns="http://www.w3.org/2000/svg"><path d="m398.457031 139.441406-191.058593-137.558594c-3.488282-2.511718-8.195313-2.511718-11.683594 0l-191.058594 137.558594c-2.609375 1.878906-4.15625 4.898438-4.15625 8.113282v322.445312c0 5.523438 4.476562 10 10 10h382.109375c5.523437 0 10-4.476562 10-10v-322.445312c0-3.214844-1.542969-6.234376-4.152344-8.113282zm-124.464843 320.558594h-150.488282v-99.726562h150.488282zm108.621093 0h-88.621093v-109.726562c0-5.523438-4.480469-10-10-10h-170.488282c-5.523437 0-10 4.476562-10 10v109.726562h-83v-307.320312l181.054688-130.359376 181.054687 130.359376zm0 0"/><path d="m174.683594 174.566406h-87.710938c-5.523437 0-10 4.476563-10 10v79.398438c0 5.523437 4.476563 10 10 10h87.710938c5.523437 0 10-4.476563 10-10v-79.398438c0-5.523437-4.476563-10-10-10zm-10 79.398438h-67.710938v-59.398438h67.710938zm0 0"/><path d="m228.429688 273.96875h87.710937c5.523437 0 10-4.476562 10-10v-79.398438c0-5.523437-4.476563-10-10-10h-87.710937c-5.523438 0-10 4.476563-10 10v79.398438c0 5.523438 4.476562 10 10 10zm10-79.398438h67.710937v59.398438h-67.710937zm0 0"/></svg>