<svg height="409pt" viewBox="0 -31 409.9 409" width="409pt" xmlns="http://www.w3.org/2000/svg"><path d="m359.898438.449219h-309.898438c-27.601562.03125-49.96875 22.398437-50 50v246c.03125 27.601562 22.398438 49.96875 50 50h309.898438c27.601562-.03125 49.96875-22.398438 50-50v-246c-.03125-27.601563-22.398438-49.96875-50-50zm0 326h-309.898438c-16.5625-.019531-29.980469-13.4375-30-30v-246c.019531-16.558594 13.4375-29.980469 30-30h309.898438c16.5625.019531 29.984374 13.441406 30 30v33.644531h-83.257813c-27.601563.03125-49.96875 22.398438-50 50v78.710938c.03125 27.601562 22.398437 49.96875 50 50h83.257813v33.644531c-.015626 16.5625-13.4375 29.980469-30 30zm30-222.355469v138.710938h-83.257813c-16.558594-.019532-29.980469-13.4375-30-30v-78.710938c.019531-16.558594 13.441406-29.980469 30-30zm0 0"/><path d="m322.640625 212.804688c5.523437 0 10-4.476563 10-10v-58.710938c0-5.523438-4.476563-10-10-10-5.519531 0-10 4.476562-10 10v58.710938c0 5.523437 4.480469 10 10 10zm0 0"/></svg>