<svg height="440pt" viewBox="-1 0 440 440.00026" width="440pt" xmlns="http://www.w3.org/2000/svg"><path d="m387.558594 115.84375h-272.472656l141.046874-97.621094c4.539063-3.140625 5.675782-9.371094 2.53125-13.914062-3.144531-4.539063-9.371093-5.675782-13.914062-2.53125l-164.808594 114.066406h-29.941406c-27.601562.03125-49.96875 22.398438-50 50v224.15625c.03125 27.601562 22.398438 49.96875 50 50h337.558594c27.601562-.03125 49.96875-22.398438 50-50v-224.15625c-.03125-27.601562-22.398438-49.96875-50-50zm30 274.15625c-.019532 16.5625-13.441406 29.980469-30 30h-337.558594c-16.558594-.019531-29.980469-13.4375-30-30v-224.15625c.019531-16.558594 13.441406-29.980469 30-30h337.558594c16.558594.019531 29.980468 13.441406 30 30zm0 0"/><path d="m139.992188 200.066406c-43.707032 43.707032-43.707032 114.570313 0 158.277344 43.707031 43.707031 114.570312 43.707031 158.277343 0s43.707031-114.570312 0-158.277344c-43.734375-43.636718-114.539062-43.636718-158.277343 0zm7.4375 136.640625c-7.347657-9.140625-12.859376-19.613281-16.242188-30.84375l115.304688-114.375c10.761718 3.335938 20.808593 8.632813 29.640624 15.628907zm142.960937-115.566406c7.90625 9.6875 13.730469 20.898437 17.121094 32.9375l-114.960938 113.097656c-11.285156-3.386719-21.808593-8.929687-30.984375-16.316406zm-136.253906-6.929687c17.226562-17.25 40.617187-26.925782 65-26.878907 1.027343 0 2.054687.039063 3.082031.070313l-94.902344 94.136718c-.691406-25.175781 9.007813-49.523437 26.820313-67.328124zm129.992187 129.988281c-17.71875 17.730469-41.925781 27.425781-66.980468 26.835937l93.847656-92.332031c.179687 24.550781-9.5 48.144531-26.867188 65.496094zm0 0"/></svg>