<svg height="437pt" viewBox="0 -10 437.477 437" width="437pt" xmlns="http://www.w3.org/2000/svg"><path d="m387.476562 129.082031h-48.691406l44.722656-115.300781c1.945313-5.136719-.617187-10.878906-5.738281-12.867188-5.121093-1.984374-10.882812.53125-12.910156 5.636719l-47.519531 122.53125h-50.269532v-19.492187c-.03125-27.601563-22.398437-49.96875-50-50h-103.253906c-27.601562.03125-49.96875 22.398437-50 50v19.492187h-13.816406c-27.601562.03125-49.96875 22.398438-50 50v189.085938c.03125 27.601562 22.398438 49.96875 50 50h337.476562c27.601563-.03125 49.96875-22.398438 50-50v-189.085938c-.03125-27.601562-22.398437-49.972656-50-50zm-303.660156-19.492187c.019532-16.5625 13.441406-29.984375 30-30h103.253906c16.558594.015625 29.980469 13.4375 30 30v19.492187h-163.253906zm333.660156 258.578125c-.019531 16.5625-13.4375 29.980469-30 30h-337.476562c-16.5625-.019531-29.980469-13.4375-30-30v-189.085938c.019531-16.5625 13.4375-29.980469 30-30h274.117188.0625.078124 63.21875c16.5625.019531 29.980469 13.4375 30 30zm0 0"/><path d="m282.078125 171.167969c-56.730469 0-102.71875 45.988281-102.71875 102.71875s45.988281 102.71875 102.71875 102.71875 102.71875-45.992188 102.71875-102.71875c-.066406-56.703125-46.015625-102.65625-102.71875-102.71875zm0 185.433593c-45.683594 0-82.71875-37.03125-82.71875-82.714843 0-45.6875 37.035156-82.71875 82.71875-82.71875s82.71875 37.03125 82.71875 82.71875c-.050781 45.660156-37.054687 82.664062-82.71875 82.714843zm0 0"/><path d="m282.078125 229.199219c-24.679687 0-44.6875 20.007812-44.6875 44.6875 0 24.679687 20.007813 44.683593 44.6875 44.683593s44.6875-20.003906 44.6875-44.683593c-.03125-24.667969-20.019531-44.660157-44.6875-44.6875zm0 69.371093c-13.632813 0-24.6875-11.050781-24.6875-24.683593 0-13.636719 11.054687-24.6875 24.6875-24.6875s24.6875 11.050781 24.6875 24.6875c-.019531 13.625-11.0625 24.664062-24.6875 24.679687zm0 0"/><path d="m146.738281 242.167969h-81c-5.523437 0-10 4.476562-10 10 0 5.523437 4.476563 10 10 10h81c5.523438 0 10-4.476563 10-10 0-5.523438-4.476562-10-10-10zm0 0"/></svg>