<svg height="478pt" viewBox="0 -43 478.7394 478" width="478pt" xmlns="http://www.w3.org/2000/svg"><path d="m464.3125 42c-9.082031-7.570312-21.054688-10.722656-32.6875-8.605469l-.945312.140625c-3.503907-20.289062-21.851563-34.597656-42.382813-33.050781l-144.796875 10.832031c-.996094.074219-1.992188.074219-2.984375 0l-144.800781-10.835937c-20.859375-1.5625-39.398438 13.214843-42.527344 33.894531l-6.015625-1.039062c-11.671875-2.125-23.6875 1.039062-32.796875 8.636718-9.109375 7.601563-14.375 18.851563-14.375 30.714844v259.640625c-.0664062 20.601563 15.582031 37.859375 36.09375 39.808594l196.4375 19.28125c2.269531.222656 4.554688.335937 6.839844.335937s4.566406-.113281 6.835937-.335937l196.4375-19.28125c20.511719-1.949219 36.160157-19.207031 36.09375-39.808594v-259.574219c.015625-11.890625-5.273437-23.164062-14.425781-30.753906zm-74.519531-21.574219c5.546875-.414062 11.015625 1.5 15.09375 5.285157 4.082031 3.785156 6.398437 9.097656 6.398437 14.660156v248.898437c-.042968 10.453125-8.089844 19.125-18.507812 19.945313l-140.769532 10.535156v-289.011719zm-317.0625 19.945313c0-11.027344 8.921875-19.972656 19.949219-20 .511718 0 1.027343.019531 1.542968.058594l137.785156 10.308593v289.011719l-140.769531-10.53125c-10.417969-.820312-18.46875-9.496094-18.507812-19.945312zm386.007812 291.957031c.03125 10.300781-7.792969 18.925781-18.046875 19.898437l-196.4375 19.285157c-3.25.320312-6.519531.320312-9.769531 0l-196.4375-19.28125c-10.253906-.972657-18.074219-9.597657-18.046875-19.898438v-259.644531c0-5.9375 2.636719-11.566406 7.199219-15.367188 4.5625-3.800781 10.574219-5.375 16.414062-4.304687l.101563.019531 9.011718 1.558594v234.679688c.082032 20.902343 16.179688 38.25 37.019532 39.886718l151.515625 11.339844c.25.019531.496093.027344.746093.027344s.5-.011719.746094-.027344l151.515625-11.339844c20.835938-1.640625 36.933594-18.984375 37.015625-39.886718v-235.605469l3.464844-.519531c.113281-.019532.230469-.039063.34375-.058594 5.84375-1.085938 11.867188.484375 16.433594 4.285156 4.570312 3.800781 7.214844 9.4375 7.214844 15.378906v259.574219zm0 0"/></svg>