<svg height="470pt" viewBox="-87 0 470 470" width="470pt" xmlns="http://www.w3.org/2000/svg"><path d="m105.417969 2c-5.523438 0-10 4.476562-10 10v63.289062c-.023438 16.96875-11.355469 31.835938-27.707031 36.355469v-99.644531c0-5.523438-4.480469-10-10-10-5.523438 0-10 4.476562-10 10v99.644531c-16.355469-4.519531-27.6875-19.386719-27.710938-36.355469v-63.289062c0-5.523438-4.476562-10-10-10s-10 4.476562-10 10v63.289062c.0390625 28 20.140625 51.941407 47.710938 56.824219v111.929688c-20.261719 2.257812-35.59375 19.371093-35.621094 39.757812v176.199219c0 5.523438 4.476562 10 10 10h71.238281c5.523437 0 10-4.476562 10-10v-176.199219c-.027344-20.386719-15.359375-37.5-35.617187-39.753906v-111.933594c27.566406-4.882812 47.667968-28.824219 47.707031-56.824219v-63.289062c0-5.523438-4.476563-10-10-10zm-22.089844 281.800781v166.199219h-51.234375v-166.199219c.011719-11.042969 8.957031-19.988281 20-20h11.234375c11.039063.011719 19.988281 8.957031 20 20zm0 0"/><path d="m256.292969 0h-62.226563c-5.519531 0-10 4.476562-10 10v304.539062c0 5.523438 4.480469 10 10 10h10.992188v135.460938c0 5.523438 4.476562 10 10 10h71.234375c5.523437 0 10-4.476562 10-10v-420c-.023438-22.082031-17.917969-39.9765625-40-40zm-52.222657 20h52.222657c11.042969.011719 19.988281 8.960938 20 20v264.539062h-72.222657zm20.988282 430v-125.460938h51.234375v125.460938zm0 0"/></svg>