<svg height="410pt" viewBox="0 0 410.45607 410" width="410pt" xmlns="http://www.w3.org/2000/svg"><path d="m398.707031 5.015625c-63.1875-17.550781-119.363281 17.09375-142.597656 40.332031-.144531.144532-.316406.332032-.449219.480469-1.355468 1.53125-12.488281 12.875-57.832031 58.242187-8.164063 8.152344-18.886719 13.238282-30.363281 14.402344l-62.351563 6.265625c-20.65625 2.09375-39.957031 11.238281-54.652343 25.902344l-34.835938 34.84375c-2.921875 2.921875-3.746094 7.339844-2.074219 11.117187 1.671875 3.777344 5.496094 6.140626 9.621094 5.941407l94.226563-4.507813-33.371094 47.140625c-2.816406 3.976563-2.355469 9.402344 1.089844 12.847657l67.539062 67.539062c3.445312 3.445312 8.871094 3.90625 12.847656 1.089844l47.140625-33.371094-4.507812 94.226562c-.199219 4.125 2.164062 7.949219 5.941406 9.621094s8.195313.847656 11.117187-2.074218l34.914063-34.910157c14.613281-14.644531 23.753906-33.867187 25.886719-54.449219l6.402344-62.316406c1.183593-11.429687 6.257812-22.109375 14.378906-30.242187l58.558594-58.5625c23.238281-23.238281 57.882812-79.421875 40.332031-142.601563-.9375-3.378906-3.578125-6.019531-6.960938-6.957031zm-132.605469 298.636719c-1.660156 16.007812-8.769531 30.957031-20.140624 42.347656l-16.613282 16.617188 4.253906-88.875c.183594-3.820313-1.828124-7.410157-5.183593-9.246094-3.351563-1.839844-7.460938-1.601563-10.582031.605468l-57.003907 40.355469-55.609375-55.609375 40.355469-57c2.207031-3.121094 2.445313-7.230468.605469-10.585937-1.835938-3.351563-5.425782-5.363281-9.246094-5.179688l-88.875 4.246094 16.546875-16.546875c11.425781-11.402344 26.4375-18.519531 42.5-20.148438l62.355469-6.269531c4.578125-.464843 9.101562-1.382812 13.5-2.742187l92.285156 92.285156c-1.355469 4.375-2.277344 8.875-2.75 13.429688zm26.527344-104.660156c-3.015625 3.023437-5.75 6.320312-8.164062 9.847656l-82.414063-82.417969c3.554688-2.425781 6.875-5.175781 9.921875-8.21875 11.035156-11.039063 19.976563-20 27.261719-27.308594l80.746094 80.746094zm58.566406-58.5625-17.070312 17.070312-80.78125-80.785156c12.105469-12.191406 15.867188-16.078125 17.085938-17.410156 19.582031-19.476563 65.484374-48.015626 117.363281-36.417969 11.632812 52.042969-17.117188 98.0625-36.597657 117.542969zm0 0"/><path d="m76.710938 319.824219-51.984376 51.992187c-2.546874 2.523438-3.546874 6.214844-2.625 9.675782.921876 3.460937 3.628907 6.167968 7.089844 7.089843 3.460938.921875 7.152344-.078125 9.675782-2.625l51.988281-51.984375c3.875-3.910156 3.859375-10.21875-.03125-14.113281-3.894531-3.894531-10.203125-3.90625-14.113281-.03125zm0 0"/><path d="m128.757812 358.199219c-4.777343-2.773438-10.898437-1.152344-13.671874 3.625l-19.585938 33.730469c-2.773438 4.777343-1.152344 10.898437 3.625 13.671874 4.777344 2.773438 10.898438 1.148438 13.671875-3.628906l19.589844-33.730468c2.773437-4.777344 1.148437-10.898438-3.628907-13.667969zm0 0"/><path d="m52.480469 281.921875c-2.773438-4.773437-8.894531-6.398437-13.667969-3.625l-33.730469 19.589844c-3.136719 1.769531-5.07812475 5.089843-5.082031 8.691406s1.925781 6.925781 5.054688 8.707031c3.132812 1.777344 6.976562 1.738282 10.070312-.105468l33.730469-19.589844c4.773437-2.773438 6.398437-8.890625 3.625-13.667969zm0 0"/></svg>