<svg height="457pt" viewBox="0 -9 457.075 457" width="457pt" xmlns="http://www.w3.org/2000/svg"><path d="m194.597656 163.261719c-3.820312 3.921875-3.78125 10.183593.085938 14.054687 3.871094 3.871094 10.132812 3.910156 14.054687.089844 11.105469-11.085938 29.089844-11.085938 40.199219 0 2.523438 2.542969 6.214844 3.542969 9.675781 2.621094 3.460938-.921875 6.167969-3.625 7.089844-7.085938.921875-3.464844-.078125-7.15625-2.625-9.679687-18.921875-18.878907-49.558594-18.878907-68.480469 0zm0 0"/><path d="m304.648438 126.515625c4.035156 0 7.671874-2.421875 9.230468-6.144531 1.554688-3.722656.71875-8.011719-2.113281-10.882813-21.648437-22.019531-51.234375-34.417969-82.113281-34.410156h-.371094c-31.085938-.066406-60.90625 12.308594-82.8125 34.367187-3.90625 3.90625-3.90625 10.238282 0 14.140626 3.90625 3.90625 10.238281 3.90625 14.144531 0 18.242188-18.363282 43.09375-28.632813 68.976563-28.507813 25.550781-.011719 50.035156 10.242187 67.945312 28.460937 1.878906 1.90625 4.441406 2.976563 7.113282 2.976563zm0 0"/><path d="m107.308594 70.285156c67.167968-66.992187 175.886718-66.992187 243.054687 0 3.90625 3.90625 10.238281 3.902344 14.144531-.003906 3.90625-3.902344 3.902344-10.238281 0-14.140625-74.980468-74.804687-196.359374-74.804687-271.339843 0-3.90625 3.902344-3.90625 10.234375 0 14.140625 3.902343 3.90625 10.234375 3.90625 14.140625 0zm0 0"/><path d="m407.074219 217.738281h-357.074219c-27.601562.03125-49.96875 22.398438-50 50v99.375c0 5.523438 4.476562 10 10 10h32.101562v50.925781c0 5.523438 4.476563 10 10 10h352.875c5.519532 0 10-4.476562 10-10v-50.925781h32.097657c5.523437 0 10-4.476562 10-10v-99.375c-.03125-27.601562-22.398438-49.96875-50-50zm-12.097657 200.300781h-332.878906v-40.925781h332.875v40.925781zm42.097657-60.925781h-417.074219v-89.375c.019531-16.558593 13.4375-29.980469 30-30h357.074219c16.5625.019531 29.980469 13.441407 30 30zm0 0"/><path d="m257.347656 289.839844h-67.972656c-5.523438 0-10 4.476562-10 10 0 5.523437 4.476562 10 10 10h67.972656c5.523438 0 10-4.476563 10-10 0-5.523438-4.476562-10-10-10zm0 0"/></svg>