<svg height="478pt" viewBox="-143 0 478 478.452" width="478pt" xmlns="http://www.w3.org/2000/svg"><path d="m152.914062 0h-112.6875c-22.082031.0234375-39.976562 17.917969-40 40v398.453125c.023438 22.078125 17.917969 39.972656 40 40h112.6875c22.082032-.027344 39.976563-17.921875 40-40v-398.453125c-.023437-22.082031-17.917968-39.9765625-40-40zm20 438.453125c-.011718 11.039063-8.957031 19.984375-20 20h-112.6875c-11.039062-.015625-19.988281-8.960937-20-20v-116.875h24.207032c5.523437 0 10-4.476563 10-10s-4.476563-10-10-10h-24.207032v-53.351563h57.207032c5.523437 0 10-4.476562 10-10 0-5.523437-4.476563-10-10-10h-57.207032v-53.347656h24.207032c5.523437 0 10-4.476562 10-10 0-5.523437-4.476563-10-10-10h-24.207032v-53.347656h57.207032c5.523437 0 10-4.476562 10-10s-4.476563-10-10-10h-57.207032v-41.53125c.011719-11.039062 8.960938-19.988281 20-20h112.6875c11.042969.011719 19.988282 8.960938 20 20zm0 0"/><path d="m121.65625 370.488281c-11.96875-11.96875-30.726562-13.816406-44.800781-4.414062-14.070313 9.40625-19.542969 27.441406-13.066407 43.078125 6.476563 15.636718 23.101563 24.523437 39.703126 21.222656 16.597656-3.304688 28.554687-17.871094 28.558593-34.800781.023438-9.414063-3.71875-18.449219-10.394531-25.085938zm-14.140625 36.039063c-6.046875 6.042968-15.847656 6.042968-21.894531 0-6.046875-6.046875-6.046875-15.847656 0-21.894532 6.046875-6.046874 15.847656-6.046874 21.894531 0 6.042969 6.046876 6.042969 15.847657 0 21.894532zm0 0"/></svg>