<svg height="466pt" viewBox="0 -8 466.771 466" width="466pt" xmlns="http://www.w3.org/2000/svg"><path d="m397.34375 59.816406h-327.914062c-5.523438 0-10 4.476563-10 10v256.707032c0 5.523437 4.476562 10 10 10h327.914062c5.519531 0 10-4.476563 10-10v-256.707032c0-5.523437-4.480469-10-10-10zm-10 256.707032h-307.914062v-236.707032h307.914062zm0 0"/><path d="m416.773438.386719h-366.773438c-27.601562.03125-49.96875 22.398437-50 50v295.570312c.03125 27.601563 22.398438 49.96875 50 50h366.769531c27.601563-.03125 49.96875-22.398437 50-50v-295.570312c-.027343-27.601563-22.394531-49.96875-49.996093-50zm30 345.570312c-.019532 16.558594-13.441407 29.980469-30 30h-366.773438c-16.5625-.019531-29.980469-13.441406-30-30v-295.570312c.019531-16.5625 13.4375-29.984375 30-30h366.769531c16.5625.015625 29.984375 13.4375 30 30v295.570312zm0 0"/><path d="m152.40625 430.386719h-88.859375c-5.523437 0-10 4.476562-10 10 0 5.523437 4.476563 10 10 10h88.859375c5.523438 0 10-4.476563 10-10 0-5.523438-4.476562-10-10-10zm0 0"/><path d="m403.226562 430.386719h-88.859374c-5.523438 0-10 4.476562-10 10 0 5.523437 4.476562 10 10 10h88.859374c5.523438 0 10-4.476563 10-10 0-5.523438-4.476562-10-10-10zm0 0"/><path d="m188.328125 269.785156c39.046875 0 70.699219-31.652344 70.699219-70.699218 0-39.046876-31.652344-70.699219-70.699219-70.699219s-70.699219 31.652343-70.699219 70.699219c.042969 39.027343 31.671875 70.65625 70.699219 70.699218zm0-121.398437c28 0 50.699219 22.699219 50.699219 50.699219s-22.699219 50.699218-50.699219 50.699218-50.699219-22.699218-50.699219-50.699218c.03125-27.988282 22.710938-50.671876 50.699219-50.699219zm0 0"/><path d="m337.027344 249.878906c5.523437 0 10-4.476562 10-10v-77.972656c0-5.523438-4.476563-10-10-10-5.523438 0-10 4.476562-10 10v77.972656c0 5.523438 4.476562 10 10 10zm0 0"/></svg>