<svg height="422pt" viewBox="-52 0 421 422" width="422pt" xmlns="http://www.w3.org/2000/svg"><path d="m276.503906 74.984375v-54.984375h30.199219c5.523437 0 10-4.476562 10-10s-4.476563-10-10-10h-296.203125c-5.523438 0-10 4.476562-10 10s4.476562 10 10 10h25.398438v54.164062c.011718 20.871094 8.886718 40.757813 24.417968 54.699219l86.027344 78.902344-82.402344 78.929687c-14.800781 13.90625-23.210937 33.304688-23.242187 53.617188v61.6875h-30.199219c-5.523438 0-10 4.476562-10 10s4.476562 10 10 10h296.207031c5.523438 0 10-4.476562 10-10s-4.476562-10-10-10h-25.40625v-60.867188c-.011719-20.871093-8.886719-40.757812-24.414062-54.699218l-86.027344-78.902344 82.398437-78.925781c14.804688-13.910157 23.214844-33.308594 23.246094-53.621094zm-179.453125 327.015625 61.027344-70.96875 61.023437 70.96875zm146.449219-100.707031c11.324219 10.148437 17.796875 24.632812 17.804688 39.839843v60.867188h-15.824219l-79.820313-92.824219c-1.898437-2.210937-4.667968-3.480469-7.582031-3.480469s-5.683594 1.269532-7.582031 3.480469l-79.820313 92.824219h-9.976562v-61.6875c.023437-14.800781 6.15625-28.933594 16.953125-39.058594.027344-.027344.058594-.054687.085937-.082031l81.015625-77.601563 84.660156 77.644532c.023438.023437.050782.050781.085938.078125zm-3.941406-187.25c-.03125.027343-.058594.054687-.085938.082031l-81.019531 77.601562-84.65625-77.644531-.097656-.082031c-11.324219-10.148438-17.796875-24.632812-17.804688-39.839844v-54.160156h200.605469v54.984375c-.019531 14.800781-6.152344 28.933594-16.945312 39.058594zm0 0"/></svg>