<svg height="472pt" viewBox="0 0 472.57773 472" width="472pt" xmlns="http://www.w3.org/2000/svg"><path d="m469.648438 339.613281-80.050782-80.050781c-3.90625-3.902344-10.238281-3.902344-14.144531 0l-33.273437 33.277344-20.9375-20.9375 47.90625-47.90625c3.902343-3.902344 3.902343-10.238282 0-14.140625l-46.046876-46.046875 14.539063-14.542969c37.996094 30.792969 93.097656 27.992187 127.769531-6.5 3.90625-3.90625 3.90625-10.238281 0-14.140625l-53.5625-53.566406 26.355469-26.351563c3.90625-3.90625 3.90625-10.238281 0-14.144531-3.90625-3.902344-10.238281-3.902344-14.144531 0l-26.351563 26.355469-53.117187-53.113281c-3.90625-3.90625-10.238282-3.90625-14.144532 0-34.320312 34.5-37.289062 89.261718-6.898437 127.269531l-14.59375 14.59375-46.054687-46.054688c-3.902344-3.90625-10.234376-3.90625-14.140626 0l-47.726562 47.726563-21.117188-20.851563 33.078126-33.078125c3.90625-3.902344 3.90625-10.234375 0-14.140625l-80.050782-80.050781c-3.902344-3.90625-10.234375-3.90625-14.140625 0l-115.871093 115.871094c-3.90625 3.90625-3.90625 10.238281 0 14.144531l80.050781 80.050781c3.90625 3.902344 10.238281 3.902344 14.140625 0l33.300781-33.300781 21.117187 20.847656-51.398437 51.402344c-19.527344 19.523437-19.527344 51.183594 0 70.707031l49.671875 49.683594c19.539062 19.492188 51.167969 19.492188 70.707031 0l51.222657-51.222656 20.9375 20.9375-33.097657 33.097656c-3.90625 3.90625-3.90625 10.238281 0 14.144531l80.050781 80.050781c3.90625 3.90625 10.238282 3.90625 14.140626 0l115.875-115.875c3.90625-3.90625 3.90625-10.238281 0-14.144531zm-131.660157-310.132812 105.746094 105.742187c-30.042969 22.847656-72.347656 19.980469-99.035156-6.707031s-29.554688-68.988281-6.710938-99.035156zm-82.15625 95.34375 92.101563 92.101562-120.34375 120.339844-92.101563-92.097656zm-165.78125 67.246093-65.90625-65.90625 101.730469-101.734374 65.90625 65.910156zm54.511719-26.226562 21.214844-21.210938 21.113281 20.847657-21.210937 21.214843zm19.390625 192.636719-49.675781-49.675781c-11.714844-11.714844-11.714844-30.707032 0-42.425782l7.070312-7.070312 92.101563 92.101562-7.074219 7.070313c-11.722656 11.695312-30.699219 11.695312-42.421875 0zm121.9375-51.222657 21.210937-21.210937 20.9375 20.933594-21.214843 21.214843zm60.816406 141.160157-65.910156-65.910157 101.730469-101.730468 65.90625 65.910156zm0 0"/></svg>