<svg height="450pt" viewBox="0 -13 450 450" width="450pt" xmlns="http://www.w3.org/2000/svg"><path d="m400 28h-35.332031v-18c0-5.523438-4.476563-10-10-10-5.523438 0-10 4.476562-10 10v18h-112v-18c0-5.523438-4.476563-10-10-10-5.523438 0-10 4.476562-10 10v18h-112v-18c0-5.523438-4.476563-10-10-10-5.523438 0-10 4.476562-10 10v18h-30.667969c-27.601562.03125-49.96875 22.398438-50 50v296c.03125 27.601562 22.398438 49.96875 50 50h350c27.601562-.03125 49.96875-22.398438 50-50v-296c-.03125-27.601562-22.398438-49.96875-50-50zm-350 20h30.667969v22.667969c0 5.523437 4.476562 10 10 10 5.523437 0 10-4.476563 10-10v-22.667969h112v22.667969c0 5.523437 4.476562 10 10 10 5.523437 0 10-4.476563 10-10v-22.667969h112v22.667969c0 5.523437 4.476562 10 10 10 5.523437 0 10-4.476563 10-10v-22.667969h35.332031c16.5625.019531 29.980469 13.4375 30 30v58.667969h-410v-58.667969c.019531-16.5625 13.4375-29.980469 30-30zm350 356h-350c-16.5625-.019531-29.980469-13.4375-30-30v-217.332031h410v217.332031c-.019531 16.5625-13.4375 29.980469-30 30zm0 0"/></svg>