<svg height="430pt" viewBox="0 -15 430 430" width="430pt" xmlns="http://www.w3.org/2000/svg"><path d="m390 0h-350c-22.082031.0234375-39.9765625 17.917969-40 40v228.269531c.0234375 22.082031 17.917969 39.976563 40 40h115v71.113281h-33.519531c-5.523438 0-10 4.476563-10 10 0 5.523438 4.476562 10 10 10h187.039062c5.523438 0 10-4.476562 10-10 0-5.523437-4.476562-10-10-10h-33.519531v-71.113281h115c22.082031-.023437 39.976562-17.917969 40-40v-228.269531c-.023438-22.082031-17.917969-39.9765625-40-40zm-135 379.382812h-80v-71.113281h80zm155-111.113281c-.011719 11.042969-8.960938 19.988281-20 20h-350c-11.039062-.011719-19.988281-8.957031-20-20v-228.269531c.011719-11.039062 8.960938-19.988281 20-20h350c11.039062.011719 19.988281 8.960938 20 20zm0 0"/><path d="m370 50h-310c-5.523438 0-10 4.476562-10 10v178.269531c0 5.523438 4.476562 10 10 10h310c5.523438 0 10-4.476562 10-10v-178.269531c0-5.523438-4.476562-10-10-10zm-10 178.269531h-290v-158.269531h290zm0 0"/></svg>