<svg height="415pt" viewBox="0 -25 415.754 415" width="415pt" xmlns="http://www.w3.org/2000/svg"><path d="m365.753906.378906h-315.753906c-27.601562.03125-49.96875 22.398438-50 50v195.199219c.03125 27.601563 22.398438 49.96875 50 50h100.523438v48.800781h-28.214844c-5.523438 0-10 4.476563-10 10 0 5.519532 4.476562 10 10 10h176.429687c5.523438 0 10-4.480468 10-10 0-5.523437-4.476562-10-10-10h-28.214843v-48.800781h95.230468c27.601563-.03125 49.96875-22.398437 50-50v-195.199219c-.03125-27.601562-22.398437-49.96875-50-50zm-315.753906 20h315.753906c16.5625.015625 29.980469 13.4375 30 30v155.8125h-375.753906v-155.8125c.019531-16.5625 13.4375-29.984375 30-30zm200.523438 324h-80v-48.800781h80zm115.230468-68.800781h-315.753906c-16.5625-.019531-29.980469-13.441406-30-30v-19.386719h375.753906v19.386719c-.019531 16.558594-13.4375 29.980469-30 30zm0 0"/></svg>