<svg height="471pt" viewBox="-49 0 471 471.464" width="471pt" xmlns="http://www.w3.org/2000/svg"><path d="m369.140625 294.839844-61.902344-42.398438v-137.328125c-.027343-22.078125-17.921875-39.972656-40-40h-36.875v-65.113281c0-5.523438-4.480469-10-10-10h-62.460937c-5.523438 0-10 4.476562-10 10v65.113281h-41.675782c-22.082031.027344-39.976562 17.921875-40 40v137.5l-61.644531 42.226563c-3.882812 2.660156-5.386719 7.667968-3.609375 12.027344l64.589844 158.371093c1.535156 3.765625 5.195312 6.226563 9.257812 6.226563h224.078126c4.0625 0 7.722656-2.460938 9.257812-6.226563l64.59375-158.371093c1.777344-4.359376.273438-9.367188-3.609375-12.027344zm-201.238281-274.839844h42.460937v55.113281h-42.460937zm-61.675782 75.113281h161.011719c11.039063.015625 19.984375 8.960938 20 20v21.5h-201.011719v-21.5c.011719-11.039062 8.957032-19.984375 20-20zm-20 61.5h201.011719v82.125l-94.726562-64.882812c-3.40625-2.332031-7.894531-2.332031-11.300781 0l-94.984376 65.0625zm-63.6875 150.167969 154.191407-105.617188v250.300782h-95.183594zm269.636719 144.683594h-95.445312v-250.476563l154.457031 105.796875zm0 0"/></svg>