<svg height="434pt" viewBox="-46 0 433 434" width="434pt" xmlns="http://www.w3.org/2000/svg"><path d="m268.390625 2.875c-1.871094-1.84375-4.394531-2.875-7.019531-2.875h-210.871094c-27.601562.03125-49.96875 22.398438-50 50v334c.03125 27.601562 22.398438 49.96875 50 50h240.5c27.601562-.03125 49.96875-22.398438 50-50v-305.398438c0-2.679687-1.074219-5.246093-2.980469-7.125zm52.609375 381.125c-.019531 16.5625-13.4375 29.980469-30 30h-240.5c-16.5625-.019531-29.980469-13.4375-30-30v-334c.019531-16.5625 13.4375-29.980469 30-30h206.773438l63.726562 62.785156zm0 0"/><path d="m51.5 188.5v180.25c0 5.523438 4.476562 10 10 10h214.675781c3.164063-.003906 6.144531-1.503906 8.027344-4.042969 1.886719-2.542969 2.460937-5.828125 1.546875-8.855469v-177.351562c0-5.523438-4.476562-10-10-10h-214.25c-5.523438 0-10 4.476562-10 10zm20 10h194.25v160.25h-194.25zm0 0"/><path d="m99.25 134.75c5.523438 0 10-4.476562 10-10v-34.5c0-5.523438-4.476562-10-10-10s-10 4.476562-10 10v34.5c0 5.523438 4.476562 10 10 10zm0 0"/><path d="m166.75 134.75c5.523438 0 10-4.476562 10-10v-34.5c0-5.523438-4.476562-10-10-10s-10 4.476562-10 10v34.5c0 5.523438 4.476562 10 10 10zm0 0"/><path d="m234.25 134.75c5.523438 0 10-4.476562 10-10v-34.5c0-5.523438-4.476562-10-10-10s-10 4.476562-10 10v34.5c0 5.523438 4.476562 10 10 10zm0 0"/></svg>