<svg height="486pt" viewBox="0 -86 486.645 486" width="486pt" xmlns="http://www.w3.org/2000/svg"><path d="m442.105469 72.46875h-11.488281v-27.609375c-.027344-24.585937-19.953126-44.507813-44.539063-44.535156h-285.511719c-24.585937.027343-44.511718 19.949219-44.539062 44.535156v27.609375h-11.488282c-24.585937.027344-44.5117182 19.953125-44.539062 44.539062v126.914063c0 5.523437 4.476562 10 10 10h23.515625v50.402344c0 5.519531 4.476563 10 10 10h405.242187c5.523438 0 10-4.480469 10-10v-50.402344h17.886719c5.523438 0 10-4.476563 10-10v-126.914063c-.027343-24.585937-19.953125-44.511718-44.539062-44.539062zm-31.488281-27.609375v128.921875h-154.480469v-153.457031h129.941406c13.546875.011719 24.523437 10.992187 24.539063 24.535156zm-334.589844 0c.015625-13.542969 10.992187-24.519531 24.539062-24.535156h135.570313v153.457031h-160.109375zm362.730468 249.464844h-385.242187v-40.402344h385.242187zm27.886719-60.402344h-446.644531v-116.914063c.015625-13.546874 10.992188-24.523437 24.539062-24.539062h11.488282v91.3125c0 5.519531 4.476562 10 10 10h354.589844c5.523437 0 10-4.480469 10-10v-91.3125h11.488281c13.546875.015625 24.523437 10.992188 24.539062 24.539062zm0 0"/></svg>