<svg height="444pt" viewBox="-43 0 444 444" width="444pt" xmlns="http://www.w3.org/2000/svg"><path d="m307.15625 0h-257.15625c-27.601562.03125-49.96875 22.398438-50 50v344c.03125 27.601562 22.398438 49.96875 50 50h257.15625c27.601562-.03125 49.96875-22.398438 50-50v-344c-.03125-27.601562-22.398438-49.96875-50-50zm30 394c-.015625 16.5625-13.4375 29.980469-30 30h-257.15625c-16.5625-.019531-29.980469-13.4375-30-30v-344c.019531-16.5625 13.4375-29.980469 30-30h257.15625c16.5625.019531 29.984375 13.4375 30 30zm0 0"/><path d="m179.136719 189.515625c-58.363281 0-105.675781 47.3125-105.675781 105.675781 0 58.363282 47.3125 105.675782 105.675781 105.675782s105.675781-47.3125 105.675781-105.675782c-.066406-58.335937-47.339844-105.609375-105.675781-105.675781zm0 191.351563c-47.316407 0-85.675781-38.359376-85.675781-85.675782s38.359374-85.675781 85.675781-85.675781c47.316406 0 85.675781 38.359375 85.675781 85.675781-.054688 47.296875-38.378906 85.621094-85.675781 85.675782zm0 0"/><path d="m179.136719 177.125c35.605469 0 64.472656-28.867188 64.472656-64.472656 0-35.605469-28.867187-64.46875-64.472656-64.46875s-64.472657 28.863281-64.472657 64.46875c.042969 35.589844 28.882813 64.433594 64.472657 64.472656zm0-108.941406c24.5625 0 44.472656 19.910156 44.472656 44.46875 0 24.5625-19.910156 44.472656-44.472656 44.472656-24.558594 0-44.472657-19.910156-44.472657-44.472656.03125-24.546875 19.921876-44.441406 44.472657-44.46875zm0 0"/><path d="m178.578125 250.546875c-24.65625 0-44.644531 19.988281-44.644531 44.644531s19.988281 44.644532 44.644531 44.644532 44.648437-19.988282 44.648437-44.644532c-.03125-24.644531-20.003906-44.617187-44.648437-44.644531zm0 69.289063c-13.609375 0-24.644531-11.035157-24.644531-24.644532 0-13.613281 11.035156-24.644531 24.644531-24.644531 13.613281 0 24.648437 11.03125 24.648437 24.644531-.015624 13.605469-11.042968 24.628906-24.648437 24.644532zm0 0"/></svg>