<svg height="465pt" viewBox="0 -35 465 465" width="465pt" xmlns="http://www.w3.org/2000/svg"><path d="m349.414062 107.46875c-4.144531-3.652344-10.464843-3.253906-14.113281.890625-3.652343 4.144531-3.253906 10.464844.890625 14.117187 21.15625 18.527344 33.289063 45.28125 33.289063 73.40625s-12.132813 54.878907-33.289063 73.40625c-4.144531 3.652344-4.542968 9.972657-.894531 14.117188 3.652344 4.144531 9.972656 4.546875 14.117187.894531 25.464844-22.324219 40.070313-54.546875 40.070313-88.414062 0-33.867188-14.605469-66.089844-40.070313-88.414063zm0 0"/><path d="m409.433594 69.300781c-4.070313-3.730469-10.394532-3.457031-14.128906.613281-3.730469 4.070313-3.457032 10.398438.617187 14.128907 31.273437 28.78125 49.070313 69.339843 49.078125 111.839843 0 42.617188-17.453125 82.355469-49.140625 111.894532-4.039063 3.765625-4.261719 10.097656-.496094 14.136718 3.769531 4.039063 10.097657 4.257813 14.136719.492188 35.792969-33.367188 55.5-78.300781 55.5-126.523438-.015625-48.105468-20.164062-94.011718-55.566406-126.582031zm0 0"/><path d="m286.722656 1.339844c-3.09375-1.785156-6.90625-1.785156-10 0l-182.191406 105.273437h-51.492188c-23.757812.027344-43.0117182 19.28125-43.039062 43.039063v95.699218c.0273438 23.761719 19.28125 43.015626 43.039062 43.042969h51.492188l182.1875 105.265625c3.09375 1.785156 6.90625 1.785156 10 0s5-5.085937 5-8.660156v-375c0-3.570312-1.902344-6.875-4.996094-8.660156zm-266.722656 244.007812v-95.699218c.015625-12.71875 10.320312-23.023438 23.039062-23.039063h45.765626v141.777344h-45.765626c-12.71875-.011719-23.023437-10.320313-23.039062-23.039063zm251.722656 122.324219-162.917968-94.132813v-152.074218l162.917968-94.136719zm0 0"/></svg>