<svg height="476pt" viewBox="-36 0 475 476" width="476pt" xmlns="http://www.w3.org/2000/svg"><path d="m201.511719 123.398438c34.074219 0 61.699219-27.621094 61.699219-61.699219 0-34.074219-27.625-61.699219-61.699219-61.699219-34.078125 0-61.703125 27.625-61.703125 61.699219.039062 34.058593 27.640625 61.660156 61.703125 61.699219zm0-103.398438c23.027343 0 41.699219 18.667969 41.699219 41.699219s-18.671876 41.699219-41.699219 41.699219c-23.03125 0-41.703125-18.667969-41.703125-41.699219.027344-23.019531 18.683594-41.671875 41.703125-41.699219zm0 0"/><path d="m352.523438 242.601562h-37.65625c-5.183594-58.746093-54.382813-103.800781-113.355469-103.800781-58.972657 0-108.175781 45.054688-113.355469 103.800781h-37.65625c-27.601562.03125-49.96875 22.398438-50 50v57.722657c0 5.523437 4.476562 10 10 10h23.863281v105.675781c0 5.523438 4.476563 10 10 10h314.296875c5.523438 0 10-4.476562 10-10v-105.679688h23.863282c5.523437 0 10-4.476562 10-10v-57.71875c-.03125-27.601562-22.398438-49.96875-50-50zm-151.011719-83.800781c47.910156.058594 88.097656 36.167969 93.265625 83.800781h-186.535156c5.167968-47.632812 45.355468-83.742187 93.269531-83.800781zm147.148437 297.199219h-294.300781v-95.679688h294.300781zm33.863282-115.679688h-362.027344v-47.71875c.019531-16.5625 13.441406-29.984374 30-30h302.023437c16.5625.015626 29.984375 13.4375 30 30v47.722657zm0 0"/></svg>