<svg height="411pt" viewBox="-31 0 411 411.77875" width="411pt" xmlns="http://www.w3.org/2000/svg"><path d="m258.519531 263.984375h-22.824219l-8.59375-92.859375c34.691407-23.59375 49.464844-67.375 36.160157-107.160156-13.304688-39.789063-51.445313-65.878906-93.347657-63.855469-47.429687 2.285156-86.367187 40.976563-88.671874 88.097656-2.070313 32.847657 13.355468 64.34375 40.570312 82.84375l-8.597656 92.933594h-22.824219c-49.683594.054687-89.945313 40.316406-90 90v47.792969c0 5.523437 4.476563 10 10 10h328.128906c5.523438 0 10-4.476563 10-10v-47.792969c-.054687-49.683594-40.316406-89.945313-90-90zm-168.128906 20h31.945313c5.164062 0 9.480468-3.933594 9.957031-9.078125l10-108.09375c.355469-3.859375-1.546875-7.574219-4.886719-9.539062-23.941406-13.964844-37.949219-40.242188-36.195312-67.902344 0-.042969 0-.085938.007812-.132813 1.78125-36.980469 32.378906-67.355469 69.597656-69.148437 20.285156-.976563 40.078125 6.445312 54.71875 20.523437 16.675782 15.96875 24.875 38.847657 22.136719 61.773438-2.734375 22.925781-16.089844 43.230469-36.054687 54.824219-3.40625 1.945312-5.359376 5.699218-5 9.601562l10 108.09375c.472656 5.144531 4.789062 9.078125 9.957031 9.078125h31.941406c33.933594.046875 62.957031 24.390625 68.914063 57.792969h-305.953126c5.957032-33.402344 34.984376-57.746094 68.914063-57.792969zm-70 107.792969v-30h308.128906v30zm0 0"/></svg>