<svg height="438pt" viewBox="-93 0 438 438.182" width="438pt" xmlns="http://www.w3.org/2000/svg"><path d="m213.285156 311.027344c-19.234375-.003906-35.542968 14.140625-38.261718 33.179687-2.722657 19.042969 8.972656 37.1875 27.4375 42.574219-3.753907 18.261719-19.820313 31.375-38.460938 31.398438h-5.261719c-22.160156-.023438-40.121093-17.984376-40.144531-40.144532v-158.128906c54.910156-3.578125 98.5-49.703125 98.5-105.894531v-104.011719c0-5.523438-4.480469-10-10-10h-24.777344c-5.523437 0-10 4.476562-10 10s4.476563 10 10 10h14.773438v94.011719c0 47.488281-38.300782 86.125-85.367188 86.125h-6.269531c-47.070313 0-85.363281-38.632813-85.363281-86.125v-94.011719h14.769531c5.523437 0 10-4.476562 10-10s-4.476563-10-10-10h-24.769531c-5.523438 0-10.0000002 4.476562-10.0000002 10v104.011719c0 56.191406 43.5898442 102.316406 98.5000002 105.894531v158.128906c.039062 33.203125 26.945312 60.109375 60.148437 60.148438h5.257813c29.519531-.042969 54.519531-21.777344 58.664062-51 18.9375-4.738282 31.371094-22.851563 28.988282-42.222656-2.386719-19.375-18.84375-33.929688-38.363282-33.933594zm0 57.308594c-10.300781 0-18.65625-8.351563-18.65625-18.65625 0-10.300782 8.351563-18.65625 18.65625-18.65625 10.304688 0 18.65625 8.355468 18.65625 18.65625-.011718 10.296874-8.359375 18.644531-18.65625 18.65625zm0 0"/></svg>