<svg height="440pt" viewBox="0 -16 440.16 440" width="440pt" xmlns="http://www.w3.org/2000/svg"><path d="m390.160156 55.761719h-74.214844l-3.625-22.382813c0-.03125-.011718-.066406-.015624-.097656-3.277344-19.203125-19.9375-33.234375-39.417969-33.203125h-103.664063c-19.480468-.03125-36.136718 14-39.414062 33.203125-.007813.03125-.011719.066406-.019532.097656l-3.621093 22.382813h-76.167969c-27.601562.03125-49.96875 22.398437-50 50v252.316406c.03125 27.601563 22.398438 49.96875 50 50h340.160156c27.601563-.03125 49.96875-22.398437 50-50v-252.316406c-.03125-27.601563-22.398437-49.96875-50-50zm-240.636718-19.132813c1.660156-9.578125 9.980468-16.566406 19.699218-16.550781h103.664063c9.722656-.015625 18.042969 6.976563 19.699219 16.554687l3.101562 19.128907h-149.261719zm-99.523438 39.132813h340.160156c16.5625.015625 29.980469 13.4375 30 30v37.152343l-139.59375 72.539063v-17.691406c0-5.523438-4.476562-10-10-10h-100c-5.519531 0-10 4.476562-10 10v17.644531l-140.566406-73.492188v-36.152343c.019531-16.5625 13.4375-29.984375 30-30zm210.566406 132v43.199219c-.015625 16.558593-13.4375 29.980468-30 30h-20c-16.558594-.019532-29.980468-13.441407-30-30v-43.199219zm129.59375 180.316406h-340.160156c-16.5625-.015625-29.980469-13.4375-30-30v-193.597656l140.566406 73.5v12.980469c.03125 27.601562 22.398438 49.96875 50 50h20c27.601563-.03125 49.96875-22.398438 50-50v-12.96875l139.59375-72.539063v192.625c-.019531 16.5625-13.4375 29.984375-30 30zm0 0"/></svg>