<svg height="433pt" viewBox="0 0 433 433.35687" width="433pt" xmlns="http://www.w3.org/2000/svg"><path d="m322.742188 2.929688c-3.90625-3.90625-10.238282-3.90625-14.140626 0-3.90625 3.90625-3.90625 10.238281 0 14.140624l19.957032 19.960938-36.890625 36.894531-32.5-32.5c-3.90625-3.90625-10.238281-3.90625-14.144531 0-3.902344 3.902344-3.902344 10.234375 0 14.140625l14.121093 14.121094-171.980469 171.980469c-10.84375 10.859375-14.53125 26.960937-9.5 41.460937l-9.199218 9.105469c-17.363282 17.1875-19.765625 44.410156-5.671875 64.371094l-59.683594 59.679687c-3.90625 3.90625-3.90625 10.238282-.003906 14.140625 3.90625 3.90625 10.238281 3.90625 14.144531.003907l59.679688-59.683594c8.421874 5.980468 18.503906 9.179687 28.832031 9.15625h.132812c13.3125.003906 26.070313-5.335938 35.40625-14.824219l9.109375-9.199219c14.5 5.03125 30.597656 1.34375 41.460938-9.5l171.980468-171.988281 14.121094 14.121094c3.90625 3.90625 10.238282 3.90625 14.140625 0 3.90625-3.90625 3.90625-10.238281 0-14.144531l-29.289062-29.289063 36.734375-37.046875 16.898437 16.902344c3.90625 3.902344 10.238281 3.902344 14.140625-.003906 3.90625-3.902344 3.90625-10.234376 0-14.140626zm-216.898438 356.96875h-.082031c-7.957031.023437-15.597657-3.140626-21.210938-8.785157l-2.128906-2.128906c-5.644531-5.644531-8.808594-13.308594-8.785156-21.292969.019531-7.980468 3.222656-15.628906 8.894531-21.246094l6.457031-6.386718 44.488281 44.488281-6.390624 6.457031c-5.601563 5.691406-13.257813 8.898438-21.246094 8.894532zm212.875-168.664063-35.898438-35.898437c-3.917968-3.820313-10.183593-3.78125-14.050781.089843-3.871093 3.871094-3.910156 10.132813-.089843 14.050781l35.898437 35.902344-17.644531 17.644532-26.167969-26.164063c-3.90625-3.90625-10.238281-3.90625-14.144531 0-3.90625 3.902344-3.90625 10.234375 0 14.140625l26.167968 26.167969-24.53125 24.53125-36.121093-35.75c-3.925781-3.882813-10.257813-3.851563-14.140625.074219-3.886719 3.925781-3.851563 10.257812.074218 14.144531l36.042969 35.671875-24.855469 24.863281-26.160156-26.511719c-3.878906-3.933594-10.210937-3.976562-14.144531-.097656s-3.976563 10.210938-.097656 14.144531l26.253906 26.605469-17.382813 17.386719c-7.8125 7.808593-20.472656 7.808593-28.285156 0l-48.136718-48.136719c-7.8125-7.8125-7.8125-20.476562 0-28.285156l171.980468-171.980469 76.421875 76.421875zm29.964844-60.296875-42.875-42.875 36.894531-36.882812 42.714844 42.714843zm0 0"/></svg>