<svg height="467pt" viewBox="-93 0 467 467.18547" width="467pt" xmlns="http://www.w3.org/2000/svg"><path d="m175.015625 14c-19.324219-18.667969-49.964844-18.667969-69.289063 0l-90.28125 86.757812c-9.785156 9.441407-15.324218 22.449219-15.351562 36.050782v280.375c.03125 27.601562 22.398438 49.96875 50 50h180.554688c27.601562-.03125 49.96875-22.398438 50-50v-280.375c-.027344-13.601563-5.566407-26.609375-15.355469-36.054688zm-145.710937 101.175781 90.277343-86.757812c11.59375-11.199219 29.980469-11.199219 41.574219 0l90.277344 86.753906c5.871094 5.667969 9.195312 13.472656 9.214844 21.632813v210.378906h-240.558594v-210.375c.019531-8.160156 3.34375-15.964844 9.214844-21.632813zm201.34375 332.007813h-180.558594c-16.558594-.015625-29.980469-13.4375-30-30v-50h240.558594v50c-.019532 16.5625-13.441407 29.984375-30 30zm0 0"/><path d="m137.191406 202.007812c25.441406 0 46.0625-20.625 46.0625-46.0625 0-25.441406-20.621094-46.0625-46.0625-46.0625-25.4375 0-46.0625 20.621094-46.0625 46.0625.03125 25.425782 20.636719 46.03125 46.0625 46.0625zm0-72.125c14.394532 0 26.0625 11.667969 26.0625 26.0625 0 14.390626-11.667968 26.058594-26.0625 26.058594-14.394531 0-26.0625-11.667968-26.0625-26.058594.015625-14.390624 11.675782-26.046874 26.0625-26.0625zm0 0"/></svg>