<svg height="382pt" viewBox="0 0 382 382.00026" width="382pt" xmlns="http://www.w3.org/2000/svg"><path d="m191.289062.0078125c-.046874 0-.09375-.0078125-.140624-.0078125-.03125 0-.058594 0-.085938 0-.121094 0-.242188 0-.359375 0-104.550781-.0898438-189.648437 84.082031-190.6953125 188.628906-1.0429685 104.546875 82.3476565 190.40625 186.8789065 192.40625 2.703125 1.289063 5.84375 1.285156 8.542969-.007812 104.230468-2.496094 187.101562-88.300782 185.96875-192.554688-1.132813-104.253906-85.847657-188.238281-190.109376-188.4648435zm120.074219 311.1914065c-29.390625 29.519531-68.628906 47.164062-110.214843 49.5625v-55.824219c0-5.523438-4.476563-10-10-10-5.523438 0-10 4.476562-10 10v55.878906c-87.257813-4.765625-156.738282-74.8125-160.792969-162.105468h54.566406c5.519531 0 10-4.476563 10-10 0-5.523438-4.480469-10-10-10h-54.355469c5.839844-85.785157 74.726563-153.753907 160.582032-158.441407v52.210938c0 5.523437 4.476562 10 10 10 5.523437 0 10-4.476563 10-10v-52.15625c85.488281 5.113281 153.875 72.9375 159.6875 158.386719h-53.460938c-5.523438 0-10 4.476562-10 10 0 5.519531 4.476562 10 10 10h53.675781c-1.878906 42.398437-19.613281 82.546874-49.6875 112.488281zm0 0"/><path d="m190.703125 138.386719c-28.804687 0-52.15625 23.351562-52.15625 52.15625 0 28.804687 23.351563 52.15625 52.15625 52.15625s52.15625-23.351563 52.15625-52.15625c-.03125-28.792969-23.363281-52.125-52.15625-52.15625zm0 84.3125c-17.761719 0-32.15625-14.398438-32.15625-32.15625 0-17.761719 14.394531-32.15625 32.15625-32.15625 17.757813 0 32.15625 14.394531 32.15625 32.15625-.019531 17.75-14.40625 32.136719-32.15625 32.15625zm0 0"/></svg>