<svg height="484pt" viewBox="-41 0 483 484" width="484pt" xmlns="http://www.w3.org/2000/svg"><path d="m277.5625 464h-252.199219c-5.523437 0-10 4.476562-10 10s4.476563 10 10 10h252.199219c5.523438 0 10-4.476562 10-10s-4.476562-10-10-10zm0 0"/><path d="m68.273438 97.214844c5.523437 0 10-4.476563 10-10v-38.328125c0-5.523438-4.476563-10-10-10-5.523438 0-10 4.476562-10 10v38.328125c0 5.523437 4.476562 10 10 10zm0 0"/><path d="m151.464844 92.355469c5.523437 0 10-4.480469 10-10v-72.355469c0-5.523438-4.476563-10-10-10-5.523438 0-10 4.476562-10 10v72.355469c0 5.519531 4.476562 10 10 10zm0 0"/><path d="m239.511719 92.355469c5.523437 0 10-4.480469 10-10v-33.46875c0-5.523438-4.476563-10-10-10-5.523438 0-10 4.476562-10 10v33.46875c0 5.519531 4.476562 10 10 10zm0 0"/><path d="m333.21875 182.535156h-30.792969v-46.433594c0-5.523437-4.476562-10-10-10h-281.925781c-5.523438 0-10 4.476563-10 10v147.148438c-.03125 76.65625 57.386719 141.171875 133.53125 150.027344 76.144531 8.855468 146.839844-40.757813 164.398438-115.378906h34.789062c24.242188.09375 46.683594-12.785157 58.832031-33.765626 12.144531-20.976562 12.144531-46.851562 0-67.832031-12.148437-20.976562-34.589843-33.855469-58.832031-33.765625zm-50.792969 100.714844c.128907 46.875-24.804687 90.242188-65.375 113.71875-40.574219 23.476562-90.601562 23.476562-131.171875 0-40.574218-23.476562-65.507812-66.84375-65.378906-113.71875v-137.148438h261.925781zm50.792969 14.648438h-31.5c.464844-4.839844.699219-9.722657.699219-14.644532v-80.71875h30.792969c17.085937-.078125 32.910156 8.992188 41.476562 23.777344 8.5625 14.785156 8.5625 33.023438 0 47.808594-8.566406 14.785156-24.390625 23.855468-41.476562 23.777344zm0 0"/></svg>