<svg height="456pt" viewBox="-11 0 456 456.00091" width="456pt" xmlns="http://www.w3.org/2000/svg"><path d="m351.191406 5.566406c-2.449218-4.953125-8.449218-6.980468-13.398437-4.527344l-81.773438 40.453126c-13.476562 6.691406-19.925781 22.320312-15.085937 36.566406l-170.871094 84.742187c-11.976562 5.957031-19.191406 18.53125-18.296875 31.878907l-33.378906 16.542968c-7.878907 3.902344-13.875 10.78125-16.671875 19.113282-2.792969 8.335937-2.15625 17.441406 1.777344 25.304687l19.566406 39.132813c8.15625 16.277343 27.933594 22.910156 44.257812 14.839843l32.949219-16.328125c10.070313 9.273438 24.816406 11.371094 37.070313 5.265625l29.980468-14.867187v152.316406h-36.136718c-5.523438 0-10 4.476562-10 10s4.476562 10 10 10h161.488281c5.523437 0 10-4.476562 10-10s-4.476563-10-10-10h-36.144531v-196.554688l51.621093-25.601562c8.429688 12.34375 24.664063 16.582031 38.050781 9.933594l81.773438-40.453125c4.949219-2.449219 6.976562-8.449219 4.527344-13.398438zm-292.753906 286.125c-6.449219 3.183594-14.261719.566406-17.492188-5.863281l-19.5625-39.132813c-1.554687-3.109374-1.808593-6.707031-.703124-10 1.105468-3.292968 3.472656-6.011718 6.585937-7.554687l31.132813-15.425781 31.019531 62.625zm70.015625-11.058594c-6.46875 3.207032-14.3125.5625-17.515625-5.90625l-37.894531-76.5c-3.191407-6.464843-.554688-14.296874 5.898437-17.507812l170.625-84.617188 49.445313 99.949219zm108.074219 155.367188h-49.207032v-162.234375l49.207032-24.402344zm100.800781-230.148438c-4.953125 2.453126-10.953125.425782-13.402344-4.527343l-63.570312-128.507813c-2.441407-4.953125-.414063-10.945312 4.53125-13.402344l72.8125-36.011718 72.441406 146.433594zm0 0"/></svg>