<svg height="475pt" viewBox="-81 0 475 475" width="475pt" xmlns="http://www.w3.org/2000/svg"><path d="m263 0h-41.699219c-5.171875 0-9.492187 3.945312-9.960937 9.09375-2.515625 25.355469-23.847656 44.675781-49.328125 44.675781s-46.808594-19.320312-49.328125-44.675781c-.46875-5.148438-4.785156-9.09375-9.957032-9.09375h-52.726562c-27.601562.03125-49.96875 22.398438-50 50v148.398438c0 10.648437 1.546875 21.242187 4.589844 31.445312l9.820312 32.929688c5.023438 16.78125 5.023438 34.667968 0 51.449218l-9.820312 32.929688c-3.046875 10.203125-4.589844 20.796875-4.589844 31.449218v46.398438c.03125 27.601562 22.398438 49.96875 50 50h48.132812c4.765626 0 8.871094-3.363281 9.804688-8.039062 4.734375-23.675782 25.046875-40.5625 48.402344-40.21875 23.953125.378906 44.433594 17.238281 48.691406 40.089843.882812 4.734375 5.015625 8.167969 9.832031 8.167969h48.136719c27.601562-.03125 49.96875-22.398438 50-50v-46.398438c0-10.648437-1.542969-21.242187-4.589844-31.445312l-9.820312-32.929688c-5.023438-16.78125-5.023438-34.667968 0-51.449218l9.820312-32.929688c3.046875-10.203125 4.589844-20.796875 4.589844-31.449218v-148.398438c-.03125-27.601562-22.398438-49.96875-50-50zm30 425c-.019531 16.5625-13.4375 29.980469-30 30h-40.359375c-8.9375-27.9375-35.453125-47.773438-65.980469-48.257812-.359375-.003907-.714844-.007813-1.070312-.007813-29.792969 0-55.953125 19.742187-65.167969 48.265625h-40.421875c-16.5625-.019531-29.980469-13.4375-30-30v-46.398438c0-8.714843 1.265625-17.378906 3.753906-25.726562l9.824219-32.929688c2.125-7.140624 3.519531-14.476562 4.167969-21.898437h237.507812c.644532 7.421875 2.042969 14.757813 4.167969 21.898437l9.824219 32.929688c2.488281 8.347656 3.753906 17.011719 3.753906 25.726562zm0-226.601562c0 8.714843-1.265625 17.378906-3.753906 25.726562l-9.824219 32.929688c-2.039063 6.84375-3.40625 13.871093-4.082031 20.980468h-237.679688c-.675781-7.109375-2.042968-14.136718-4.082031-20.980468l-9.824219-32.929688c-2.488281-8.347656-3.753906-17.011719-3.753906-25.726562v-148.398438c.019531-16.5625 13.4375-29.980469 30-30h44.199219c7.375 31.5 35.46875 53.773438 67.820312 53.773438 32.347657 0 60.441407-22.273438 67.816407-53.773438h33.164062c16.5625.019531 29.980469 13.4375 30 30zm0 0"/></svg>