<svg height="446pt" viewBox="-68 0 446 446.947" width="446pt" xmlns="http://www.w3.org/2000/svg"><path d="m270.605469 0h-230.132813c-22.082031.0234375-39.972656 17.917969-40 40v44.34375c0 3.15625 1.496094 6.128906 4.03125 8.007812l65.746094 86.921876c6.550781 8.695312 10.101562 19.277343 10.125 30.164062v197.507812c.023438 22.082032 17.917969 39.976563 40 40h71.222656c22.082032-.023437 39.976563-17.917968 40-40v-197.507812c.023438-10.886719 3.574219-21.46875 10.121094-30.164062l67.378906-89.082032-.25-.1875c1.144532-1.664062 1.757813-3.636718 1.753906-5.660156v-44.34375c-.023437-22.082031-17.914062-39.9726562-39.996093-40zm-250.132813 40c.011719-11.039062 8.960938-19.988281 20-20h230.132813c11.039062.011719 19.988281 8.960938 20 20v34.34375h-270.132813zm205.300782 127.210938c-9.171876 12.167968-14.144532 26.988281-14.175782 42.226562v197.511719c-.011718 11.039062-8.957031 19.984375-20 20h-71.222656c-11.042969-.015625-19.988281-8.960938-20-20v-197.511719c-.03125-15.238281-5.007812-30.058594-14.175781-42.226562l-55.113281-72.867188h249.796874zm0 0"/><path d="m155.984375 222.746094c-16.558594.019531-29.980469 13.441406-30 30v69.527344c0 5.523437 4.476563 10 10 10h40c5.523437 0 10-4.476563 10-10v-69.527344c-.019531-16.558594-13.4375-29.980469-30-30zm10 89.53125h-20v-59.53125c0-5.519532 4.476563-10 10-10s10 4.480468 10 10zm0 0"/></svg>