<svg height="465pt" viewBox="-48 0 465 465.30022" width="465pt" xmlns="http://www.w3.org/2000/svg"><path d="m67.5 240h233.734375c5.523437 0 10-4.476562 10-10v-139.398438c-.027344-22.082031-17.921875-39.976562-40-40h-173.734375c-22.082031.023438-39.976562 17.917969-40 40v139.398438c0 5.523438 4.476562 10 10 10zm10-149.398438c.011719-11.042968 8.957031-19.988281 20-20h173.734375c11.039063.011719 19.984375 8.957032 20 20v129.398438h-213.734375zm0 0"/><path d="m94.003906 265.78125c-19.097656 0-34.578125 15.480469-34.578125 34.578125s15.480469 34.582031 34.578125 34.582031 34.578125-15.484375 34.578125-34.582031c-.019531-19.085937-15.488281-34.554687-34.578125-34.578125zm0 49.15625c-8.050781.003906-14.578125-6.523438-14.578125-14.578125 0-8.050781 6.527344-14.578125 14.578125-14.578125 8.054688 0 14.578125 6.527344 14.578125 14.578125-.007812 8.050781-6.53125 14.570313-14.578125 14.578125zm0 0"/><path d="m274.726562 265.78125c-19.097656 0-34.578124 15.480469-34.578124 34.578125s15.480468 34.582031 34.578124 34.582031c19.097657 0 34.578126-15.484375 34.578126-34.582031-.019532-19.085937-15.488282-34.554687-34.578126-34.578125zm0 49.15625c-8.050781.003906-14.578124-6.523438-14.578124-14.578125 0-8.050781 6.527343-14.578125 14.578124-14.578125 8.050782 0 14.578126 6.527344 14.578126 14.578125-.007813 8.050781-6.53125 14.570313-14.578126 14.578125zm0 0"/><path d="m326.964844 375.976562c23.570312-4.511718 40.621094-25.113281 40.65625-49.109374v-276.867188c-.03125-27.601562-22.398438-49.96875-50-50h-266.027344c-27.601562.03125-49.96875 22.398438-50 50v276.867188c.03125 23.832031 16.851562 44.339843 40.21875 49.03125l-40.453125 74.636718c-2.632813 4.855469-.828125 10.925782 4.027344 13.558594 4.855469 2.628906 10.925781.828125 13.554687-4.027344l45.09375-83.203125h240.664063l45.09375 83.203125c2.632812 4.855469 8.699219 6.65625 13.554687 4.027344 4.855469-2.632812 6.660156-8.703125 4.027344-13.558594zm-305.371094-49.109374v-276.867188c.019531-16.5625 13.441406-29.980469 30-30h266.027344c16.558594.019531 29.980468 13.4375 30 30v276.867188c-.019532 16.5625-13.441406 29.980468-30 30h-4.191406c-1.980469-.636719-4.109376-.636719-6.089844 0h-245.949219c-1.980469-.636719-4.109375-.636719-6.089844 0h-3.707031c-16.558594-.019532-29.980469-13.441407-30-30zm0 0"/></svg>