<svg height="481pt" viewBox="0 -82 481.44 481" width="481pt" xmlns="http://www.w3.org/2000/svg"><path d="m445.609375 124.929688c-.769531-.738282-1.652344-1.347657-2.617187-1.804688l-35.398438-52.980469c-9.246094-13.996093-24.910156-22.410156-41.6875-22.390625h-46.796875c-1.34375-26.605468-23.292969-47.5-49.9375-47.535156h-259.171875c-5.523438 0-10 4.476562-10 10v245.722656c0 5.523438 4.476562 10 10 10h33.421875c4.753906 28.996094 29.808594 50.277344 59.191406 50.277344 29.378907 0 54.433594-21.28125 59.191407-50.277344h145.199218c4.753906 28.996094 29.808594 50.28125 59.191406 50.28125 29.378907 0 54.4375-21.285156 59.191407-50.28125h46.054687c5.519532 0 10-4.476562 10-10v-75.210937c-.03125-13.570313-5.546875-26.550781-15.292968-35.992188zm-54.667969-43.710938 27.332032 40.90625h-99.097657v-54.371094h46.730469c10.078125-.007812 19.488281 5.050782 25.035156 13.464844zm-288.328125 215c-22.085937 0-39.988281-17.902344-39.988281-39.988281 0-22.085938 17.902344-39.988281 39.988281-39.988281 22.085938 0 39.988281 17.902343 39.988281 39.988281-.023437 22.074219-17.914062 39.964843-39.988281 39.988281zm263.578125 0c-22.085937 0-39.988281-17.902344-39.988281-39.988281 0-22.085938 17.902344-39.988281 39.988281-39.988281 22.085938 0 39.988282 17.902343 39.988282 39.988281-.023438 22.074219-17.914063 39.964843-39.988282 39.988281zm95.25-50.277344h-36.160156c-4.996094-28.726562-29.929688-49.703125-59.089844-49.703125s-54.09375 20.976563-59.085937 49.703125h-145.402344c-4.996094-28.726562-29.929687-49.699218-59.085937-49.699218-29.160157 0-54.09375 20.972656-59.089844 49.699218h-23.527344v-225.722656h249.171875c16.5625.019531 29.980469 13.441406 30 30v81.910156c0 5.523438 4.476563 10 10 10h125.460937l17.632813 17.007813c5.847656 5.664062 9.15625 13.449219 9.175781 21.59375zm0 0"/><path d="m230.335938 60.171875-80.414063 80.882813-43.875-44.316407c-3.886719-3.925781-10.21875-3.957031-14.144531-.074219-3.925782 3.886719-3.957032 10.21875-.070313 14.144532l50.96875 51.480468c1.875 1.894532 4.433594 2.964844 7.097657 2.964844h.011718c2.664063 0 5.214844-1.0625 7.09375-2.949218l87.519532-88.035157c2.554687-2.527343 3.558593-6.230469 2.628906-9.703125-.929688-3.46875-3.648438-6.175781-7.128906-7.085937-3.476563-.910157-7.171876.117187-9.683594 2.6875zm0 0"/></svg>