<svg height="457pt" viewBox="0 -28 457.36 457" width="457pt" xmlns="http://www.w3.org/2000/svg"><path d="m407.359375 68.339844h-74.839844v-28.160156c-.023437-22.082032-17.917969-39.976563-40-40h-127.679687c-22.082032.023437-39.976563 17.917968-40 40v28.160156h-74.839844c-27.601562.03125-49.96875 22.398437-50 50v232.398437c.03125 27.601563 22.398438 49.96875 50 50h357.359375c27.601563-.03125 49.96875-22.398437 50-50v-232.398437c-.03125-27.601563-22.398437-49.96875-50-50zm-262.519531-28.160156c.011718-11.039063 8.960937-19.988282 20-20h127.679687c11.039063.011718 19.988281 8.960937 20 20v28.160156h-167.679687zm50.328125 107.398437 42.6875 42.691406-55.246094 55.738281-42.722656-43.148437zm242.191406 203.160156c-.019531 16.5625-13.4375 29.984375-30 30h-357.359375c-16.5625-.015625-29.980469-13.4375-30-30v-232.398437c.019531-16.5625 13.4375-29.980469 30-30h134.601562v41.519531l-65.890624 65.890625c-3.890626 3.894531-3.90625 10.199219-.03125 14.109375l56.800781 57.367187c1.871093 1.890626 4.417969 2.957032 7.082031 2.964844h.023438c2.652343 0 5.195312-1.054687 7.070312-2.929687l5.234375-5.230469 64.183594-64.753906c3.875-3.910156 3.863281-10.21875-.03125-14.109375l-54.441407-54.441407v-40.386718h202.757813c16.5625.019531 29.980469 13.4375 30 30zm0 0"/></svg>