<svg height="418pt" viewBox="-18 0 418 418.2048" width="418pt" xmlns="http://www.w3.org/2000/svg"><path d="m199.574219 34.886719v-24.886719c0-5.523438-4.480469-10-10-10-5.523438 0-10 4.476562-10 10v25.085938c-100.910157 6.242187-179.5351565 89.933593-179.472657 191.035156 0 5.523437 4.476563 10 10 10h169.472657v139.523437c.054687 8.023438-4.195313 15.457031-11.132813 19.484375-6.941406 4.027344-15.503906 4.027344-22.441406 0-6.941406-4.027344-11.1875-11.460937-11.136719-19.484375 0-5.523437-4.476562-10-10-10-5.523437 0-10 4.476563-10 10-.074219 15.179688 7.984375 29.238281 21.117188 36.851563 13.136719 7.613281 29.339843 7.613281 42.476562 0 13.132813-7.613282 21.191407-21.671875 21.117188-36.851563v-139.523437h173.351562c5.523438 0 10-4.476563 10-10 .066407-102.605469-80.835937-186.984375-183.351562-191.234375zm-179.1875 181.234375c5.261719-90.660156 80.3125-161.484375 171.125-161.484375s165.867187 70.824219 171.128906 161.484375zm0 0"/></svg>