<svg height="438pt" viewBox="-87 0 438 438" width="438pt" xmlns="http://www.w3.org/2000/svg"><path d="m253.421875 71.710938h-25.378906v-61.710938c0-5.523438-4.476563-10-10-10h-172.664063c-5.523437 0-10 4.476562-10 10v61.710938h-25.378906c-5.523438 0-10 4.476562-10 10v173.625c.0195312 18.867187 10.648438 36.117187 27.488281 44.621093v31.710938c.03125 27.601562 22.398438 49.96875 50 50h44.222657v46.332031c0 5.523438 4.476562 10 10 10 5.523437 0 10-4.476562 10-10v-46.332031h48.644531c27.601562-.03125 49.96875-22.398438 50-50v-34.242188c14.363281-9.179687 23.058593-25.046875 23.066406-42.089843v-173.625c0-5.523438-4.476563-10-10-10zm-198.042969-51.710938h152.667969v51.710938h-152.667969zm164.976563 311.667969c-.019531 16.558593-13.441407 29.980469-30 30h-112.867188c-16.558593-.019531-29.980469-13.441407-30-30v-26.402344c.832031.042969 1.667969.066406 2.511719.066406h163.421875c2.320313-.003906 4.636719-.167969 6.933594-.492187zm23.066406-76.335938c-.019531 16.5625-13.4375 29.980469-30 30h-163.421875c-16.5625-.019531-29.980469-13.4375-30-30v-163.621093h223.421875zm0 0"/></svg>