<svg height="419pt" viewBox="0 -12 419.123 419" width="419pt" xmlns="http://www.w3.org/2000/svg"><path d="m253.097656 243.253906-71.316406-41.820312c-3.09375-1.8125-6.917969-1.832032-10.027344-.046875-3.113281 1.78125-5.03125 5.089843-5.03125 8.675781v83.636719c0 3.585937 1.917969 6.894531 5.03125 8.675781 3.109375 1.78125 6.933594 1.761719 10.027344-.050781l71.316406-41.816407c3.058594-1.796874 4.941406-5.078124 4.941406-8.628906 0-3.546875-1.882812-6.828125-4.941406-8.625zm-66.375 32.988282v-48.726563l41.546875 24.363281zm0 0"/><path d="m369.125 107.652344h-319.125c-27.601562.03125-49.96875 22.398437-50 50v186.410156c.03125 27.601562 22.398438 49.96875 50 50h319.121094c27.601562-.03125 49.96875-22.398438 50-50v-186.410156c-.027344-27.601563-22.394532-49.972656-49.996094-50zm30 236.410156c-.019531 16.558594-13.441406 29.980469-30 30h-319.125c-16.5625-.019531-29.980469-13.441406-30-30v-186.410156c.019531-16.5625 13.4375-29.984375 30-30h319.121094c16.5625.015625 29.984375 13.4375 30 30v186.410156zm0 0"/><path d="m60.988281 76.417969h297.148438c5.523437 0 10-4.476563 10-10 0-5.523438-4.476563-10-10-10h-297.148438c-5.523437 0-10 4.476562-10 10 0 5.523437 4.476563 10 10 10zm0 0"/><path d="m107.097656 20.0625h204.929688c5.523437 0 10-4.476562 10-10s-4.476563-10-10-10h-204.929688c-5.523437 0-10 4.476562-10 10s4.476563 10 10 10zm0 0"/></svg>