<svg height="452pt" viewBox="0 -40 452 452" width="452pt" xmlns="http://www.w3.org/2000/svg"><path d="m402 0h-352c-27.601562.03125-49.96875 22.398438-50 50v272.558594c.03125 27.601562 22.398438 49.96875 50 50h352c27.601562-.03125 49.96875-22.398438 50-50v-272.558594c-.03125-27.601562-22.398438-49.96875-50-50zm30 50v22.445312h-84.871094v-52.445312h54.871094c16.5625.019531 29.980469 13.4375 30 30zm-322.300781 99.71875h-89.699219v-57.273438h89.699219zm0 20v47.613281h-89.699219v-47.613281zm0 67.613281v47.613281h-89.699219v-47.613281zm20-217.332031h197.429687v332.558594h-197.429687zm217.429687 217.332031h84.871094v47.613281h-84.871094zm0-20v-47.613281h84.871094v47.613281zm0-67.613281v-57.273438h84.871094v57.273438zm-297.128906-129.71875h59.699219v52.445312h-89.699219v-22.445312c.019531-16.5625 13.4375-29.980469 30-30zm-30 302.558594v-17.613282h89.699219v47.613282h-59.699219c-16.5625-.015625-29.980469-13.4375-30-30zm382 30h-54.871094v-47.613282h84.871094v17.613282c-.019531 16.5625-13.4375 29.984375-30 30zm0 0"/></svg>