<svg height="447pt" viewBox="-7 0 447 447.39635" width="447pt" xmlns="http://www.w3.org/2000/svg"><path d="m382.230469 95.628906h-48.660157v-45.628906c.003907-16.238281-7.882812-31.464844-21.144531-40.835938-13.261719-9.371093-30.246093-11.714843-45.554687-6.292968l-261.171875 92.519531.398437 1.125c-3.585937 1.613281-5.894531 5.179687-5.898437 9.113281v291.765625c.03125 27.601563 22.398437 49.96875 50 50h332.03125c27.601562-.03125 49.96875-22.398437 50-50v-251.765625c-.03125-27.601562-22.398438-49.96875-50-50zm-108.671875-73.902344c9.183594-3.25 19.371094-1.839843 27.328125 3.78125 7.953125 5.621094 12.683593 14.753907 12.683593 24.496094v45.625h-248.636718zm108.671875 405.667969h-332.035157c-16.558593-.015625-29.980468-13.4375-30-30v-281.765625h362.035157c16.5625.019532 29.984375 13.4375 30 30v50.261719h-80.265625c-27.601563.03125-49.96875 22.398437-50 50v57.046875c.03125 27.601562 22.398437 49.96875 50 50h80.265625v44.457031c-.015625 16.5625-13.4375 29.984375-30 30zm30-211.503906v117.046875h-80.265625c-16.558594-.019531-29.980469-13.4375-30-30v-57.046875c.019531-16.5625 13.441406-29.984375 30-30zm0 0"/></svg>