<svg height="480pt" viewBox="-58 0 480 480" width="480pt" xmlns="http://www.w3.org/2000/svg"><path d="m185.214844 113h-7.046875c-71.679688 0-129.785157 58.105469-129.785157 129.785156 0 71.679688 58.105469 129.785156 129.785157 129.785156h7.046875c71.675781 0 129.78125-58.105468 129.78125-129.785156 0-71.679687-58.105469-129.785156-129.78125-129.785156zm0 239.570312h-7.046875c-60.632813 0-109.785157-49.152343-109.785157-109.785156 0-60.632812 49.152344-109.785156 109.785157-109.785156h7.046875c60.628906 0 109.78125 49.152344 109.78125 109.785156 0 60.632813-49.152344 109.785156-109.78125 109.785156zm0 0"/><path d="m229.601562 238.355469h-40.699218v-57.976563c0-5.523437-4.476563-10-10-10-5.523438 0-10 4.476563-10 10v67.976563c0 5.523437 4.476562 10 10 10h50.699218c5.523438 0 10-4.476563 10-10 0-5.523438-4.476562-10-10-10zm0 0"/><path d="m289.15625 98.71875v-58.71875c-.023438-22.082031-17.917969-39.9765625-40-40h-134.933594c-22.082031.0234375-39.976562 17.917969-40 40v58.738281c-7.941406 5.675781-15.40625 11.992188-22.316406 18.882813-69.097656 68.980468-69.222656 180.90625-.285156 250.042968 6.992187 7.011719 14.550781 13.425782 22.601562 19.1875v53.148438c.023438 22.082031 17.917969 39.976562 40 40h134.9375c22.078125-.023438 39.972656-17.917969 40-40v-53.171875c7.941406-5.675781 15.402344-11.988281 22.316406-18.882813 69.097657-68.980468 69.222657-180.902343.28125-250.039062-6.988281-7.011719-14.546874-13.429688-22.601562-19.1875zm-194.933594-58.71875c.011719-11.039062 8.957032-19.988281 20-20h134.9375c11.039063.011719 19.984375 8.960938 20 20v46.351562c-25.445312-13.429687-53.796875-20.417968-82.570312-20.351562h-9.8125c-28.769532-.0625-57.117188 6.933594-82.5625 20.367188v-46.367188zm174.933594 400c-.011719 11.039062-8.957031 19.988281-20 20h-134.933594c-11.042968-.011719-19.988281-8.960938-20-20v-40.78125c25.445313 13.429688 53.796875 20.417969 82.566406 20.351562h9.8125c28.769532.058594 57.117188-6.933593 82.558594-20.371093v40.800781zm-82.566406-40.429688h-9.8125c-86.449219 0-156.785156-70.332031-156.785156-156.785156s70.339843-156.785156 156.796874-156.785156h9.8125c86.453126 0 156.785157 70.332031 156.785157 156.785156s-70.339844 156.785156-156.796875 156.785156zm0 0"/></svg>