<svg height="482pt" viewBox="-127 0 482 482" width="482pt" xmlns="http://www.w3.org/2000/svg"><path d="m179.195312 110.398438v-20.738282c5.496094-.039062 9.933594-4.503906 9.933594-10v-59.660156c-.015625-11.039062-8.960937-19.9882812-20-20h-109.398437c-11.039063.0117188-19.988281 8.960938-20 20v59.664062c0 5.496094 4.4375 9.960938 9.933593 10v20.785157c-29.964843 14.925781-49.664062 46.621093-49.664062 80.957031v240.59375c.03125 27.601562 22.398438 49.96875 50 50h128.855469c27.601562-.03125 49.96875-22.398438 50-50v-240.601562c.039062-17.988282-5.238281-35.589844-15.175781-50.589844-8.574219-13.03125-20.484376-23.527344-34.484376-30.410156zm-119.464843-90.398438h109.402343v49.664062h-109.402343l-.007813-49.664062zm3.65625 106.191406c3.792969-1.523437 6.277343-5.195312 6.277343-9.28125v-27.246094h89.527344v27.246094c0 4.105469 2.511719 7.792969 6.328125 9.300782 25.921875 10.234374 43.335938 36.433593 43.335938 65.191406v22.179687h-188.851563v-22.183593c0-28.585938 17.4375-54.796876 43.386719-65.207032zm145.472656 107.394532v109.1875h-188.855469v-109.1875zm-30 228.414062h-128.855469c-16.5625-.019531-29.980468-13.4375-30-30v-69.226562h188.855469v69.226562c-.019531 16.5625-13.441406 29.980469-30 30zm0 0"/></svg>