<svg height="448pt" viewBox="0 -12 448.42251 448" width="448pt" xmlns="http://www.w3.org/2000/svg"><path d="m398.425781 209.683594h-254.351562v-110.691406c16.085937-5.722657 25.324219-22.605469 21.46875-39.238282-3.851563-16.636718-19.570313-27.738281-36.535157-25.804687-16.96875 1.933593-29.785156 16.285156-29.796874 33.363281.019531 15.175781 10.207031 28.460938 24.863281 32.414062v109.957032h-60.402344c-27.597656.03125-49.96875 22.398437-50 50v102.539062c0 5.519532 4.480469 10 10 10h32.417969v42.0625c0 5.519532 4.480468 10 10 10h325.203125c5.519531 0 10-4.480468 10-10v-42.0625h37.128906c5.523437 0 10-4.480468 10-10v-102.539062c-.03125-27.601563-22.394531-49.96875-49.996094-50zm-279.214843-142.371094c0-7.492188 6.074218-13.566406 13.566406-13.566406 7.492187 0 13.5625 6.074218 13.5625 13.566406s-6.070313 13.566406-13.5625 13.566406c-7.488282-.011718-13.558594-6.078125-13.566406-13.566406zm262.082031 336.972656h-305.203125v-32.0625h305.203125zm47.128906-52.0625h-394.75v-92.539062c.015625-16.5625 13.4375-29.980469 30-30h334.753906c16.558594.019531 29.980469 13.4375 30 30v92.539062zm0 0"/><path d="m99.367188 262.097656c-5.523438 0-10 4.476563-10 10v37.699219c0 5.523437 4.476562 10 10 10 5.523437 0 10-4.476563 10-10v-37.699219c0-5.523437-4.476563-10-10-10zm0 0"/><path d="m346.351562 255.734375c-18.019531 0-32.625 14.605469-32.625 32.621094 0 18.019531 14.605469 32.625 32.625 32.625 17.617188 0 31.945313-14.167969 32.613282-32.253907 0-.125.007812-.246093.007812-.371093-.019531-18.007813-14.613281-32.601563-32.621094-32.621094zm0 45.246094c-6.949218 0-12.589843-5.613281-12.625-12.5625-.03125-6.949219 5.554688-12.617188 12.503907-12.683594 6.945312-.066406 12.640625 5.492187 12.742187 12.441406-.359375 7.195313-5.867187 12.808594-12.621094 12.808594zm0 0"/><path d="m157.636719 262.097656c-5.519531 0-10 4.476563-10 10v37.699219c0 5.523437 4.480469 10 10 10 5.523437 0 10-4.476563 10-10v-37.699219c0-5.523437-4.476563-10-10-10zm0 0"/><path d="m70.460938 107.476562c4.046874 0 7.691406-2.4375 9.242187-6.171874 1.546875-3.738282.691406-8.039063-2.171875-10.902344-14.003906-14.074219-14.003906-36.820313 0-50.898438 2.589844-2.511718 3.628906-6.226562 2.710938-9.714844-.917969-3.492187-3.644532-6.21875-7.132813-7.132812-3.492187-.917969-7.207031.117188-9.71875 2.707031-21.8125 21.886719-21.8125 57.296875 0 79.183594 1.875 1.878906 4.417969 2.933594 7.070313 2.929687zm0 0"/><path d="m32.226562 128.683594c4.046876 0 7.691407-2.4375 9.238282-6.171875 1.550781-3.738281.695312-8.039063-2.167969-10.898438-25.78125-25.785156-25.757813-68.09375.054687-94.316406 2.550782-2.539063 3.539063-6.25 2.59375-9.71875-.949218-3.46875-3.683593-6.164063-7.167968-7.054687-3.484375-.890626-7.179688.15625-9.675782 2.742187-33.488281 34.023437-33.464843 88.96875.054688 122.488281 1.871094 1.878906 4.417969 2.933594 7.070312 2.929688zm0 0"/></svg>