<svg height="401pt" viewBox="-18 0 401 401.46316" width="401pt" xmlns="http://www.w3.org/2000/svg"><path d="m16.25 334.8125c.714844 0 1.429688-.078125 2.128906-.230469l110.179688-23.976562c1.867187-.40625 3.582031-1.339844 4.9375-2.691407l186.625-186.164062c20.421875-20.371094 26.554687-51.046875 15.53125-77.703125-11.023438-26.660156-37.023438-44.046875-65.871094-44.046875h-.046875c-18.929687-.0390625-37.089844 7.5-50.421875 20.941406l-186.164062 186.625c-1.351563 1.355469-2.285157 3.070313-2.691407 4.9375l-23.976562 110.183594c-.644531 2.953125.085937 6.042969 1.984375 8.398438 1.898437 2.355468 4.761718 3.726562 7.785156 3.726562zm38.113281-120.191406 128.820313-129.140625 72.398437 72.398437-129.140625 128.820313zm179.105469-179.554688c9.589844-9.667968 22.65625-15.09375 36.273438-15.066406h.035156c20.75 0 39.460937 12.507812 47.390625 31.6875 7.929687 19.179688 3.519531 41.246094-11.175781 55.902344l-36.253907 36.164062-72.429687-72.433594zm-187.363281 199.585938 60.308593 60.304687-77.082031 16.773438zm0 0"/><path d="m354.503906 381.464844h-344.273437c-5.523438 0-10 4.476562-10 10 0 5.519531 4.476562 10 10 10h344.273437c5.523438 0 10-4.480469 10-10 0-5.523438-4.476562-10-10-10zm0 0"/></svg>