<svg height="467pt" viewBox="0 0 467.36182 467" width="467pt" xmlns="http://www.w3.org/2000/svg"><path d="m331.082031 265.421875c15.382813-26.769531 23.460938-57.113281 23.421875-87.988281 0-97.738282-79.515625-177.253906-177.25-177.253906-97.738281 0-177.253906 79.515624-177.253906 177.253906 0 97.734375 79.515625 177.25 177.253906 177.25 30.875.039062 61.21875-8.039063 87.988282-23.421875l122.648437 122.644531c18.1875 18.152344 47.640625 18.152344 65.832031 0l.058594-.058594c18.128906-18.1875 18.105469-47.621094-.054688-65.78125zm-311.082031-87.988281c0-86.710938 70.542969-157.253906 157.253906-157.253906 86.707032 0 157.25 70.542968 157.25 157.253906 0 86.707031-70.542968 157.25-157.25 157.25-86.710937 0-157.253906-70.542969-157.253906-157.25zm299.902344 105.089844 41.960937 41.960937-37.554687 37.554687-41.960938-41.964843c14.316406-10.578125 26.972656-23.234375 37.550782-37.550781zm119.679687 157.238281-.050781.046875c-10.378906 10.3125-27.140625 10.292968-37.5-.042969l-63.582031-63.582031 37.550781-37.554688 63.582031 63.582032c10.367188 10.367187 10.367188 27.179687 0 37.546874zm0 0"/><path d="m247.195312 166.121094h-56.902343v-56.898438c0-5.523437-4.476563-10-10-10-5.523438 0-10 4.476563-10 10v56.898438h-56.898438c-5.523437 0-10 4.476562-10 10 0 5.523437 4.476563 10 10 10h56.898438v56.902344c0 5.519531 4.476562 10 10 10 5.523437 0 10-4.480469 10-10v-56.902344h56.902343c5.523438 0 10-4.476563 10-10 0-5.523438-4.476562-10-10-10zm0 0"/></svg>