<svg height="467pt" viewBox="0 0 467.36082 467" width="467pt" xmlns="http://www.w3.org/2000/svg"><path d="m331.078125 265.421875c15.386719-26.769531 23.460937-57.113281 23.425781-87.992187 0-97.734376-79.515625-177.25-177.25-177.25-97.738281 0-177.253906 79.515624-177.253906 177.25 0 97.738281 79.515625 177.253906 177.25 177.253906 30.875.035156 61.21875-8.039063 87.992188-23.425782l122.644531 122.648438c18.191406 18.152344 47.644531 18.152344 65.832031 0l.0625-.0625c18.128906-18.1875 18.101562-47.617188-.054688-65.777344zm-311.078125-87.992187c0-86.707032 70.542969-157.25 157.25-157.25 86.710938 0 157.253906 70.542968 157.253906 157.25 0 86.710937-70.542968 157.253906-157.253906 157.253906-86.707031 0-157.25-70.542969-157.25-157.253906zm299.898438 105.09375 41.960937 41.960937-37.550781 37.554687-41.960938-41.964843c14.316406-10.578125 26.972656-23.234375 37.546875-37.550781zm119.679687 157.238281-.046875.046875c-10.382812 10.308594-27.144531 10.292968-37.5-.042969l-63.585938-63.582031 37.554688-37.554688 63.578125 63.582032c10.371094 10.367187 10.371094 27.179687 0 37.546874zm0 0"/><path d="m247.191406 166.121094h-133.796875c-5.523437 0-10 4.476562-10 10 0 5.523437 4.476563 10 10 10h133.796875c5.523438 0 10-4.476563 10-10 0-5.523438-4.476562-10-10-10zm0 0"/></svg>